G04 #@! TF.GenerationSoftware,KiCad,Pcbnew,8.0.2-1*
G04 #@! TF.CreationDate,2024-07-03T19:50:58+09:00*
G04 #@! TF.ProjectId,lagoon,6c61676f-6f6e-42e6-9b69-6361645f7063,rev?*
G04 #@! TF.SameCoordinates,Original*
G04 #@! TF.FileFunction,Profile,NP*
%FSLAX46Y46*%
G04 Gerber Fmt 4.6, Leading zero omitted, Abs format (unit mm)*
G04 Created by KiCad (PCBNEW 8.0.2-1) date 2024-07-03 19:50:58*
%MOMM*%
%LPD*%
G01*
G04 APERTURE LIST*
G04 #@! TA.AperFunction,Profile*
%ADD10C,0.100000*%
G04 #@! TD*
G04 #@! TA.AperFunction,Profile*
%ADD11C,0.120000*%
G04 #@! TD*
G04 #@! TA.AperFunction,Profile*
%ADD12C,0.010000*%
G04 #@! TD*
G04 APERTURE END LIST*
D10*
X17673377Y-99642387D02*
G75*
G02*
X12670570Y-94631247I12253J5015047D01*
G01*
X12668750Y-17668716D02*
G75*
G02*
X17673445Y-12668748I5035780J-35844D01*
G01*
X256561045Y-12668750D02*
X17673445Y-12668750D01*
X261554244Y-94631249D02*
X261554244Y-17668664D01*
X261554243Y-94631249D02*
G75*
G02*
X256560952Y-99629754I-4985543J-12951D01*
G01*
X137192421Y-105748070D02*
G75*
G02*
X116713517Y-102645805I-75121J68648670D01*
G01*
X177748897Y-99631249D02*
X256560952Y-99629720D01*
X17673377Y-99642388D02*
X96635945Y-99642388D01*
X96635945Y-99634328D02*
G75*
G02*
X116713513Y-102645819I-45J-68434472D01*
G01*
X157671326Y-102645809D02*
G75*
G02*
X137192421Y-105748066I-20403726J65546209D01*
G01*
X157671326Y-102645809D02*
G75*
G02*
X177748897Y-99634328I20077474J-65422291D01*
G01*
X256561045Y-12668750D02*
G75*
G02*
X261554230Y-17668664I11555J-4981650D01*
G01*
X12664720Y-17668716D02*
X12668750Y-94631248D01*
D11*
X159285436Y-20831233D02*
X162785436Y-20831233D01*
X159285436Y-24031233D02*
X159285436Y-20831233D01*
X162785436Y-20831233D02*
X162785436Y-24031233D01*
X162785436Y-24031233D02*
X159285436Y-24031233D01*
D12*
X18868750Y-16668750D02*
G75*
G02*
X14468750Y-16668750I-2200000J0D01*
G01*
X14468750Y-16668750D02*
G75*
G02*
X18868750Y-16668750I2200000J0D01*
G01*
D11*
X161868790Y-82338857D02*
X165334728Y-81851751D01*
X162314144Y-85507715D02*
X161868790Y-82338857D01*
X165334728Y-81851751D02*
X165780082Y-85020609D01*
X165780082Y-85020609D02*
X162314144Y-85507715D01*
X211672936Y-58931233D02*
X215172936Y-58931233D01*
X211672936Y-62131233D02*
X211672936Y-58931233D01*
X215172936Y-58931233D02*
X215172936Y-62131233D01*
X215172936Y-62131233D02*
X211672936Y-62131233D01*
X135472936Y-58931233D02*
X138972936Y-58931233D01*
X135472936Y-62131233D02*
X135472936Y-58931233D01*
X138972936Y-58931233D02*
X138972936Y-62131233D01*
X138972936Y-62131233D02*
X135472936Y-62131233D01*
X178335436Y-20831233D02*
X181835436Y-20831233D01*
X178335436Y-24031233D02*
X178335436Y-20831233D01*
X181835436Y-20831233D02*
X181835436Y-24031233D01*
X181835436Y-24031233D02*
X178335436Y-24031233D01*
X102135436Y-20831233D02*
X105635436Y-20831233D01*
X102135436Y-24031233D02*
X102135436Y-20831233D01*
X105635436Y-20831233D02*
X105635436Y-24031233D01*
X105635436Y-24031233D02*
X102135436Y-24031233D01*
X116422936Y-58931233D02*
X119922936Y-58931233D01*
X116422936Y-62131233D02*
X116422936Y-58931233D01*
X119922936Y-58931233D02*
X119922936Y-62131233D01*
X119922936Y-62131233D02*
X116422936Y-62131233D01*
X183097936Y-39881233D02*
X186597936Y-39881233D01*
X183097936Y-43081233D02*
X183097936Y-39881233D01*
X186597936Y-39881233D02*
X186597936Y-43081233D01*
X186597936Y-43081233D02*
X183097936Y-43081233D01*
X154522936Y-58931233D02*
X158022936Y-58931233D01*
X154522936Y-62131233D02*
X154522936Y-58931233D01*
X158022936Y-58931233D02*
X158022936Y-62131233D01*
X158022936Y-62131233D02*
X154522936Y-62131233D01*
X28316736Y-39881233D02*
X31816736Y-39881233D01*
X28316736Y-43081233D02*
X28316736Y-39881233D01*
X31816736Y-39881233D02*
X31816736Y-43081233D01*
X31816736Y-43081233D02*
X28316736Y-43081233D01*
X87847936Y-39881233D02*
X91347936Y-39881233D01*
X87847936Y-43081233D02*
X87847936Y-39881233D01*
X91347936Y-39881233D02*
X91347936Y-43081233D01*
X91347936Y-43081233D02*
X87847936Y-43081233D01*
X49747936Y-39881233D02*
X53247936Y-39881233D01*
X49747936Y-43081233D02*
X49747936Y-39881233D01*
X53247936Y-39881233D02*
X53247936Y-43081233D01*
X53247936Y-43081233D02*
X49747936Y-43081233D01*
X197385436Y-20831233D02*
X200885436Y-20831233D01*
X197385436Y-24031233D02*
X197385436Y-20831233D01*
X200885436Y-20831233D02*
X200885436Y-24031233D01*
X200885436Y-24031233D02*
X197385436Y-24031233D01*
X80829889Y-82244162D02*
X81053109Y-79051957D01*
X81053109Y-79051957D02*
X84544583Y-79296104D01*
X84321363Y-82488309D02*
X80829889Y-82244162D01*
X84544583Y-79296104D02*
X84321363Y-82488309D01*
X82972936Y-20831233D02*
X86472936Y-20831233D01*
X82972936Y-24031233D02*
X82972936Y-20831233D01*
X86472936Y-20831233D02*
X86472936Y-24031233D01*
X86472936Y-24031233D02*
X82972936Y-24031233D01*
X144997936Y-39881233D02*
X148497936Y-39881233D01*
X144997936Y-43081233D02*
X144997936Y-39881233D01*
X148497936Y-39881233D02*
X148497936Y-43081233D01*
X148497936Y-43081233D02*
X144997936Y-43081233D01*
D12*
X18868750Y-95631249D02*
G75*
G02*
X14468750Y-95631249I-2200000J0D01*
G01*
X14468750Y-95631249D02*
G75*
G02*
X18868750Y-95631249I2200000J0D01*
G01*
D11*
X44872936Y-20831233D02*
X48372936Y-20831233D01*
X44872936Y-24031233D02*
X44872936Y-20831233D01*
X48372936Y-20831233D02*
X48372936Y-24031233D01*
X48372936Y-24031233D02*
X44872936Y-24031233D01*
X242629236Y-39881233D02*
X246129236Y-39881233D01*
X242629236Y-43081233D02*
X242629236Y-39881233D01*
X246129236Y-39881233D02*
X246129236Y-43081233D01*
X246129236Y-43081233D02*
X242629236Y-43081233D01*
X221197936Y-39881233D02*
X224697936Y-39881233D01*
X221197936Y-43081233D02*
X221197936Y-39881233D01*
X224697936Y-39881233D02*
X224697936Y-43081233D01*
X224697936Y-43081233D02*
X221197936Y-43081233D01*
X33079236Y-58931233D02*
X36579236Y-58931233D01*
X33079236Y-62131233D02*
X33079236Y-58931233D01*
X36579236Y-58931233D02*
X36579236Y-62131233D01*
X36579236Y-62131233D02*
X33079236Y-62131233D01*
X240247936Y-20831233D02*
X243747936Y-20831233D01*
X240247936Y-24031233D02*
X240247936Y-20831233D01*
X243747936Y-20831233D02*
X243747936Y-24031233D01*
X243747936Y-24031233D02*
X240247936Y-24031233D01*
X140235436Y-20831233D02*
X143735436Y-20831233D01*
X140235436Y-24031233D02*
X140235436Y-20831233D01*
X143735436Y-20831233D02*
X143735436Y-24031233D01*
X143735436Y-24031233D02*
X140235436Y-24031233D01*
X173572936Y-58931233D02*
X177072936Y-58931233D01*
X173572936Y-62131233D02*
X173572936Y-58931233D01*
X177072936Y-58931233D02*
X177072936Y-62131233D01*
X177072936Y-62131233D02*
X173572936Y-62131233D01*
X214615536Y-77981233D02*
X218115536Y-77981233D01*
X214615536Y-81181233D02*
X214615536Y-77981233D01*
X218115536Y-77981233D02*
X218115536Y-81181233D01*
X218115536Y-81181233D02*
X214615536Y-81181233D01*
X18497936Y-24437533D02*
X21997936Y-24437533D01*
X18497936Y-27637533D02*
X18497936Y-24437533D01*
X21997936Y-24437533D02*
X21997936Y-27637533D01*
X21997936Y-27637533D02*
X18497936Y-27637533D01*
X78322936Y-58931233D02*
X81822936Y-58931233D01*
X78322936Y-62131233D02*
X78322936Y-58931233D01*
X81822936Y-58931233D02*
X81822936Y-62131233D01*
X81822936Y-62131233D02*
X78322936Y-62131233D01*
D12*
X139422985Y-102985806D02*
G75*
G02*
X135022985Y-102985806I-2200000J0D01*
G01*
X135022985Y-102985806D02*
G75*
G02*
X139422985Y-102985806I2200000J0D01*
G01*
D11*
X97372936Y-58931233D02*
X100872936Y-58931233D01*
X97372936Y-62131233D02*
X97372936Y-58931233D01*
X100872936Y-58931233D02*
X100872936Y-62131233D01*
X100872936Y-62131233D02*
X97372936Y-62131233D01*
X108513990Y-84995309D02*
X108959344Y-81826451D01*
X108959344Y-81826451D02*
X112425282Y-82313557D01*
X111979928Y-85482415D02*
X108513990Y-84995309D01*
X112425282Y-82313557D02*
X111979928Y-85482415D01*
D12*
X259760945Y-95631249D02*
G75*
G02*
X255360945Y-95631249I-2200000J0D01*
G01*
X255360945Y-95631249D02*
G75*
G02*
X259760945Y-95631249I2200000J0D01*
G01*
D11*
X56074736Y-77981233D02*
X59574736Y-77981233D01*
X56074736Y-81181233D02*
X56074736Y-77981233D01*
X59574736Y-77981233D02*
X59574736Y-81181233D01*
X59574736Y-81181233D02*
X56074736Y-81181233D01*
X121185436Y-20831233D02*
X124685436Y-20831233D01*
X121185436Y-24031233D02*
X121185436Y-20831233D01*
X124685436Y-20831233D02*
X124685436Y-24031233D01*
X124685436Y-24031233D02*
X121185436Y-24031233D01*
X125947936Y-39881233D02*
X129447936Y-39881233D01*
X125947936Y-43081233D02*
X125947936Y-39881233D01*
X129447936Y-39881233D02*
X129447936Y-43081233D01*
X129447936Y-43081233D02*
X125947936Y-43081233D01*
X106897936Y-39881233D02*
X110397936Y-39881233D01*
X106897936Y-43081233D02*
X106897936Y-39881233D01*
X110397936Y-39881233D02*
X110397936Y-43081233D01*
X110397936Y-43081233D02*
X106897936Y-43081233D01*
X59272936Y-58931233D02*
X62772936Y-58931233D01*
X59272936Y-62131233D02*
X59272936Y-58931233D01*
X62772936Y-58931233D02*
X62772936Y-62131233D01*
X62772936Y-62131233D02*
X59272936Y-62131233D01*
X202147936Y-39881233D02*
X205647936Y-39881233D01*
X202147936Y-43081233D02*
X202147936Y-39881233D01*
X205647936Y-39881233D02*
X205647936Y-43081233D01*
X205647936Y-43081233D02*
X202147936Y-43081233D01*
D12*
X259754244Y-16668750D02*
G75*
G02*
X255354244Y-16668750I-2200000J0D01*
G01*
X255354244Y-16668750D02*
G75*
G02*
X259754244Y-16668750I2200000J0D01*
G01*
D11*
X192622936Y-58931233D02*
X196122936Y-58931233D01*
X192622936Y-62131233D02*
X192622936Y-58931233D01*
X196122936Y-58931233D02*
X196122936Y-62131233D01*
X196122936Y-62131233D02*
X192622936Y-62131233D01*
X189678389Y-79257704D02*
X193169863Y-79013557D01*
X189901609Y-82449909D02*
X189678389Y-79257704D01*
X193169863Y-79013557D02*
X193393083Y-82205762D01*
X193393083Y-82205762D02*
X189901609Y-82449909D01*
X68797936Y-39881233D02*
X72297936Y-39881233D01*
X68797936Y-43081233D02*
X68797936Y-39881233D01*
X72297936Y-39881233D02*
X72297936Y-43081233D01*
X72297936Y-43081233D02*
X68797936Y-43081233D01*
X164047936Y-39881233D02*
X167547936Y-39881233D01*
X164047936Y-43081233D02*
X164047936Y-39881233D01*
X167547936Y-39881233D02*
X167547936Y-43081233D01*
X167547936Y-43081233D02*
X164047936Y-43081233D01*
X216435436Y-20831233D02*
X219935436Y-20831233D01*
X216435436Y-24031233D02*
X216435436Y-20831233D01*
X219935436Y-20831233D02*
X219935436Y-24031233D01*
X219935436Y-24031233D02*
X216435436Y-24031233D01*
X237866736Y-58931233D02*
X241366736Y-58931233D01*
X237866736Y-62131233D02*
X237866736Y-58931233D01*
X241366736Y-58931233D02*
X241366736Y-62131233D01*
X241366736Y-62131233D02*
X237866736Y-62131233D01*
X63922936Y-20831233D02*
X67422936Y-20831233D01*
X63922936Y-24031233D02*
X63922936Y-20831233D01*
X67422936Y-20831233D02*
X67422936Y-24031233D01*
X67422936Y-24031233D02*
X63922936Y-24031233D01*
M02*
