G04 #@! TF.GenerationSoftware,KiCad,Pcbnew,8.0.2-1*
G04 #@! TF.CreationDate,2024-07-03T19:50:58+09:00*
G04 #@! TF.ProjectId,lagoon,6c61676f-6f6e-42e6-9b69-6361645f7063,rev?*
G04 #@! TF.SameCoordinates,Original*
G04 #@! TF.FileFunction,Soldermask,Bot*
G04 #@! TF.FilePolarity,Negative*
%FSLAX46Y46*%
G04 Gerber Fmt 4.6, Leading zero omitted, Abs format (unit mm)*
G04 Created by KiCad (PCBNEW 8.0.2-1) date 2024-07-03 19:50:58*
%MOMM*%
%LPD*%
G01*
G04 APERTURE LIST*
G04 Aperture macros list*
%AMRotRect*
0 Rectangle, with rotation*
0 The origin of the aperture is its center*
0 $1 length*
0 $2 width*
0 $3 Rotation angle, in degrees counterclockwise*
0 Add horizontal line*
21,1,$1,$2,0,0,$3*%
G04 Aperture macros list end*
%ADD10C,3.100000*%
%ADD11C,5.000000*%
%ADD12R,3.000000X3.500000*%
%ADD13R,1.300000X0.950000*%
%ADD14R,2.200000X0.820000*%
%ADD15RotRect,2.200000X0.820000X188.000000*%
%ADD16RotRect,3.000000X3.500000X188.000000*%
%ADD17RotRect,3.000000X3.500000X184.000000*%
%ADD18RotRect,1.300000X0.950000X176.000000*%
%ADD19RotRect,1.300000X0.950000X188.000000*%
%ADD20C,2.000000*%
%ADD21R,3.200000X2.500000*%
%ADD22RotRect,3.000000X3.500000X176.000000*%
%ADD23RotRect,2.200000X0.820000X176.000000*%
%ADD24RotRect,1.300000X0.950000X172.000000*%
%ADD25RotRect,2.200000X0.820000X172.000000*%
%ADD26RotRect,2.200000X0.820000X184.000000*%
%ADD27RotRect,3.000000X3.500000X172.000000*%
%ADD28RotRect,1.300000X0.950000X184.000000*%
%ADD29C,1.250000*%
%ADD30C,1.500000*%
G04 APERTURE END LIST*
D10*
X198785436Y-50325033D03*
D11*
X203785436Y-46625033D03*
D10*
X203785436Y-52525033D03*
D12*
X195435436Y-50325033D03*
X207335436Y-52525033D03*
D10*
X74960436Y-69375033D03*
D11*
X79960436Y-65675033D03*
D10*
X79960436Y-71575033D03*
D12*
X71610436Y-69375033D03*
X83510436Y-71575033D03*
D13*
X149122936Y-29575033D03*
X145572936Y-29575033D03*
D14*
X163985436Y-21681233D03*
X158085436Y-21681233D03*
X158085436Y-23181233D03*
X163985436Y-23181233D03*
D10*
X213072936Y-31275033D03*
D11*
X218072936Y-27575033D03*
D10*
X218072936Y-33475033D03*
D12*
X209722936Y-31275033D03*
X221622936Y-33475033D03*
D10*
X24954236Y-50325033D03*
D11*
X29954236Y-46625033D03*
D10*
X29954236Y-52525033D03*
D12*
X21604236Y-50325033D03*
X33504236Y-52525033D03*
D13*
X37122936Y-48625033D03*
X33572936Y-48625033D03*
X42122936Y-67675033D03*
X38572936Y-67675033D03*
X230322936Y-48537533D03*
X226772936Y-48537533D03*
X58622936Y-48625033D03*
X55072936Y-48625033D03*
D15*
X161007525Y-84832995D03*
X166850107Y-84011873D03*
X166641347Y-82526471D03*
X160798765Y-83347593D03*
D10*
X174972936Y-31275033D03*
D11*
X179972936Y-27575033D03*
D10*
X179972936Y-33475033D03*
D12*
X171622936Y-31275033D03*
X183522936Y-33475033D03*
D14*
X216372936Y-59781233D03*
X210472936Y-59781233D03*
X210472936Y-61281233D03*
X216372936Y-61281233D03*
D13*
X206522936Y-29537533D03*
X202972936Y-29537533D03*
X225622936Y-29537533D03*
X222072936Y-29537533D03*
D14*
X140172936Y-59781233D03*
X134272936Y-59781233D03*
X134272936Y-61281233D03*
X140172936Y-61281233D03*
D13*
X243722936Y-96237533D03*
X240172936Y-96237533D03*
D10*
X46385436Y-50325033D03*
D11*
X51385436Y-46625033D03*
D10*
X51385436Y-52525033D03*
D12*
X43035436Y-50325033D03*
X54935436Y-52525033D03*
D14*
X183035436Y-21681233D03*
X177135436Y-21681233D03*
X177135436Y-23181233D03*
X183035436Y-23181233D03*
X106835436Y-21681233D03*
X100935436Y-21681233D03*
X100935436Y-23181233D03*
X106835436Y-23181233D03*
X121122936Y-59781233D03*
X115222936Y-59781233D03*
X115222936Y-61281233D03*
X121122936Y-61281233D03*
X181897936Y-42231233D03*
X187797936Y-42231233D03*
X187797936Y-40731233D03*
X181897936Y-40731233D03*
D13*
X247022936Y-67637533D03*
X243472936Y-67637533D03*
X106622936Y-67675033D03*
X103072936Y-67675033D03*
D10*
X151160436Y-69375033D03*
D11*
X156160436Y-65675033D03*
D10*
X156160436Y-71575033D03*
D12*
X147810436Y-69375033D03*
X159710436Y-71575033D03*
D14*
X159222936Y-59781233D03*
X153322936Y-59781233D03*
X153322936Y-61281233D03*
X159222936Y-61281233D03*
D13*
X34822936Y-30037533D03*
X31272936Y-30037533D03*
D10*
X217835436Y-50325033D03*
D11*
X222835436Y-46625033D03*
D10*
X222835436Y-52525033D03*
D12*
X214485436Y-50325033D03*
X226385436Y-52525033D03*
D10*
X194022936Y-31275033D03*
D11*
X199022936Y-27575033D03*
D10*
X199022936Y-33475033D03*
D12*
X190672936Y-31275033D03*
X202572936Y-33475033D03*
D13*
X78122936Y-48625033D03*
X74572936Y-48625033D03*
D14*
X27116736Y-42231233D03*
X33016736Y-42231233D03*
X33016736Y-40731233D03*
X27116736Y-40731233D03*
D13*
X220822936Y-67637533D03*
X217272936Y-67637533D03*
D14*
X86647936Y-42231233D03*
X92547936Y-42231233D03*
X92547936Y-40731233D03*
X86647936Y-40731233D03*
D10*
X113060436Y-69375033D03*
D11*
X118060436Y-65675033D03*
D10*
X118060436Y-71575033D03*
D12*
X109710436Y-69375033D03*
X121610436Y-71575033D03*
D10*
X239266736Y-50325033D03*
D11*
X244266736Y-46625033D03*
D10*
X244266736Y-52525033D03*
D12*
X235916736Y-50325033D03*
X247816736Y-52525033D03*
D13*
X182722936Y-67637533D03*
X179172936Y-67637533D03*
D10*
X160091336Y-93160490D03*
D11*
X164527736Y-88800633D03*
D10*
X165348857Y-94643215D03*
D16*
X156773938Y-93626720D03*
X168864309Y-94149150D03*
D13*
X54122936Y-29575033D03*
X50572936Y-29575033D03*
D10*
X155922936Y-31275033D03*
D11*
X160922936Y-27575033D03*
D10*
X160922936Y-33475033D03*
D12*
X152572936Y-31275033D03*
X164472936Y-33475033D03*
D14*
X48547936Y-42231233D03*
X54447936Y-42231233D03*
X54447936Y-40731233D03*
X48547936Y-40731233D03*
D10*
X141635436Y-50325033D03*
D11*
X146635436Y-46625033D03*
D10*
X146635436Y-52525033D03*
D12*
X138285436Y-50325033D03*
X150185436Y-52525033D03*
D13*
X154122936Y-48537533D03*
X150572936Y-48537533D03*
D10*
X65435436Y-50325033D03*
D11*
X70435436Y-46625033D03*
D10*
X70435436Y-52525033D03*
D12*
X62085436Y-50325033D03*
X73985436Y-52525033D03*
D10*
X179735436Y-50325033D03*
D11*
X184735436Y-46625033D03*
D10*
X184735436Y-52525033D03*
D12*
X176385436Y-50325033D03*
X188285436Y-52525033D03*
D10*
X187149515Y-89958702D03*
D11*
X191879236Y-85918933D03*
D10*
X192290799Y-91804561D03*
D17*
X183807675Y-90192387D03*
X195832152Y-91556925D03*
D18*
X89618612Y-88561351D03*
X86077260Y-88313715D03*
D10*
X29716736Y-69375033D03*
D11*
X34716736Y-65675033D03*
D10*
X34716736Y-71575033D03*
D12*
X26366736Y-69375033D03*
X38266736Y-71575033D03*
D19*
X172205662Y-89790501D03*
X168690210Y-90284565D03*
D20*
X129722985Y-90270414D03*
X129722985Y-95270414D03*
X129722985Y-92770414D03*
D21*
X137222985Y-87170414D03*
X137222985Y-98370414D03*
D20*
X144222985Y-95270414D03*
X144222985Y-90270414D03*
D10*
X77095817Y-89248038D03*
D11*
X82341736Y-85905833D03*
D10*
X81930173Y-91791461D03*
D22*
X73753977Y-89014353D03*
X85471525Y-92039096D03*
D13*
X68422936Y-67675033D03*
X64872936Y-67675033D03*
D14*
X202085436Y-21681233D03*
X196185436Y-21681233D03*
X196185436Y-23181233D03*
X202085436Y-23181233D03*
D13*
X130122936Y-29575033D03*
X126572936Y-29575033D03*
D23*
X79692105Y-81312524D03*
X85577732Y-81724088D03*
X85682367Y-80227742D03*
X79796740Y-79816178D03*
D13*
X125422936Y-67637533D03*
X121872936Y-67637533D03*
D10*
X132110436Y-69375033D03*
D11*
X137110436Y-65675033D03*
D10*
X137110436Y-71575033D03*
D12*
X128760436Y-69375033D03*
X140660436Y-71575033D03*
D14*
X87672936Y-21681233D03*
X81772936Y-21681233D03*
X81772936Y-23181233D03*
X87672936Y-23181233D03*
D24*
X117033862Y-91734565D03*
X113518410Y-91240501D03*
D14*
X143797936Y-42231233D03*
X149697936Y-42231233D03*
X149697936Y-40731233D03*
X143797936Y-40731233D03*
D10*
X52824736Y-88425033D03*
D11*
X57824736Y-84725033D03*
D10*
X57824736Y-90625033D03*
D12*
X49474736Y-88425033D03*
X61374736Y-90625033D03*
D13*
X87422936Y-67675033D03*
X83872936Y-67675033D03*
X135122936Y-48625033D03*
X131572936Y-48625033D03*
X223822936Y-86737533D03*
X220272936Y-86737533D03*
D10*
X84485436Y-50325033D03*
D11*
X89485436Y-46625033D03*
D10*
X89485436Y-52525033D03*
D12*
X81135436Y-50325033D03*
X93035436Y-52525033D03*
D14*
X49572936Y-21681233D03*
X43672936Y-21681233D03*
X43672936Y-23181233D03*
X49572936Y-23181233D03*
D10*
X94010436Y-69375033D03*
D11*
X99010436Y-65675033D03*
D10*
X99010436Y-71575033D03*
D12*
X90660436Y-69375033D03*
X102560436Y-71575033D03*
D13*
X251722936Y-48537533D03*
X248172936Y-48537533D03*
D10*
X117822936Y-31275033D03*
D11*
X122822936Y-27575033D03*
D10*
X122822936Y-33475033D03*
D12*
X114472936Y-31275033D03*
X126372936Y-33475033D03*
D13*
X111122936Y-29575033D03*
X107572936Y-29575033D03*
D14*
X241429236Y-42231233D03*
X247329236Y-42231233D03*
X247329236Y-40731233D03*
X241429236Y-40731233D03*
D13*
X116122936Y-48625033D03*
X112572936Y-48625033D03*
X187322936Y-29575033D03*
X183772936Y-29575033D03*
D14*
X219997936Y-42231233D03*
X225897936Y-42231233D03*
X225897936Y-40731233D03*
X219997936Y-40731233D03*
D10*
X136872936Y-31275033D03*
D11*
X141872936Y-27575033D03*
D10*
X141872936Y-33475033D03*
D12*
X133522936Y-31275033D03*
X145422936Y-33475033D03*
D14*
X37779236Y-59781233D03*
X31879236Y-59781233D03*
X31879236Y-61281233D03*
X37779236Y-61281233D03*
D13*
X65122936Y-86725033D03*
X61572936Y-86725033D03*
D14*
X244947936Y-21681233D03*
X239047936Y-21681233D03*
X239047936Y-23181233D03*
X244947936Y-23181233D03*
D10*
X55910436Y-69375033D03*
D11*
X60910436Y-65675033D03*
D10*
X60910436Y-71575033D03*
D12*
X52560436Y-69375033D03*
X64460436Y-71575033D03*
D14*
X144935436Y-21681233D03*
X139035436Y-21681233D03*
X139035436Y-23181233D03*
X144935436Y-23181233D03*
X178272936Y-59781233D03*
X172372936Y-59781233D03*
X172372936Y-61281233D03*
X178272936Y-61281233D03*
D10*
X22572936Y-31275033D03*
D11*
X27572936Y-27575033D03*
D10*
X27572936Y-33475033D03*
D12*
X19222936Y-31275033D03*
X31122936Y-33475033D03*
D14*
X213415536Y-80331233D03*
X219315536Y-80331233D03*
X219315536Y-78831233D03*
X213415536Y-78831233D03*
D20*
X234385436Y-84606233D03*
X234385436Y-89606233D03*
X234385436Y-87106233D03*
D21*
X241885436Y-81506233D03*
X241885436Y-92706233D03*
D20*
X248885436Y-89606233D03*
X248885436Y-84606233D03*
D13*
X43575036Y-16549533D03*
X40025036Y-16549533D03*
D14*
X23197936Y-25287533D03*
X17297936Y-25287533D03*
X17297936Y-26787533D03*
X23197936Y-26787533D03*
D10*
X41622936Y-31275033D03*
D11*
X46622936Y-27575033D03*
D10*
X46622936Y-33475033D03*
D12*
X38272936Y-31275033D03*
X50172936Y-33475033D03*
D14*
X83022936Y-59781233D03*
X77122936Y-59781233D03*
X77122936Y-61281233D03*
X83022936Y-61281233D03*
D13*
X168122936Y-29575033D03*
X164572936Y-29575033D03*
D10*
X236885436Y-31275033D03*
D11*
X241885436Y-27575033D03*
D10*
X241885436Y-33475033D03*
D12*
X233535436Y-31275033D03*
X245435436Y-33475033D03*
D10*
X122585436Y-50325033D03*
D11*
X127585436Y-46625033D03*
D10*
X127585436Y-52525033D03*
D12*
X119235436Y-50325033D03*
X131135436Y-52525033D03*
D13*
X249422936Y-29537533D03*
X245872936Y-29537533D03*
D10*
X60672936Y-31275033D03*
D11*
X65672936Y-27575033D03*
D10*
X65672936Y-33475033D03*
D12*
X57322936Y-31275033D03*
X69222936Y-33475033D03*
D13*
X163722936Y-67637533D03*
X160172936Y-67637533D03*
D10*
X160685436Y-50325033D03*
D11*
X165685436Y-46625033D03*
D10*
X165685436Y-52525033D03*
D12*
X157335436Y-50325033D03*
X169235436Y-52525033D03*
D13*
X201822936Y-67637533D03*
X198272936Y-67637533D03*
X92122936Y-29575033D03*
X88572936Y-29575033D03*
D14*
X102072936Y-59781233D03*
X96172936Y-59781233D03*
X96172936Y-61281233D03*
X102072936Y-61281233D03*
D25*
X107443965Y-83986573D03*
X113286547Y-84807695D03*
X113495307Y-83322293D03*
X107652725Y-82501171D03*
D13*
X73122936Y-29575033D03*
X69572936Y-29575033D03*
X34222936Y-96250033D03*
X30672936Y-96250033D03*
D14*
X54874736Y-80331233D03*
X60774736Y-80331233D03*
X60774736Y-78831233D03*
X54874736Y-78831233D03*
X125885436Y-21681233D03*
X119985436Y-21681233D03*
X119985436Y-23181233D03*
X125885436Y-23181233D03*
D10*
X189260436Y-69375033D03*
D11*
X194260436Y-65675033D03*
D10*
X194260436Y-71575033D03*
D12*
X185910436Y-69375033D03*
X197810436Y-71575033D03*
D10*
X208310436Y-69375033D03*
D11*
X213310436Y-65675033D03*
D10*
X213310436Y-71575033D03*
D12*
X204960436Y-69375033D03*
X216860436Y-71575033D03*
D14*
X124747936Y-42231233D03*
X130647936Y-42231233D03*
X130647936Y-40731233D03*
X124747936Y-40731233D03*
D20*
X24835436Y-84606233D03*
X24835436Y-89606233D03*
X24835436Y-87106233D03*
D21*
X32335436Y-81506233D03*
X32335436Y-92706233D03*
D20*
X39335436Y-89606233D03*
X39335436Y-84606233D03*
D14*
X105697936Y-42231233D03*
X111597936Y-42231233D03*
X111597936Y-40731233D03*
X105697936Y-40731233D03*
X63972936Y-59781233D03*
X58072936Y-59781233D03*
X58072936Y-61281233D03*
X63972936Y-61281233D03*
X200947936Y-42231233D03*
X206847936Y-42231233D03*
X206847936Y-40731233D03*
X200947936Y-40731233D03*
D10*
X234504236Y-69375033D03*
D11*
X239504236Y-65675033D03*
D10*
X239504236Y-71575033D03*
D12*
X231154236Y-69375033D03*
X243054236Y-71575033D03*
D10*
X170210436Y-69375033D03*
D11*
X175210436Y-65675033D03*
D10*
X175210436Y-71575033D03*
D12*
X166860436Y-69375033D03*
X178760436Y-71575033D03*
D14*
X197322936Y-59781233D03*
X191422936Y-59781233D03*
X191422936Y-61281233D03*
X197322936Y-61281233D03*
D26*
X188645240Y-81685688D03*
X194530867Y-81274124D03*
X194426232Y-79777778D03*
X188540605Y-80189342D03*
D10*
X104273055Y-91765459D03*
D11*
X109739336Y-88797333D03*
D10*
X108918215Y-94639915D03*
D27*
X100955657Y-91299229D03*
X112433666Y-95133979D03*
D10*
X103535436Y-50325033D03*
D11*
X108535436Y-46625033D03*
D10*
X108535436Y-52525033D03*
D12*
X100185436Y-50325033D03*
X112085436Y-52525033D03*
D13*
X173222936Y-48537533D03*
X169672936Y-48537533D03*
X97122936Y-48625033D03*
X93572936Y-48625033D03*
D14*
X67597936Y-42231233D03*
X73497936Y-42231233D03*
X73497936Y-40731233D03*
X67597936Y-40731233D03*
D10*
X98772936Y-31275033D03*
D11*
X103772936Y-27575033D03*
D10*
X103772936Y-33475033D03*
D12*
X95422936Y-31275033D03*
X107322936Y-33475033D03*
D14*
X162847936Y-42231233D03*
X168747936Y-42231233D03*
X168747936Y-40731233D03*
X162847936Y-40731233D03*
D10*
X79722936Y-31275033D03*
D11*
X84722936Y-27575033D03*
D10*
X84722936Y-33475033D03*
D12*
X76372936Y-31275033D03*
X88272936Y-33475033D03*
D13*
X138979635Y-83820000D03*
X135429635Y-83820000D03*
X144622936Y-67637533D03*
X141072936Y-67637533D03*
D14*
X221135436Y-21681233D03*
X215235436Y-21681233D03*
X215235436Y-23181233D03*
X221135436Y-23181233D03*
D28*
X199518612Y-87313715D03*
X195977260Y-87561351D03*
D14*
X242566736Y-59781233D03*
X236666736Y-59781233D03*
X236666736Y-61281233D03*
X242566736Y-61281233D03*
D29*
X15808236Y-37684667D03*
D30*
X15808236Y-37684667D03*
D29*
X18328236Y-37684667D03*
D30*
X18328236Y-37684667D03*
D29*
X20868236Y-37684667D03*
D30*
X20868236Y-37684667D03*
D29*
X23398236Y-37684667D03*
D30*
X23398236Y-37684667D03*
D29*
X25948236Y-37684667D03*
D30*
X25948236Y-37684667D03*
D29*
X28488236Y-37684667D03*
D30*
X28488236Y-37684667D03*
D29*
X31028236Y-37684667D03*
D30*
X31028236Y-37684667D03*
D29*
X33568236Y-37684667D03*
D30*
X33568236Y-37684667D03*
D29*
X36108236Y-37684667D03*
D30*
X36108236Y-37684667D03*
D29*
X36108236Y-35144667D03*
D30*
X36108236Y-35144667D03*
D29*
X36108236Y-27524667D03*
D30*
X36108236Y-27524667D03*
D29*
X36108236Y-24984667D03*
D30*
X36108236Y-24984667D03*
D29*
X36092577Y-22444667D03*
D30*
X36092577Y-22444667D03*
D29*
X33568236Y-22444667D03*
D30*
X33568236Y-22444667D03*
D29*
X31028236Y-22444667D03*
D30*
X31028236Y-22444667D03*
D29*
X28488236Y-22444667D03*
D30*
X28488236Y-22444667D03*
D29*
X25948236Y-22444667D03*
D30*
X25948236Y-22444667D03*
D29*
X23408236Y-22444667D03*
D30*
X23408236Y-22444667D03*
D29*
X20868236Y-22444667D03*
D30*
X20868236Y-22444667D03*
D29*
X18328236Y-22444667D03*
D30*
X18328236Y-22444667D03*
D29*
X15808236Y-22444667D03*
D30*
X15808236Y-22444667D03*
D13*
X211222936Y-48537533D03*
X207672936Y-48537533D03*
D10*
X211365536Y-88425033D03*
D11*
X216365536Y-84725033D03*
D10*
X216365536Y-90625033D03*
D12*
X208015536Y-88425033D03*
X219915536Y-90625033D03*
D14*
X68622936Y-21681233D03*
X62722936Y-21681233D03*
X62722936Y-23181233D03*
X68622936Y-23181233D03*
D13*
X192222936Y-48537533D03*
X188672936Y-48537533D03*
M02*
