G04 #@! TF.GenerationSoftware,KiCad,Pcbnew,8.0.2-1*
G04 #@! TF.CreationDate,2024-07-03T19:50:57+09:00*
G04 #@! TF.ProjectId,lagoon,6c61676f-6f6e-42e6-9b69-6361645f7063,rev?*
G04 #@! TF.SameCoordinates,Original*
G04 #@! TF.FileFunction,Copper,L2,Bot*
G04 #@! TF.FilePolarity,Positive*
%FSLAX46Y46*%
G04 Gerber Fmt 4.6, Leading zero omitted, Abs format (unit mm)*
G04 Created by KiCad (PCBNEW 8.0.2-1) date 2024-07-03 19:50:57*
%MOMM*%
%LPD*%
G01*
G04 APERTURE LIST*
G04 Aperture macros list*
%AMRotRect*
0 Rectangle, with rotation*
0 The origin of the aperture is its center*
0 $1 length*
0 $2 width*
0 $3 Rotation angle, in degrees counterclockwise*
0 Add horizontal line*
21,1,$1,$2,0,0,$3*%
G04 Aperture macros list end*
G04 #@! TA.AperFunction,WasherPad*
%ADD10C,3.100000*%
G04 #@! TD*
G04 #@! TA.AperFunction,SMDPad,CuDef*
%ADD11R,3.000000X3.500000*%
G04 #@! TD*
G04 #@! TA.AperFunction,SMDPad,CuDef*
%ADD12R,1.300000X0.950000*%
G04 #@! TD*
G04 #@! TA.AperFunction,SMDPad,CuDef*
%ADD13R,2.200000X0.820000*%
G04 #@! TD*
G04 #@! TA.AperFunction,SMDPad,CuDef*
%ADD14RotRect,2.200000X0.820000X188.000000*%
G04 #@! TD*
G04 #@! TA.AperFunction,SMDPad,CuDef*
%ADD15RotRect,3.000000X3.500000X188.000000*%
G04 #@! TD*
G04 #@! TA.AperFunction,SMDPad,CuDef*
%ADD16RotRect,3.000000X3.500000X184.000000*%
G04 #@! TD*
G04 #@! TA.AperFunction,SMDPad,CuDef*
%ADD17RotRect,1.300000X0.950000X176.000000*%
G04 #@! TD*
G04 #@! TA.AperFunction,SMDPad,CuDef*
%ADD18RotRect,1.300000X0.950000X188.000000*%
G04 #@! TD*
G04 #@! TA.AperFunction,ComponentPad*
%ADD19C,2.000000*%
G04 #@! TD*
G04 #@! TA.AperFunction,ComponentPad*
%ADD20R,3.200000X2.500000*%
G04 #@! TD*
G04 #@! TA.AperFunction,SMDPad,CuDef*
%ADD21RotRect,3.000000X3.500000X176.000000*%
G04 #@! TD*
G04 #@! TA.AperFunction,SMDPad,CuDef*
%ADD22RotRect,2.200000X0.820000X176.000000*%
G04 #@! TD*
G04 #@! TA.AperFunction,SMDPad,CuDef*
%ADD23RotRect,1.300000X0.950000X172.000000*%
G04 #@! TD*
G04 #@! TA.AperFunction,SMDPad,CuDef*
%ADD24RotRect,2.200000X0.820000X172.000000*%
G04 #@! TD*
G04 #@! TA.AperFunction,SMDPad,CuDef*
%ADD25RotRect,2.200000X0.820000X184.000000*%
G04 #@! TD*
G04 #@! TA.AperFunction,SMDPad,CuDef*
%ADD26RotRect,3.000000X3.500000X172.000000*%
G04 #@! TD*
G04 #@! TA.AperFunction,SMDPad,CuDef*
%ADD27RotRect,1.300000X0.950000X184.000000*%
G04 #@! TD*
G04 #@! TA.AperFunction,ComponentPad*
%ADD28C,1.250000*%
G04 #@! TD*
G04 #@! TA.AperFunction,SMDPad,CuDef*
%ADD29C,1.500000*%
G04 #@! TD*
G04 #@! TA.AperFunction,ViaPad*
%ADD30C,0.600000*%
G04 #@! TD*
G04 #@! TA.AperFunction,Conductor*
%ADD31C,0.200000*%
G04 #@! TD*
G04 #@! TA.AperFunction,Conductor*
%ADD32C,0.400000*%
G04 #@! TD*
G04 APERTURE END LIST*
D10*
X198785436Y-50325033D03*
X203785436Y-52525033D03*
D11*
X195435436Y-50325033D03*
X207335436Y-52525033D03*
D10*
X74960436Y-69375033D03*
X79960436Y-71575033D03*
D11*
X71610436Y-69375033D03*
X83510436Y-71575033D03*
D12*
X149122936Y-29575033D03*
X145572936Y-29575033D03*
D13*
X163985436Y-21681233D03*
X158085436Y-21681233D03*
X158085436Y-23181233D03*
X163985436Y-23181233D03*
D10*
X213072936Y-31275033D03*
X218072936Y-33475033D03*
D11*
X209722936Y-31275033D03*
X221622936Y-33475033D03*
D10*
X24954236Y-50325033D03*
X29954236Y-52525033D03*
D11*
X21604236Y-50325033D03*
X33504236Y-52525033D03*
D12*
X37122936Y-48625033D03*
X33572936Y-48625033D03*
X42122936Y-67675033D03*
X38572936Y-67675033D03*
X230322936Y-48537533D03*
X226772936Y-48537533D03*
X58622936Y-48625033D03*
X55072936Y-48625033D03*
D14*
X161007525Y-84832995D03*
X166850107Y-84011873D03*
X166641347Y-82526471D03*
X160798765Y-83347593D03*
D10*
X174972936Y-31275033D03*
X179972936Y-33475033D03*
D11*
X171622936Y-31275033D03*
X183522936Y-33475033D03*
D13*
X216372936Y-59781233D03*
X210472936Y-59781233D03*
X210472936Y-61281233D03*
X216372936Y-61281233D03*
D12*
X206522936Y-29537533D03*
X202972936Y-29537533D03*
X225622936Y-29537533D03*
X222072936Y-29537533D03*
D13*
X140172936Y-59781233D03*
X134272936Y-59781233D03*
X134272936Y-61281233D03*
X140172936Y-61281233D03*
D12*
X243722936Y-96237533D03*
X240172936Y-96237533D03*
D10*
X46385436Y-50325033D03*
X51385436Y-52525033D03*
D11*
X43035436Y-50325033D03*
X54935436Y-52525033D03*
D13*
X183035436Y-21681233D03*
X177135436Y-21681233D03*
X177135436Y-23181233D03*
X183035436Y-23181233D03*
X106835436Y-21681233D03*
X100935436Y-21681233D03*
X100935436Y-23181233D03*
X106835436Y-23181233D03*
X121122936Y-59781233D03*
X115222936Y-59781233D03*
X115222936Y-61281233D03*
X121122936Y-61281233D03*
X181897936Y-42231233D03*
X187797936Y-42231233D03*
X187797936Y-40731233D03*
X181897936Y-40731233D03*
D12*
X247022936Y-67637533D03*
X243472936Y-67637533D03*
X106622936Y-67675033D03*
X103072936Y-67675033D03*
D10*
X151160436Y-69375033D03*
X156160436Y-71575033D03*
D11*
X147810436Y-69375033D03*
X159710436Y-71575033D03*
D13*
X159222936Y-59781233D03*
X153322936Y-59781233D03*
X153322936Y-61281233D03*
X159222936Y-61281233D03*
D12*
X34822936Y-30037533D03*
X31272936Y-30037533D03*
D10*
X217835436Y-50325033D03*
X222835436Y-52525033D03*
D11*
X214485436Y-50325033D03*
X226385436Y-52525033D03*
D10*
X194022936Y-31275033D03*
X199022936Y-33475033D03*
D11*
X190672936Y-31275033D03*
X202572936Y-33475033D03*
D12*
X78122936Y-48625033D03*
X74572936Y-48625033D03*
D13*
X27116736Y-42231233D03*
X33016736Y-42231233D03*
X33016736Y-40731233D03*
X27116736Y-40731233D03*
D12*
X220822936Y-67637533D03*
X217272936Y-67637533D03*
D13*
X86647936Y-42231233D03*
X92547936Y-42231233D03*
X92547936Y-40731233D03*
X86647936Y-40731233D03*
D10*
X113060436Y-69375033D03*
X118060436Y-71575033D03*
D11*
X109710436Y-69375033D03*
X121610436Y-71575033D03*
D10*
X239266736Y-50325033D03*
X244266736Y-52525033D03*
D11*
X235916736Y-50325033D03*
X247816736Y-52525033D03*
D12*
X182722936Y-67637533D03*
X179172936Y-67637533D03*
D10*
X160091336Y-93160490D03*
X165348857Y-94643215D03*
D15*
X156773938Y-93626720D03*
X168864309Y-94149150D03*
D12*
X54122936Y-29575033D03*
X50572936Y-29575033D03*
D10*
X155922936Y-31275033D03*
X160922936Y-33475033D03*
D11*
X152572936Y-31275033D03*
X164472936Y-33475033D03*
D13*
X48547936Y-42231233D03*
X54447936Y-42231233D03*
X54447936Y-40731233D03*
X48547936Y-40731233D03*
D10*
X141635436Y-50325033D03*
X146635436Y-52525033D03*
D11*
X138285436Y-50325033D03*
X150185436Y-52525033D03*
D12*
X154122936Y-48537533D03*
X150572936Y-48537533D03*
D10*
X65435436Y-50325033D03*
X70435436Y-52525033D03*
D11*
X62085436Y-50325033D03*
X73985436Y-52525033D03*
D10*
X179735436Y-50325033D03*
X184735436Y-52525033D03*
D11*
X176385436Y-50325033D03*
X188285436Y-52525033D03*
D10*
X187149515Y-89958702D03*
X192290799Y-91804561D03*
D16*
X183807675Y-90192387D03*
X195832152Y-91556925D03*
D17*
X89618612Y-88561351D03*
X86077260Y-88313715D03*
D10*
X29716736Y-69375033D03*
X34716736Y-71575033D03*
D11*
X26366736Y-69375033D03*
X38266736Y-71575033D03*
D18*
X172205662Y-89790501D03*
X168690210Y-90284565D03*
D19*
X129722985Y-90270414D03*
X129722985Y-95270414D03*
X129722985Y-92770414D03*
D20*
X137222985Y-87170414D03*
X137222985Y-98370414D03*
D19*
X144222985Y-95270414D03*
X144222985Y-90270414D03*
D10*
X77095817Y-89248038D03*
X81930173Y-91791461D03*
D21*
X73753977Y-89014353D03*
X85471525Y-92039096D03*
D12*
X68422936Y-67675033D03*
X64872936Y-67675033D03*
D13*
X202085436Y-21681233D03*
X196185436Y-21681233D03*
X196185436Y-23181233D03*
X202085436Y-23181233D03*
D12*
X130122936Y-29575033D03*
X126572936Y-29575033D03*
D22*
X79692105Y-81312524D03*
X85577732Y-81724088D03*
X85682367Y-80227742D03*
X79796740Y-79816178D03*
D12*
X125422936Y-67637533D03*
X121872936Y-67637533D03*
D10*
X132110436Y-69375033D03*
X137110436Y-71575033D03*
D11*
X128760436Y-69375033D03*
X140660436Y-71575033D03*
D13*
X87672936Y-21681233D03*
X81772936Y-21681233D03*
X81772936Y-23181233D03*
X87672936Y-23181233D03*
D23*
X117033862Y-91734565D03*
X113518410Y-91240501D03*
D13*
X143797936Y-42231233D03*
X149697936Y-42231233D03*
X149697936Y-40731233D03*
X143797936Y-40731233D03*
D10*
X52824736Y-88425033D03*
X57824736Y-90625033D03*
D11*
X49474736Y-88425033D03*
X61374736Y-90625033D03*
D12*
X87422936Y-67675033D03*
X83872936Y-67675033D03*
X135122936Y-48625033D03*
X131572936Y-48625033D03*
X223822936Y-86737533D03*
X220272936Y-86737533D03*
D10*
X84485436Y-50325033D03*
X89485436Y-52525033D03*
D11*
X81135436Y-50325033D03*
X93035436Y-52525033D03*
D13*
X49572936Y-21681233D03*
X43672936Y-21681233D03*
X43672936Y-23181233D03*
X49572936Y-23181233D03*
D10*
X94010436Y-69375033D03*
X99010436Y-71575033D03*
D11*
X90660436Y-69375033D03*
X102560436Y-71575033D03*
D12*
X251722936Y-48537533D03*
X248172936Y-48537533D03*
D10*
X117822936Y-31275033D03*
X122822936Y-33475033D03*
D11*
X114472936Y-31275033D03*
X126372936Y-33475033D03*
D12*
X111122936Y-29575033D03*
X107572936Y-29575033D03*
D13*
X241429236Y-42231233D03*
X247329236Y-42231233D03*
X247329236Y-40731233D03*
X241429236Y-40731233D03*
D12*
X116122936Y-48625033D03*
X112572936Y-48625033D03*
X187322936Y-29575033D03*
X183772936Y-29575033D03*
D13*
X219997936Y-42231233D03*
X225897936Y-42231233D03*
X225897936Y-40731233D03*
X219997936Y-40731233D03*
D10*
X136872936Y-31275033D03*
X141872936Y-33475033D03*
D11*
X133522936Y-31275033D03*
X145422936Y-33475033D03*
D13*
X37779236Y-59781233D03*
X31879236Y-59781233D03*
X31879236Y-61281233D03*
X37779236Y-61281233D03*
D12*
X65122936Y-86725033D03*
X61572936Y-86725033D03*
D13*
X244947936Y-21681233D03*
X239047936Y-21681233D03*
X239047936Y-23181233D03*
X244947936Y-23181233D03*
D10*
X55910436Y-69375033D03*
X60910436Y-71575033D03*
D11*
X52560436Y-69375033D03*
X64460436Y-71575033D03*
D13*
X144935436Y-21681233D03*
X139035436Y-21681233D03*
X139035436Y-23181233D03*
X144935436Y-23181233D03*
X178272936Y-59781233D03*
X172372936Y-59781233D03*
X172372936Y-61281233D03*
X178272936Y-61281233D03*
D10*
X22572936Y-31275033D03*
X27572936Y-33475033D03*
D11*
X19222936Y-31275033D03*
X31122936Y-33475033D03*
D13*
X213415536Y-80331233D03*
X219315536Y-80331233D03*
X219315536Y-78831233D03*
X213415536Y-78831233D03*
D19*
X234385436Y-84606233D03*
X234385436Y-89606233D03*
X234385436Y-87106233D03*
D20*
X241885436Y-81506233D03*
X241885436Y-92706233D03*
D19*
X248885436Y-89606233D03*
X248885436Y-84606233D03*
D12*
X43575036Y-16549533D03*
X40025036Y-16549533D03*
D13*
X23197936Y-25287533D03*
X17297936Y-25287533D03*
X17297936Y-26787533D03*
X23197936Y-26787533D03*
D10*
X41622936Y-31275033D03*
X46622936Y-33475033D03*
D11*
X38272936Y-31275033D03*
X50172936Y-33475033D03*
D13*
X83022936Y-59781233D03*
X77122936Y-59781233D03*
X77122936Y-61281233D03*
X83022936Y-61281233D03*
D12*
X168122936Y-29575033D03*
X164572936Y-29575033D03*
D10*
X236885436Y-31275033D03*
X241885436Y-33475033D03*
D11*
X233535436Y-31275033D03*
X245435436Y-33475033D03*
D10*
X122585436Y-50325033D03*
X127585436Y-52525033D03*
D11*
X119235436Y-50325033D03*
X131135436Y-52525033D03*
D12*
X249422936Y-29537533D03*
X245872936Y-29537533D03*
D10*
X60672936Y-31275033D03*
X65672936Y-33475033D03*
D11*
X57322936Y-31275033D03*
X69222936Y-33475033D03*
D12*
X163722936Y-67637533D03*
X160172936Y-67637533D03*
D10*
X160685436Y-50325033D03*
X165685436Y-52525033D03*
D11*
X157335436Y-50325033D03*
X169235436Y-52525033D03*
D12*
X201822936Y-67637533D03*
X198272936Y-67637533D03*
X92122936Y-29575033D03*
X88572936Y-29575033D03*
D13*
X102072936Y-59781233D03*
X96172936Y-59781233D03*
X96172936Y-61281233D03*
X102072936Y-61281233D03*
D24*
X107443965Y-83986573D03*
X113286547Y-84807695D03*
X113495307Y-83322293D03*
X107652725Y-82501171D03*
D12*
X73122936Y-29575033D03*
X69572936Y-29575033D03*
X34222936Y-96250033D03*
X30672936Y-96250033D03*
D13*
X54874736Y-80331233D03*
X60774736Y-80331233D03*
X60774736Y-78831233D03*
X54874736Y-78831233D03*
X125885436Y-21681233D03*
X119985436Y-21681233D03*
X119985436Y-23181233D03*
X125885436Y-23181233D03*
D10*
X189260436Y-69375033D03*
X194260436Y-71575033D03*
D11*
X185910436Y-69375033D03*
X197810436Y-71575033D03*
D10*
X208310436Y-69375033D03*
X213310436Y-71575033D03*
D11*
X204960436Y-69375033D03*
X216860436Y-71575033D03*
D13*
X124747936Y-42231233D03*
X130647936Y-42231233D03*
X130647936Y-40731233D03*
X124747936Y-40731233D03*
D19*
X24835436Y-84606233D03*
X24835436Y-89606233D03*
X24835436Y-87106233D03*
D20*
X32335436Y-81506233D03*
X32335436Y-92706233D03*
D19*
X39335436Y-89606233D03*
X39335436Y-84606233D03*
D13*
X105697936Y-42231233D03*
X111597936Y-42231233D03*
X111597936Y-40731233D03*
X105697936Y-40731233D03*
X63972936Y-59781233D03*
X58072936Y-59781233D03*
X58072936Y-61281233D03*
X63972936Y-61281233D03*
X200947936Y-42231233D03*
X206847936Y-42231233D03*
X206847936Y-40731233D03*
X200947936Y-40731233D03*
D10*
X234504236Y-69375033D03*
X239504236Y-71575033D03*
D11*
X231154236Y-69375033D03*
X243054236Y-71575033D03*
D10*
X170210436Y-69375033D03*
X175210436Y-71575033D03*
D11*
X166860436Y-69375033D03*
X178760436Y-71575033D03*
D13*
X197322936Y-59781233D03*
X191422936Y-59781233D03*
X191422936Y-61281233D03*
X197322936Y-61281233D03*
D25*
X188645240Y-81685688D03*
X194530867Y-81274124D03*
X194426232Y-79777778D03*
X188540605Y-80189342D03*
D10*
X104273055Y-91765459D03*
X108918215Y-94639915D03*
D26*
X100955657Y-91299229D03*
X112433666Y-95133979D03*
D10*
X103535436Y-50325033D03*
X108535436Y-52525033D03*
D11*
X100185436Y-50325033D03*
X112085436Y-52525033D03*
D12*
X173222936Y-48537533D03*
X169672936Y-48537533D03*
X97122936Y-48625033D03*
X93572936Y-48625033D03*
D13*
X67597936Y-42231233D03*
X73497936Y-42231233D03*
X73497936Y-40731233D03*
X67597936Y-40731233D03*
D10*
X98772936Y-31275033D03*
X103772936Y-33475033D03*
D11*
X95422936Y-31275033D03*
X107322936Y-33475033D03*
D13*
X162847936Y-42231233D03*
X168747936Y-42231233D03*
X168747936Y-40731233D03*
X162847936Y-40731233D03*
D10*
X79722936Y-31275033D03*
X84722936Y-33475033D03*
D11*
X76372936Y-31275033D03*
X88272936Y-33475033D03*
D12*
X138979635Y-83820000D03*
X135429635Y-83820000D03*
X144622936Y-67637533D03*
X141072936Y-67637533D03*
D13*
X221135436Y-21681233D03*
X215235436Y-21681233D03*
X215235436Y-23181233D03*
X221135436Y-23181233D03*
D27*
X199518612Y-87313715D03*
X195977260Y-87561351D03*
D13*
X242566736Y-59781233D03*
X236666736Y-59781233D03*
X236666736Y-61281233D03*
X242566736Y-61281233D03*
D28*
X15808236Y-37684667D03*
D29*
X15808236Y-37684667D03*
D28*
X18328236Y-37684667D03*
D29*
X18328236Y-37684667D03*
D28*
X20868236Y-37684667D03*
D29*
X20868236Y-37684667D03*
D28*
X23398236Y-37684667D03*
D29*
X23398236Y-37684667D03*
D28*
X25948236Y-37684667D03*
D29*
X25948236Y-37684667D03*
D28*
X28488236Y-37684667D03*
D29*
X28488236Y-37684667D03*
D28*
X31028236Y-37684667D03*
D29*
X31028236Y-37684667D03*
D28*
X33568236Y-37684667D03*
D29*
X33568236Y-37684667D03*
D28*
X36108236Y-37684667D03*
D29*
X36108236Y-37684667D03*
D28*
X36108236Y-35144667D03*
D29*
X36108236Y-35144667D03*
D28*
X36108236Y-27524667D03*
D29*
X36108236Y-27524667D03*
D28*
X36108236Y-24984667D03*
D29*
X36108236Y-24984667D03*
D28*
X36092577Y-22444667D03*
D29*
X36092577Y-22444667D03*
D28*
X33568236Y-22444667D03*
D29*
X33568236Y-22444667D03*
D28*
X31028236Y-22444667D03*
D29*
X31028236Y-22444667D03*
D28*
X28488236Y-22444667D03*
D29*
X28488236Y-22444667D03*
D28*
X25948236Y-22444667D03*
D29*
X25948236Y-22444667D03*
D28*
X23408236Y-22444667D03*
D29*
X23408236Y-22444667D03*
D28*
X20868236Y-22444667D03*
D29*
X20868236Y-22444667D03*
D28*
X18328236Y-22444667D03*
D29*
X18328236Y-22444667D03*
D28*
X15808236Y-22444667D03*
D29*
X15808236Y-22444667D03*
D12*
X211222936Y-48537533D03*
X207672936Y-48537533D03*
D10*
X211365536Y-88425033D03*
X216365536Y-90625033D03*
D11*
X208015536Y-88425033D03*
X219915536Y-90625033D03*
D13*
X68622936Y-21681233D03*
X62722936Y-21681233D03*
X62722936Y-23181233D03*
X68622936Y-23181233D03*
D12*
X192222936Y-48537533D03*
X188672936Y-48537533D03*
D30*
X111122936Y-36268633D03*
X146473999Y-27136557D03*
X130121336Y-36268633D03*
X240523275Y-31195033D03*
X164571862Y-26661495D03*
X224654901Y-32875033D03*
X206428445Y-24727979D03*
X53705036Y-36371433D03*
X92122936Y-36268633D03*
X183780599Y-24724584D03*
X73747936Y-35658181D03*
X226848938Y-45711294D03*
X174351199Y-54634907D03*
X241774753Y-53100669D03*
X116125072Y-54637103D03*
X197067436Y-54632943D03*
X210995790Y-45737533D03*
X96786644Y-54637633D03*
X179167474Y-62748266D03*
X87422556Y-62759642D03*
X125423677Y-62759056D03*
X143273514Y-62757735D03*
X68433396Y-62765268D03*
X217280185Y-62755122D03*
X43743413Y-46200913D03*
X243477315Y-62761285D03*
X160173693Y-62750197D03*
X198282435Y-62750330D03*
X24869115Y-31034175D03*
X243066941Y-76131845D03*
X247080160Y-76131845D03*
X51099751Y-74215565D03*
X16408236Y-29663347D03*
X241711117Y-38254503D03*
X163201553Y-38301656D03*
X125103401Y-38299309D03*
X19716336Y-36079833D03*
X109244995Y-39081233D03*
X227439646Y-38254955D03*
X182247936Y-38295366D03*
X46668836Y-44478833D03*
X248316036Y-23140233D03*
X40571036Y-61286998D03*
X244820377Y-64550781D03*
X44024966Y-25977204D03*
X31602836Y-25992233D03*
X211102136Y-21699604D03*
X67208932Y-94986016D03*
X76658840Y-54890116D03*
X76658840Y-57647128D03*
X15470180Y-23715571D03*
X133289836Y-39137533D03*
X155187006Y-42253349D03*
X172304110Y-39137533D03*
X44076224Y-19594038D03*
X170992455Y-84060213D03*
X197904136Y-81313137D03*
X248979036Y-44937533D03*
X157397145Y-80552359D03*
X120815149Y-80562505D03*
X138288437Y-55237633D03*
X145448385Y-64896607D03*
X44129436Y-60093933D03*
X165929346Y-64788139D03*
X157343166Y-56736881D03*
X163447936Y-69443477D03*
X153423236Y-37213333D03*
X49474736Y-64769933D03*
X42821836Y-37213333D03*
X172904110Y-37201355D03*
X70774836Y-61196533D03*
X185910436Y-77100333D03*
X73374712Y-77079333D03*
X153442280Y-77095175D03*
X62047936Y-43683166D03*
X185910436Y-61885433D03*
X181833545Y-49550453D03*
X57671036Y-56512233D03*
X71620555Y-73128117D03*
X36171700Y-39636733D03*
X57322936Y-38450333D03*
X91149836Y-73007033D03*
X206803474Y-83292729D03*
X100955636Y-76284333D03*
X81763236Y-54890116D03*
X190672936Y-37093169D03*
X194938836Y-42240133D03*
X90660436Y-61968833D03*
X195435436Y-52785733D03*
X74475392Y-39184782D03*
X204242236Y-61387533D03*
X204247845Y-76284333D03*
X95422936Y-38448433D03*
X100187036Y-56326733D03*
X100046036Y-46870933D03*
X209722936Y-37931841D03*
X109216736Y-61897533D03*
X214485436Y-55560133D03*
X230533175Y-61981133D03*
X128760436Y-61097133D03*
X144222936Y-74097333D03*
X119235436Y-55859533D03*
X114472936Y-37848433D03*
X21168935Y-97648079D03*
D31*
X245872936Y-30770467D02*
X245872936Y-29537533D01*
X164572936Y-29575033D02*
X164572936Y-26662569D01*
X130122936Y-29575033D02*
X130122936Y-36268633D01*
X54122936Y-29575033D02*
X53705036Y-29575033D01*
X202972936Y-25152484D02*
X202972936Y-29537533D01*
X92122936Y-29575033D02*
X92122936Y-36268633D01*
X164572936Y-26662569D02*
X164571862Y-26661495D01*
X111122936Y-36268633D02*
X111122936Y-29575033D01*
X222072936Y-29537533D02*
X224224619Y-29537533D01*
X92122936Y-29575033D02*
X92122936Y-25065996D01*
X183772936Y-24732247D02*
X183772936Y-29575033D01*
X73122936Y-25066281D02*
X73122936Y-29575033D01*
X224224619Y-29537533D02*
X224224632Y-29537520D01*
X224648429Y-29961285D02*
X224648429Y-32868561D01*
X224648429Y-32868561D02*
X224654901Y-32875033D01*
X146473999Y-27136557D02*
X146002539Y-27136576D01*
X34822936Y-30037533D02*
X34822936Y-37260908D01*
X145572936Y-29575033D02*
X145572936Y-27566197D01*
X35246661Y-37684633D02*
X36108236Y-37684633D01*
X130122936Y-36268633D02*
X130121336Y-36268633D01*
X183780599Y-24724584D02*
X183772936Y-24732247D01*
X53705036Y-29575033D02*
X53705036Y-36371433D01*
X206428445Y-24727979D02*
X203397441Y-24727979D01*
X91699519Y-24642579D02*
X73546638Y-24642579D01*
X240523275Y-31195033D02*
X245448370Y-31195033D01*
X145572936Y-27566197D02*
G75*
G02*
X146002539Y-27136536I429664J-3D01*
G01*
X73546638Y-24642579D02*
G75*
G03*
X73122879Y-25066281I-38J-423721D01*
G01*
X224224632Y-29537520D02*
G75*
G02*
X224648480Y-29961285I68J-423780D01*
G01*
X92122936Y-25065996D02*
G75*
G03*
X91699519Y-24642564I-423436J-4D01*
G01*
X34822936Y-37260908D02*
G75*
G03*
X35246661Y-37684664I423764J8D01*
G01*
X203397441Y-24727979D02*
G75*
G03*
X202972879Y-25152484I-41J-424521D01*
G01*
X245448370Y-31195033D02*
G75*
G03*
X245872933Y-30770467I30J424533D01*
G01*
X31272936Y-33475033D02*
X31122936Y-33475033D01*
X31272936Y-30037533D02*
X31272936Y-33475033D01*
X78514299Y-55490116D02*
X96363427Y-55490116D01*
X135519297Y-56461537D02*
X134728246Y-56461537D01*
X37122936Y-48625033D02*
X37160136Y-48625033D01*
X188672936Y-49813399D02*
X188672936Y-48537533D01*
X174347936Y-46461498D02*
X174347936Y-54631644D01*
X116123736Y-54635767D02*
X116125072Y-54637103D01*
X96786644Y-54637633D02*
X96786636Y-54637625D01*
X210995790Y-45737533D02*
X208096554Y-45737533D01*
X78514299Y-55490116D02*
X77731554Y-55490116D01*
X182971493Y-50237533D02*
X188248802Y-50237533D01*
X116123736Y-56037428D02*
X116123736Y-54638439D01*
X174351199Y-54634907D02*
X182123389Y-54634907D01*
X182547936Y-54210360D02*
X182547936Y-50661090D01*
X116122936Y-54376933D02*
X116123736Y-54376933D01*
X73746036Y-35662768D02*
X73747936Y-35658181D01*
X37160136Y-48625033D02*
X37160136Y-35568014D01*
X116123736Y-54376933D02*
X116123736Y-54635767D01*
X241766736Y-50561004D02*
X241766736Y-53092652D01*
X197067436Y-54632943D02*
X200861880Y-54632943D01*
X58622936Y-55066610D02*
X58622936Y-48625033D01*
X170096396Y-46037533D02*
X173923971Y-46037533D01*
X116123736Y-54638439D02*
X116125072Y-54637103D01*
X201709742Y-50037533D02*
X207249915Y-50037533D01*
X174347936Y-54631644D02*
X174351199Y-54634907D01*
X59046442Y-55490116D02*
X77731554Y-55490116D01*
X247749232Y-50137533D02*
X242190207Y-50137533D01*
X241766736Y-53092652D02*
X241774753Y-53100669D01*
X144135436Y-50560980D02*
X144135436Y-56037664D01*
X36736755Y-35144633D02*
X36108236Y-35144633D01*
X201285436Y-54209387D02*
X201285436Y-50461839D01*
X135519301Y-56461533D02*
X135519297Y-56461537D01*
X77699398Y-40019333D02*
X74169216Y-40019333D01*
X226848938Y-45711294D02*
X226848938Y-48461531D01*
X96786636Y-48625033D02*
X97122936Y-48625033D01*
X96786644Y-54637633D02*
X96786644Y-55066899D01*
X150572936Y-48537533D02*
X150572936Y-49713780D01*
X134728242Y-56461533D02*
X116547841Y-56461533D01*
X134728246Y-56461537D02*
X134728242Y-56461533D01*
X116122936Y-54634967D02*
X116125072Y-54637103D01*
X248172936Y-48537533D02*
X248172936Y-49713829D01*
X73746036Y-39596153D02*
X73746036Y-35662768D01*
X143711567Y-56461533D02*
X135519301Y-56461533D01*
X116123736Y-56037428D02*
X116123736Y-54376933D01*
X207672936Y-49614512D02*
X207672936Y-48537533D01*
X78122936Y-48625033D02*
X78122936Y-55098734D01*
X169672936Y-48537533D02*
X169672936Y-46460993D01*
X116122936Y-48625033D02*
X116122936Y-54634967D01*
X96786644Y-54637633D02*
X96785256Y-54639021D01*
X150149183Y-50137533D02*
X144558883Y-50137533D01*
X174351199Y-54634907D02*
X174493336Y-54492770D01*
X96786636Y-54637625D02*
X96786636Y-48625033D01*
X135122936Y-48625033D02*
X135122936Y-56065183D01*
X78514299Y-55490116D02*
X78514284Y-55490101D01*
X207672936Y-48537533D02*
X207672936Y-46161151D01*
X135122936Y-56065183D02*
X135122936Y-56066839D01*
X78122936Y-48625033D02*
X78122936Y-40442871D01*
X96786636Y-54576933D02*
X96786636Y-54637625D01*
X37160136Y-35568014D02*
G75*
G03*
X36736755Y-35144664I-423336J14D01*
G01*
X182547936Y-50661090D02*
G75*
G02*
X182971493Y-50237536I423564J-10D01*
G01*
X242190207Y-50137533D02*
G75*
G03*
X241766733Y-50561004I-7J-423467D01*
G01*
X135122936Y-56066839D02*
G75*
G02*
X134728242Y-56461536I-394736J39D01*
G01*
X200861880Y-54632943D02*
G75*
G03*
X201285443Y-54209387I20J423543D01*
G01*
X78122936Y-40442871D02*
G75*
G03*
X77699398Y-40019364I-423536J-29D01*
G01*
X173923971Y-46037533D02*
G75*
G02*
X174347967Y-46461498I29J-423967D01*
G01*
X144558883Y-50137533D02*
G75*
G03*
X144135433Y-50560980I17J-423467D01*
G01*
X201285436Y-50461839D02*
G75*
G02*
X201709742Y-50037536I424264J39D01*
G01*
X226848938Y-48461531D02*
G75*
G02*
X226772936Y-48537538I-76038J31D01*
G01*
X96363427Y-55490116D02*
G75*
G03*
X96786616Y-55066899I-27J423216D01*
G01*
X208096554Y-45737533D02*
G75*
G03*
X207672933Y-46161151I46J-423667D01*
G01*
X74169216Y-40019333D02*
G75*
G02*
X73746067Y-39596153I-16J423133D01*
G01*
X248172936Y-49713829D02*
G75*
G02*
X247749232Y-50137536I-423736J29D01*
G01*
X78514284Y-55490101D02*
G75*
G02*
X78122899Y-55098734I16J391401D01*
G01*
X207249915Y-50037533D02*
G75*
G03*
X207672933Y-49614512I-15J423033D01*
G01*
X188248802Y-50237533D02*
G75*
G03*
X188672933Y-49813399I-2J424133D01*
G01*
X78122936Y-55098734D02*
G75*
G02*
X77731554Y-55490036I-391336J34D01*
G01*
X116547841Y-56461533D02*
G75*
G02*
X116123667Y-56037428I-41J424133D01*
G01*
X169672936Y-46460993D02*
G75*
G02*
X170096396Y-46037536I423464J-7D01*
G01*
X135519297Y-56461537D02*
G75*
G02*
X135122963Y-56065183I3J396337D01*
G01*
X150572936Y-49713780D02*
G75*
G02*
X150149183Y-50137536I-423736J-20D01*
G01*
X59046442Y-55490116D02*
G75*
G02*
X58622884Y-55066610I-42J423516D01*
G01*
X144135436Y-56037664D02*
G75*
G02*
X143711567Y-56461536I-423836J-36D01*
G01*
X182123389Y-54634907D02*
G75*
G03*
X182547907Y-54210360I11J424507D01*
G01*
X33572936Y-48625033D02*
X33572936Y-52525033D01*
X33572936Y-52525033D02*
X33504236Y-52525033D01*
X68433396Y-62765268D02*
X42546475Y-62765268D01*
X143275574Y-62759517D02*
X143275574Y-67214630D01*
X143284894Y-62750197D02*
X160173693Y-62750197D01*
X143280295Y-62754796D02*
X143284894Y-62750197D01*
X179172936Y-62753728D02*
X179167474Y-62748266D01*
X243472936Y-62765664D02*
X243477315Y-62761285D01*
X198272936Y-67637533D02*
X198272936Y-62584694D01*
X91413357Y-61790669D02*
X91413357Y-62331332D01*
X179172936Y-67637533D02*
X179172936Y-62753728D01*
X243472936Y-67637533D02*
X243472936Y-62765664D01*
X68422936Y-67675033D02*
X68422936Y-63008522D01*
X143698477Y-67637533D02*
X144622936Y-67637533D01*
X160163436Y-62760454D02*
X160163436Y-67628033D01*
X217272936Y-67637533D02*
X217272936Y-62762371D01*
X217272936Y-62756463D02*
X217271659Y-62755186D01*
X43729026Y-46186526D02*
X43729026Y-27948223D01*
X43743413Y-46200913D02*
X43729026Y-46186526D01*
X198272936Y-62584694D02*
X198272659Y-62584417D01*
X106622936Y-63178629D02*
X106622936Y-67675033D01*
X87422936Y-67675033D02*
X87422936Y-61789964D01*
X87846067Y-61366833D02*
X90989521Y-61366833D01*
X91837280Y-62755255D02*
X106199562Y-62755255D01*
X143280295Y-62754796D02*
X143275574Y-62759517D01*
X42122936Y-63188807D02*
X42122936Y-67675033D01*
X217272936Y-62762371D02*
X217280185Y-62755122D01*
X160163436Y-67628033D02*
X160172936Y-67637533D01*
X160173693Y-62750197D02*
X160163436Y-62760454D01*
X125422936Y-62575033D02*
X125422936Y-67637533D01*
X43305436Y-27524633D02*
X36108236Y-27524633D01*
X106199562Y-62755255D02*
G75*
G02*
X106622945Y-63178629I38J-423345D01*
G01*
X143275574Y-67214630D02*
G75*
G03*
X143698477Y-67637526I422926J30D01*
G01*
X87422936Y-61789964D02*
G75*
G02*
X87846067Y-61366836I423164J-36D01*
G01*
X43729026Y-46215300D02*
G75*
G02*
X43743413Y-46200926I14374J0D01*
G01*
X91413357Y-62331332D02*
G75*
G03*
X91837280Y-62755243I423943J32D01*
G01*
X42546475Y-62765268D02*
G75*
G03*
X42122968Y-63188807I25J-423532D01*
G01*
X43729026Y-27948223D02*
G75*
G03*
X43305436Y-27524574I-423626J23D01*
G01*
X90989521Y-61366833D02*
G75*
G02*
X91413367Y-61790669I-21J-423867D01*
G01*
X38572936Y-71575033D02*
X38266736Y-71575033D01*
X38572936Y-67675033D02*
X38572936Y-71575033D01*
X213865536Y-91013319D02*
X213865536Y-88633813D01*
X24869115Y-31034175D02*
X24869115Y-29604953D01*
X138979635Y-83820000D02*
X138979635Y-82907378D01*
X36876674Y-86394907D02*
X36876680Y-86394901D01*
X189347934Y-87970567D02*
X189347936Y-87970565D01*
X189347934Y-89365740D02*
X189347936Y-89365742D01*
X220272936Y-85461415D02*
X220272936Y-86737533D01*
X27375906Y-86394901D02*
X36084941Y-86394901D01*
X36876680Y-86394901D02*
X41971602Y-86394901D01*
X65122936Y-86725033D02*
X65122936Y-93944273D01*
X89618636Y-95904189D02*
X89618637Y-95904190D01*
X89221296Y-96301533D02*
X65546402Y-96301533D01*
X168690236Y-87970403D02*
X168690236Y-90284533D01*
X141565715Y-84243977D02*
X141565715Y-92835502D01*
X17699942Y-76463433D02*
X26528101Y-76463433D01*
X34222936Y-96250033D02*
X36061535Y-96250033D01*
X188924134Y-87546763D02*
X169113876Y-87546763D01*
X195977260Y-87561351D02*
X195977260Y-86361042D01*
X125465880Y-97464965D02*
X131560775Y-97464965D01*
X196400769Y-85937533D02*
X204923706Y-85937533D01*
X42819049Y-94336833D02*
X64722852Y-94336833D01*
X89618636Y-88561333D02*
X89618636Y-95904189D01*
X117033862Y-91734565D02*
X124618702Y-91734565D01*
X125042186Y-92158049D02*
X125042186Y-97041271D01*
X231312736Y-95813679D02*
X231312736Y-85461534D01*
X65122936Y-93944273D02*
X65122936Y-94736917D01*
X220272936Y-87785903D02*
X220272936Y-86737533D01*
X36876674Y-86394907D02*
X36084947Y-86394907D01*
X89618636Y-96698563D02*
X89618636Y-98225716D01*
X36084947Y-86394907D02*
X36084941Y-86394901D01*
X195977236Y-87561375D02*
X195977260Y-87561351D01*
X141989779Y-93259566D02*
X146250559Y-93259566D01*
X65122936Y-93944273D02*
X65122943Y-93944280D01*
X205771224Y-91437533D02*
X213441322Y-91437533D01*
X189347934Y-88586303D02*
X189347934Y-89365740D01*
X138979635Y-83820000D02*
X141141773Y-83820029D01*
X131984226Y-97041514D02*
X131984226Y-82907158D01*
X189347936Y-97889259D02*
X189347936Y-89365742D01*
X132408171Y-82483213D02*
X138555470Y-82483213D01*
X195977236Y-88555088D02*
X195977236Y-87561375D01*
X189739861Y-88978233D02*
X195554091Y-88978233D01*
X205347936Y-86361763D02*
X205347936Y-91014245D01*
X26951950Y-76887282D02*
X26951950Y-85970945D01*
X230888735Y-85037533D02*
X220696818Y-85037533D01*
X147098494Y-98314333D02*
X188922862Y-98314333D01*
X17276336Y-29605530D02*
X17276336Y-76039827D01*
X42395436Y-86818735D02*
X42395436Y-93913220D01*
X189739861Y-88978233D02*
X189735445Y-88978233D01*
X146674415Y-93683422D02*
X146674415Y-97890254D01*
X189347934Y-88586303D02*
X189347934Y-87970567D01*
X89618636Y-95904189D02*
X89618636Y-96698563D01*
X117033862Y-91734565D02*
X117033862Y-98225677D01*
X214289759Y-88209590D02*
X219849249Y-88209590D01*
X24445595Y-29181433D02*
X17700433Y-29181433D01*
X240172936Y-96237533D02*
X231736590Y-96237533D01*
X90042453Y-98649533D02*
X116610006Y-98649533D01*
X65122936Y-95878067D02*
X65122936Y-94736917D01*
X36485262Y-95826306D02*
X36485262Y-86795222D01*
X42395436Y-93913220D02*
G75*
G03*
X42819049Y-94336764I423564J20D01*
G01*
X36876674Y-86394907D02*
G75*
G03*
X36485307Y-86786330I26J-391393D01*
G01*
X195554091Y-88978233D02*
G75*
G03*
X195977233Y-88555088I9J423133D01*
G01*
X117033862Y-98225677D02*
G75*
G02*
X116610006Y-98649562I-423862J-23D01*
G01*
X131984226Y-82907158D02*
G75*
G02*
X132408171Y-82483226I423974J-42D01*
G01*
X36485262Y-86795222D02*
G75*
G03*
X36084941Y-86394838I-400362J22D01*
G01*
X89618636Y-98225716D02*
G75*
G03*
X90042453Y-98649564I423864J16D01*
G01*
X141565715Y-92835502D02*
G75*
G03*
X141989779Y-93259585I424085J2D01*
G01*
X189347936Y-87970565D02*
G75*
G03*
X188924134Y-87546764I-423836J-35D01*
G01*
X65546402Y-96301533D02*
G75*
G02*
X65122967Y-95878067I-2J423433D01*
G01*
X195977260Y-86361042D02*
G75*
G02*
X196400769Y-85937460I423540J42D01*
G01*
X204923706Y-85937533D02*
G75*
G02*
X205347967Y-86361763I-6J-424267D01*
G01*
X146250559Y-93259566D02*
G75*
G02*
X146674434Y-93683422I41J-423834D01*
G01*
X141141773Y-83820029D02*
G75*
G02*
X141565771Y-84243977I27J-423971D01*
G01*
X24869115Y-29604953D02*
G75*
G03*
X24445595Y-29181485I-423515J-47D01*
G01*
X89221606Y-96301533D02*
G75*
G02*
X89618667Y-96698563I-6J-397067D01*
G01*
X131560775Y-97464965D02*
G75*
G03*
X131984265Y-97041514I25J423465D01*
G01*
X26951950Y-85970945D02*
G75*
G03*
X27375906Y-86394850I423950J45D01*
G01*
X146674415Y-97890254D02*
G75*
G03*
X147098494Y-98314385I424085J-46D01*
G01*
X189739861Y-88978233D02*
G75*
G02*
X189347967Y-88586303I39J391933D01*
G01*
X189735445Y-88978233D02*
G75*
G03*
X189347933Y-89365742I-45J-387467D01*
G01*
X205347936Y-91014245D02*
G75*
G03*
X205771224Y-91437464I423264J45D01*
G01*
X17700433Y-29181433D02*
G75*
G03*
X17276333Y-29605530I-33J-424067D01*
G01*
X219849249Y-88209590D02*
G75*
G03*
X220272890Y-87785903I-49J423690D01*
G01*
X231312736Y-85461534D02*
G75*
G03*
X230888735Y-85037464I-424036J34D01*
G01*
X188922862Y-98314333D02*
G75*
G03*
X189347933Y-97889259I38J425033D01*
G01*
X36061535Y-96250033D02*
G75*
G03*
X36485233Y-95826306I-35J423733D01*
G01*
X220696818Y-85037533D02*
G75*
G03*
X220272933Y-85461415I-18J-423867D01*
G01*
X213441322Y-91437533D02*
G75*
G03*
X213865533Y-91013319I-22J424233D01*
G01*
X169113876Y-87546763D02*
G75*
G03*
X168690263Y-87970403I24J-423637D01*
G01*
X231736590Y-96237533D02*
G75*
G02*
X231312767Y-95813679I10J423833D01*
G01*
X17276336Y-76039827D02*
G75*
G03*
X17699942Y-76463364I423564J27D01*
G01*
X213865536Y-88633813D02*
G75*
G02*
X214289759Y-88209536I424264J13D01*
G01*
X138555470Y-82483213D02*
G75*
G02*
X138979687Y-82907378I30J-424187D01*
G01*
X65122943Y-93944280D02*
G75*
G02*
X64730402Y-94336843I-392543J-20D01*
G01*
X124618702Y-91734565D02*
G75*
G02*
X125042235Y-92158049I-2J-423535D01*
G01*
X26528101Y-76463433D02*
G75*
G02*
X26951967Y-76887282I-1J-423867D01*
G01*
X41971602Y-86394901D02*
G75*
G02*
X42395399Y-86818735I-2J-423799D01*
G01*
X64722852Y-94336833D02*
G75*
G02*
X65122967Y-94736917I48J-400067D01*
G01*
X89618637Y-95904190D02*
G75*
G02*
X89221296Y-96301537I-397337J-10D01*
G01*
X125042186Y-97041271D02*
G75*
G03*
X125465880Y-97465014I423714J-29D01*
G01*
X30672936Y-96250033D02*
X30672936Y-97979325D01*
X31096389Y-98402778D02*
X38912096Y-98402778D01*
X39335436Y-97979438D02*
X39335436Y-89606233D01*
X38912096Y-98402778D02*
G75*
G03*
X39335478Y-97979438I4J423378D01*
G01*
X30672936Y-97979325D02*
G75*
G03*
X31096389Y-98402764I423464J25D01*
G01*
X50572936Y-29575033D02*
X50572936Y-33475033D01*
X50572936Y-33475033D02*
X50172936Y-33475033D01*
X55072936Y-48625033D02*
X55072936Y-52525033D01*
X55072936Y-52525033D02*
X54935436Y-52525033D01*
X64872936Y-67675033D02*
X64872936Y-71575033D01*
X64872936Y-71575033D02*
X64460436Y-71575033D01*
X61572936Y-90625033D02*
X61374736Y-90625033D01*
X61572936Y-86725033D02*
X61572936Y-90625033D01*
X69572936Y-29575033D02*
X69572936Y-33475033D01*
X69572936Y-33475033D02*
X69222936Y-33475033D01*
X74572936Y-48625033D02*
X74572936Y-52525033D01*
X74572936Y-52525033D02*
X73985436Y-52525033D01*
X83872936Y-71575033D02*
X83510436Y-71575033D01*
X83872936Y-67675033D02*
X83872936Y-71575033D01*
X85471536Y-92039133D02*
X86077236Y-92039133D01*
X86077236Y-92039133D02*
X86077236Y-88313733D01*
X88572936Y-29575033D02*
X88572936Y-33475033D01*
X88572936Y-33475033D02*
X88272936Y-33475033D01*
X93572936Y-52525033D02*
X93035436Y-52525033D01*
X93572936Y-48625033D02*
X93572936Y-52525033D01*
X103072936Y-71575033D02*
X102560436Y-71575033D01*
X103072936Y-67675033D02*
X103072936Y-71575033D01*
X113518436Y-95133933D02*
X113518436Y-91240533D01*
X112433636Y-95133933D02*
X113518436Y-95133933D01*
X107572936Y-33475033D02*
X107322936Y-33475033D01*
X107572936Y-29575033D02*
X107572936Y-33475033D01*
X112572936Y-52525033D02*
X112085436Y-52525033D01*
X112572936Y-48625033D02*
X112572936Y-52525033D01*
X121872936Y-71575033D02*
X121610436Y-71575033D01*
X121872936Y-67637533D02*
X121872936Y-71575033D01*
X126572936Y-33475033D02*
X126372936Y-33475033D01*
X126572936Y-29575033D02*
X126572936Y-33475033D01*
X131572936Y-48625033D02*
X131572936Y-52525033D01*
X131572936Y-52525033D02*
X131135436Y-52525033D01*
X141072936Y-67637533D02*
X141072936Y-71575033D01*
X141072936Y-71575033D02*
X140660436Y-71575033D01*
X144219520Y-95763662D02*
X144222985Y-95760197D01*
X135429635Y-83820000D02*
X133990757Y-83819973D01*
X144222985Y-95270414D02*
X133990522Y-95270414D01*
X133567047Y-94846939D02*
X133567047Y-84243675D01*
X133567047Y-84243675D02*
G75*
G02*
X133990757Y-83820047I423653J-25D01*
G01*
X133990522Y-95270414D02*
G75*
G02*
X133566986Y-94846939I-22J423514D01*
G01*
X149122936Y-33051240D02*
X149122936Y-29575033D01*
X145422936Y-33475033D02*
X148699143Y-33475033D01*
X148699143Y-33475033D02*
G75*
G03*
X149122933Y-33051240I-43J423833D01*
G01*
X153699442Y-52525033D02*
X150185436Y-52525033D01*
X154122936Y-48537533D02*
X154122936Y-52101539D01*
X154122936Y-52101539D02*
G75*
G02*
X153699442Y-52525036I-423536J39D01*
G01*
X161923651Y-71575033D02*
X159710436Y-71575033D01*
X163722936Y-67637533D02*
X162771162Y-67637533D01*
X162347936Y-68060759D02*
X162347936Y-71150748D01*
X162347936Y-71150748D02*
G75*
G02*
X161923651Y-71574936I-424236J48D01*
G01*
X162771162Y-67637533D02*
G75*
G03*
X162347933Y-68060759I38J-423267D01*
G01*
X164472936Y-33475033D02*
X167699737Y-33475033D01*
X168122936Y-33051834D02*
X168122936Y-29575033D01*
X167699737Y-33475033D02*
G75*
G03*
X168122933Y-33051834I-37J423233D01*
G01*
X173222936Y-52102804D02*
X173222936Y-48537533D01*
X169235436Y-52525033D02*
X172800707Y-52525033D01*
X172800707Y-52525033D02*
G75*
G03*
X173222933Y-52102804I-7J422233D01*
G01*
X178760436Y-71575033D02*
X182299535Y-71575033D01*
X182722936Y-71151632D02*
X182722936Y-67637533D01*
X182299535Y-71575033D02*
G75*
G03*
X182722933Y-71151632I-35J423433D01*
G01*
X172205636Y-89790533D02*
X172205636Y-93724394D01*
X171780897Y-94149133D02*
X168864336Y-94149133D01*
X172205636Y-93724394D02*
G75*
G02*
X171780897Y-94149136I-424736J-6D01*
G01*
X187322936Y-33051691D02*
X187322936Y-29575033D01*
X183522936Y-33475033D02*
X186899594Y-33475033D01*
X186899594Y-33475033D02*
G75*
G03*
X187322933Y-33051691I6J423333D01*
G01*
X192222936Y-48537533D02*
X192222936Y-52101812D01*
X191799715Y-52525033D02*
X188285436Y-52525033D01*
X192222936Y-52101812D02*
G75*
G02*
X191799715Y-52525036I-423236J12D01*
G01*
X201822936Y-71151336D02*
X201822936Y-67637533D01*
X197810436Y-71575033D02*
X201399239Y-71575033D01*
X201399239Y-71575033D02*
G75*
G03*
X201822933Y-71151336I-39J423733D01*
G01*
X199518636Y-91133662D02*
X199518636Y-87313733D01*
X195832136Y-91556933D02*
X199095365Y-91556933D01*
X199095365Y-91556933D02*
G75*
G03*
X199518633Y-91133662I35J423233D01*
G01*
X202572936Y-33475033D02*
X206099135Y-33475033D01*
X206522936Y-33051232D02*
X206522936Y-29537533D01*
X206099135Y-33475033D02*
G75*
G03*
X206522933Y-33051232I-35J423833D01*
G01*
X207335436Y-52525033D02*
X210799040Y-52525033D01*
X211222936Y-52101137D02*
X211222936Y-48537533D01*
X210799040Y-52525033D02*
G75*
G03*
X211222933Y-52101137I-40J423933D01*
G01*
X216860436Y-71575033D02*
X220398682Y-71575033D01*
X220822936Y-71150779D02*
X220822936Y-67637533D01*
X220398682Y-71575033D02*
G75*
G03*
X220822933Y-71150779I18J424233D01*
G01*
X223822936Y-90201686D02*
X223822936Y-86737533D01*
X219915536Y-90625033D02*
X223399589Y-90625033D01*
X223399589Y-90625033D02*
G75*
G03*
X223822933Y-90201686I11J423333D01*
G01*
X225199976Y-33475033D02*
X221622936Y-33475033D01*
X225622936Y-29537533D02*
X225622936Y-33052073D01*
X225622936Y-33052073D02*
G75*
G02*
X225199976Y-33475036I-422936J-27D01*
G01*
X226385436Y-52525033D02*
X229899150Y-52525033D01*
X230322936Y-52101247D02*
X230322936Y-48537533D01*
X229899150Y-52525033D02*
G75*
G03*
X230323033Y-52101247I50J423833D01*
G01*
X247080160Y-76131845D02*
X247080160Y-67694757D01*
X243066941Y-76131845D02*
X243054236Y-76119140D01*
X243054236Y-76119140D02*
X243054236Y-71575033D01*
X247080160Y-67694757D02*
G75*
G03*
X247022936Y-67637540I-57260J-43D01*
G01*
X249422936Y-33050817D02*
X249422936Y-29537533D01*
X245435436Y-33475033D02*
X248998720Y-33475033D01*
X248998720Y-33475033D02*
G75*
G03*
X249422933Y-33050817I-20J424233D01*
G01*
X251722936Y-48537533D02*
X251722936Y-52101355D01*
X251299258Y-52525033D02*
X247816736Y-52525033D01*
X251722936Y-52101355D02*
G75*
G02*
X251299258Y-52525036I-423636J-45D01*
G01*
X248885436Y-95813497D02*
X248885436Y-89606233D01*
X243722936Y-96237533D02*
X248461400Y-96237533D01*
X248461400Y-96237533D02*
G75*
G03*
X248885433Y-95813497I0J424033D01*
G01*
D32*
X33609784Y-26281721D02*
X41205689Y-26281721D01*
X244820377Y-64550781D02*
X244820377Y-61843895D01*
X241711117Y-38254503D02*
X241779236Y-38322622D01*
X92391691Y-39153143D02*
X87560661Y-39153143D01*
X153660436Y-69818685D02*
X153660436Y-70964291D01*
X102514830Y-40170798D02*
X102514830Y-39714796D01*
X68509732Y-39158733D02*
X71180195Y-39158733D01*
X158422936Y-37452404D02*
X158422936Y-31587961D01*
X182247936Y-38295366D02*
X182247936Y-40731233D01*
X163197936Y-38305273D02*
X163197936Y-40731233D01*
X101953177Y-39153143D02*
X93962116Y-39153143D01*
X19716336Y-36079833D02*
X19716336Y-40168375D01*
X80145936Y-79840633D02*
X80145936Y-75006456D01*
X177922936Y-61281233D02*
X183212582Y-61281233D01*
X52547936Y-38368836D02*
X52547936Y-23743260D01*
X49460477Y-39158733D02*
X49460471Y-39158727D01*
X164894336Y-74670308D02*
X164894336Y-66416145D01*
X244820377Y-64550781D02*
X244820377Y-68563394D01*
X52547936Y-38368836D02*
X52547936Y-38372214D01*
X108461514Y-74215565D02*
X108461511Y-74215568D01*
X164894333Y-74670311D02*
X164894333Y-76237530D01*
X86596241Y-74215578D02*
X85041953Y-74215578D01*
X71174614Y-23181233D02*
X68272936Y-23181233D01*
X107999319Y-82549882D02*
X105914720Y-82549882D01*
X164894333Y-74670311D02*
X164894336Y-74670308D01*
X183774836Y-74672755D02*
X183774841Y-74672760D01*
X157691245Y-38301656D02*
X150950791Y-38301656D01*
X227437136Y-38252445D02*
X227437136Y-23744196D01*
X227439646Y-38254955D02*
X227437136Y-38252445D01*
X63622936Y-61281233D02*
X69042242Y-61281233D01*
X92391699Y-39153151D02*
X92391691Y-39153143D01*
X206792787Y-38827696D02*
X201949573Y-38827696D01*
X222687736Y-73432128D02*
X222687736Y-71849657D01*
X165884281Y-23181233D02*
X163635436Y-23181233D01*
X201735436Y-23181233D02*
X207012952Y-23181233D01*
X109248936Y-39077292D02*
X109248936Y-23744525D01*
X128170719Y-38299309D02*
X125103401Y-38299309D01*
X202966736Y-61843692D02*
X202966736Y-76500580D01*
X158872936Y-61281233D02*
X160662476Y-61281233D01*
X236441533Y-72637533D02*
X223482331Y-72637533D01*
X216022936Y-61281233D02*
X222124521Y-61281233D01*
X80936352Y-74215565D02*
X80936338Y-74215551D01*
X215520749Y-38827696D02*
X208359080Y-38827696D01*
X220347936Y-40731233D02*
X216714300Y-40731233D01*
X237004236Y-69686793D02*
X237004236Y-72074830D01*
X93962108Y-39153151D02*
X92391699Y-39153151D01*
X201297936Y-40731233D02*
X199117298Y-40731233D01*
X203779309Y-77287610D02*
X203779317Y-77287602D01*
X16969637Y-28369646D02*
X22284152Y-28369646D01*
X202966736Y-76500580D02*
X202966736Y-76475021D01*
X109244995Y-39081233D02*
X106609359Y-39081233D01*
X201297936Y-39479333D02*
X201297936Y-40731233D01*
X163201553Y-38301656D02*
X163197936Y-38305273D01*
X55224736Y-75003683D02*
X55224736Y-75003074D01*
X160660996Y-69255733D02*
X154223388Y-69255733D01*
X222687736Y-73432128D02*
X222687736Y-75610793D01*
X56012917Y-74215565D02*
X54437227Y-74215565D01*
X244597936Y-23140233D02*
X244597936Y-23181233D01*
X53337882Y-39158733D02*
X53337874Y-39158741D01*
X162017136Y-65852933D02*
X162010989Y-65852933D01*
X188889736Y-80164933D02*
X188889736Y-77851291D01*
X158985864Y-31025033D02*
X165886711Y-31025033D01*
X126096656Y-24424633D02*
X128171954Y-24424633D01*
X128734662Y-24987341D02*
X128734662Y-37735366D01*
X150174836Y-23744509D02*
X150174836Y-37525663D01*
X120772936Y-61281233D02*
X123341572Y-61281233D01*
X68830897Y-74215565D02*
X68830883Y-74215551D01*
X82672936Y-61281233D02*
X85267041Y-61281233D01*
X107674836Y-73428903D02*
X107674836Y-73433220D01*
X241711117Y-40663114D02*
X241711117Y-38254503D01*
X244257715Y-61281233D02*
X242216736Y-61281233D01*
X101722936Y-61281233D02*
X107111908Y-61281233D01*
X161145336Y-83298833D02*
X161145336Y-81009304D01*
X211231701Y-78831233D02*
X213765536Y-78831233D01*
X93174836Y-23743741D02*
X93174836Y-38365899D01*
X226874173Y-23181233D02*
X220785436Y-23181233D01*
X41769136Y-25718274D02*
X41769136Y-17113151D01*
X49460471Y-39158727D02*
X49460465Y-39158733D01*
X22847936Y-27805862D02*
X22847936Y-26787533D01*
X64894595Y-40168377D02*
X64894573Y-39722184D01*
X149408975Y-38301646D02*
X149408965Y-38301656D01*
X188547936Y-38916201D02*
X188547936Y-36219859D01*
X182247936Y-38295366D02*
X182247936Y-37573448D01*
X164331124Y-65852933D02*
X162017136Y-65852933D01*
X70400716Y-74215565D02*
X68830897Y-74215565D01*
X142007813Y-61281233D02*
X139822936Y-61281233D01*
X182984874Y-75462733D02*
X182991775Y-75462733D01*
X55224736Y-78831233D02*
X55224736Y-75003683D01*
X42332754Y-16549533D02*
X43575036Y-16549533D01*
X123151304Y-74215568D02*
X123151301Y-74215565D01*
X85830434Y-61844626D02*
X85830434Y-73449796D01*
X33046436Y-35518408D02*
X33046436Y-26845069D01*
X144147936Y-38866665D02*
X144147936Y-40731233D01*
X164894336Y-79884981D02*
X164894336Y-76237533D01*
X93174836Y-38365899D02*
X93174836Y-38369998D01*
X227439646Y-38254955D02*
X220911941Y-38254955D01*
X123151301Y-74215565D02*
X108461514Y-74215565D01*
X67947936Y-40731233D02*
X67947936Y-39720529D01*
X109244995Y-39081233D02*
X109248936Y-39077292D01*
X189453425Y-77287602D02*
X202179665Y-77287602D01*
X166447936Y-30463808D02*
X166447936Y-23744903D01*
X183774836Y-79603184D02*
X183774836Y-76245794D01*
X222125996Y-76172533D02*
X214330208Y-76172533D01*
X93962116Y-39153143D02*
X93962108Y-39153151D01*
X125535436Y-23181233D02*
X125535436Y-23863413D01*
X149408965Y-38301656D02*
X144712945Y-38301656D01*
X51985909Y-23181233D02*
X49222936Y-23181233D01*
X222687736Y-61844448D02*
X222687736Y-71849657D01*
X105118958Y-74991417D02*
X105118958Y-74989220D01*
X144585436Y-23181233D02*
X149611560Y-23181233D01*
X40565271Y-61281233D02*
X37429236Y-61281233D01*
X188547936Y-23744227D02*
X188547936Y-36219859D01*
X51761417Y-39158733D02*
X49460477Y-39158733D01*
X143357957Y-71526933D02*
X143353711Y-71526933D01*
X87322936Y-23181233D02*
X92612328Y-23181233D01*
X79355059Y-74215551D02*
X79355045Y-74215565D01*
X16408236Y-29663347D02*
X16408236Y-29585442D01*
X69604438Y-61843429D02*
X69604438Y-73419287D01*
X86596254Y-74215565D02*
X86596241Y-74215578D01*
X85041940Y-74215565D02*
X80936352Y-74215565D01*
X106047936Y-39642656D02*
X106047936Y-40731233D01*
X19716336Y-36079833D02*
X32485011Y-36079833D01*
X182809446Y-37011938D02*
X187751936Y-37011938D01*
X105118958Y-81754120D02*
X105118958Y-74991417D01*
X106892491Y-74215565D02*
X105894821Y-74215565D01*
X216149735Y-40166653D02*
X216149753Y-39456700D01*
X108685644Y-23181233D02*
X106485436Y-23181233D01*
X124678365Y-74215568D02*
X123151304Y-74215568D01*
X187751936Y-37011938D02*
X187755857Y-37011938D01*
X159272181Y-38301656D02*
X159272178Y-38301653D01*
X164894333Y-76237530D02*
X164894336Y-76237533D01*
X159272181Y-38301656D02*
X157691245Y-38301656D01*
X46668836Y-41294401D02*
X46668836Y-44478833D01*
X40571036Y-61286998D02*
X40565271Y-61281233D01*
X161224836Y-65060642D02*
X161224842Y-65060648D01*
X51761417Y-39158733D02*
X53337882Y-39158733D01*
X207574836Y-38043449D02*
X207574836Y-38045647D01*
X80936338Y-74215551D02*
X79355059Y-74215551D01*
X208359080Y-38827696D02*
X208359078Y-38827694D01*
X210666593Y-78266121D02*
X210666602Y-77850733D01*
X142571636Y-72309008D02*
X142571636Y-61845056D01*
X124678368Y-74215565D02*
X124678365Y-74215568D01*
X183774836Y-74672755D02*
X183774836Y-76245794D01*
X202179665Y-77287602D02*
X202179673Y-77287610D01*
X161224836Y-65060642D02*
X161224836Y-66639086D01*
X20279194Y-40731233D02*
X27466736Y-40731233D01*
X86997936Y-39715868D02*
X86997936Y-40731233D01*
X104345303Y-74215565D02*
X105894821Y-74215565D01*
X105894821Y-74215565D02*
X105894819Y-74215563D01*
X125103401Y-40725768D02*
X125097936Y-40731233D01*
X68830869Y-74215565D02*
X56012917Y-74215565D01*
X142571636Y-72309008D02*
X142571636Y-73653413D01*
X196972936Y-61281233D02*
X202404277Y-61281233D01*
X67947936Y-40731233D02*
X65457477Y-40731233D01*
X71741610Y-38597318D02*
X71741610Y-23748229D01*
X48897936Y-40731233D02*
X47232004Y-40731233D01*
X223475612Y-72637533D02*
X223482331Y-72637533D01*
X64331096Y-39158733D02*
X53337882Y-39158733D01*
X165686753Y-75462733D02*
X165669136Y-75462733D01*
X150950781Y-38301646D02*
X149408975Y-38301646D01*
X70400716Y-74215565D02*
X79355045Y-74215565D01*
X150174836Y-37525663D02*
X150174836Y-37535785D01*
X68830883Y-74215551D02*
X68830869Y-74215565D01*
X104345303Y-74215565D02*
X86596254Y-74215565D01*
X184336579Y-80164927D02*
X188889752Y-80164927D01*
X166447936Y-23744903D02*
X166447939Y-23744900D01*
X198697929Y-40311864D02*
X198697929Y-40056395D01*
X198120867Y-39479333D02*
X189111068Y-39479333D01*
X108461514Y-74215565D02*
X106892491Y-74215565D01*
X48897936Y-39721262D02*
X48897936Y-40731233D01*
X125103401Y-38299309D02*
X125103401Y-40725768D01*
X161224836Y-61843593D02*
X161224836Y-65060642D01*
X107674836Y-61844161D02*
X107674836Y-73428903D01*
X56012917Y-74215565D02*
X56012900Y-74215548D01*
X16408236Y-29585442D02*
X16408235Y-28931049D01*
X207574836Y-23743117D02*
X207574836Y-38043449D01*
X248316036Y-23140233D02*
X244597936Y-23140233D01*
X150950791Y-38301656D02*
X150950781Y-38301646D01*
X142009484Y-74215565D02*
X124678368Y-74215565D01*
X203779317Y-77287602D02*
X210103483Y-77287602D01*
X237566051Y-69125033D02*
X237566034Y-69125016D01*
X161706876Y-80447764D02*
X164331553Y-80447764D01*
X220347936Y-38818960D02*
X220347936Y-40731233D01*
X182984874Y-75462733D02*
X165686753Y-75462733D01*
X106047936Y-40731233D02*
X103075265Y-40731233D01*
X161224836Y-66639086D02*
X161224836Y-68691893D01*
X202179673Y-77287610D02*
X203779309Y-77287610D01*
X51099751Y-74215565D02*
X54437227Y-74215565D01*
X213765536Y-76737205D02*
X213765536Y-78831233D01*
X182685436Y-23181233D02*
X187984942Y-23181233D01*
X183774836Y-61843487D02*
X183774836Y-74672755D01*
X153097794Y-71526933D02*
X143357957Y-71526933D01*
X85041953Y-74215578D02*
X85041940Y-74215565D01*
X208359080Y-38827696D02*
X206792787Y-38827696D01*
X123904741Y-61844402D02*
X123904741Y-73441953D01*
X163201553Y-38301656D02*
X159272181Y-38301656D01*
X244258738Y-69125033D02*
X237566051Y-69125033D01*
X216714300Y-40731233D02*
G75*
G02*
X216149767Y-40166653I0J564533D01*
G01*
X124678365Y-74215568D02*
G75*
G02*
X123904832Y-73441953I35J773568D01*
G01*
X159272178Y-38301653D02*
G75*
G02*
X158422947Y-37452404I22J849253D01*
G01*
X182247936Y-37573448D02*
G75*
G02*
X182809446Y-37011936I561464J48D01*
G01*
X202404277Y-61281233D02*
G75*
G02*
X202966767Y-61843692I23J-562467D01*
G01*
X109248936Y-23744525D02*
G75*
G03*
X108685644Y-23181164I-563336J25D01*
G01*
X161145336Y-81009304D02*
G75*
G02*
X161706876Y-80447736I561564J4D01*
G01*
X210103483Y-77287602D02*
G75*
G02*
X210666598Y-77850733I17J-563098D01*
G01*
X183774841Y-74672760D02*
G75*
G02*
X182984874Y-75462741I-789941J-40D01*
G01*
X64894573Y-39722184D02*
G75*
G03*
X64331096Y-39158727I-563473J-16D01*
G01*
X158422936Y-37569965D02*
G75*
G02*
X157691245Y-38301736I-731736J-35D01*
G01*
X92612328Y-23181233D02*
G75*
G02*
X93174767Y-23743741I-28J-562467D01*
G01*
X201949573Y-38827696D02*
G75*
G03*
X201297996Y-39479333I27J-651604D01*
G01*
X150174836Y-37535785D02*
G75*
G02*
X149408965Y-38301636I-765836J-15D01*
G01*
X80145936Y-75006456D02*
G75*
G03*
X79355045Y-74215564I-790936J-44D01*
G01*
X182991775Y-75462733D02*
G75*
G02*
X183774867Y-76245794I25J-783067D01*
G01*
X216149753Y-39456700D02*
G75*
G03*
X215520749Y-38827647I-629053J0D01*
G01*
X125535436Y-23863413D02*
G75*
G03*
X126096656Y-24424664I561264J13D01*
G01*
X241779236Y-40731233D02*
G75*
G02*
X241711067Y-40663114I-36J68133D01*
G01*
X154223388Y-69255733D02*
G75*
G03*
X153660433Y-69818685I12J-562967D01*
G01*
X144712945Y-38301656D02*
G75*
G03*
X144147856Y-38866665I-45J-565044D01*
G01*
X105118958Y-74989220D02*
G75*
G03*
X104345303Y-74215542I-773658J20D01*
G01*
X85830434Y-73427071D02*
G75*
G02*
X85041940Y-74215634I-788534J-29D01*
G01*
X165669136Y-75462733D02*
G75*
G03*
X164894333Y-76237533I-36J-774767D01*
G01*
X123904741Y-73462125D02*
G75*
G02*
X123151301Y-74215541I-753441J25D01*
G01*
X55224736Y-75003074D02*
G75*
G03*
X54437227Y-74215564I-787536J-26D01*
G01*
X142571636Y-73653413D02*
G75*
G02*
X142009484Y-74215536I-562136J13D01*
G01*
X150950781Y-38301646D02*
G75*
G02*
X150174854Y-37525663I19J775946D01*
G01*
X208359078Y-38827694D02*
G75*
G02*
X207574806Y-38043449I22J784294D01*
G01*
X142571636Y-61845056D02*
G75*
G03*
X142007813Y-61281264I-563836J-44D01*
G01*
X222687736Y-71849657D02*
G75*
G03*
X223475612Y-72637564I787864J-43D01*
G01*
X102514830Y-39714796D02*
G75*
G03*
X101953177Y-39153170I-561630J-4D01*
G01*
X202179673Y-77287610D02*
G75*
G03*
X202966710Y-76500580I27J787010D01*
G01*
X189111068Y-39479333D02*
G75*
G02*
X188547967Y-38916201I32J563133D01*
G01*
X161224842Y-65060648D02*
G75*
G03*
X162017136Y-65852858I792258J48D01*
G01*
X108461511Y-74215568D02*
G75*
G02*
X107674832Y-73428903I-11J786668D01*
G01*
X71180195Y-39158733D02*
G75*
G03*
X71741633Y-38597318I5J561433D01*
G01*
X52547936Y-38372214D02*
G75*
G02*
X51761417Y-39158736I-786536J14D01*
G01*
X227437136Y-23744196D02*
G75*
G03*
X226874173Y-23181264I-562936J-4D01*
G01*
X56012900Y-74215548D02*
G75*
G03*
X55224748Y-75003683I0J-788152D01*
G01*
X164894336Y-66416145D02*
G75*
G03*
X164331124Y-65852864I-563236J45D01*
G01*
X65457477Y-40731233D02*
G75*
G02*
X64894567Y-40168377I23J562933D01*
G01*
X105894819Y-74215563D02*
G75*
G03*
X105118963Y-74991417I-19J-775837D01*
G01*
X85830434Y-73449796D02*
G75*
G03*
X86596241Y-74215566I765766J-4D01*
G01*
X220911941Y-38254955D02*
G75*
G03*
X220347855Y-38818960I-41J-564045D01*
G01*
X16408235Y-28931049D02*
G75*
G02*
X16969637Y-28369645I561405J-1D01*
G01*
X199117298Y-40731233D02*
G75*
G02*
X198697967Y-40311864I2J419333D01*
G01*
X237566034Y-69125016D02*
G75*
G03*
X237004216Y-69686793I-34J-561784D01*
G01*
X93962108Y-39153151D02*
G75*
G02*
X93174849Y-38365899I-8J787251D01*
G01*
X85267041Y-61281233D02*
G75*
G02*
X85830367Y-61844626I-41J-563367D01*
G01*
X107111908Y-61281233D02*
G75*
G02*
X107674867Y-61844161I-8J-562967D01*
G01*
X160662476Y-61281233D02*
G75*
G02*
X161224867Y-61843593I24J-562367D01*
G01*
X162010989Y-65852933D02*
G75*
G03*
X161224833Y-66639086I11J-786167D01*
G01*
X165886711Y-31025033D02*
G75*
G03*
X166447933Y-30463808I-11J561233D01*
G01*
X80936338Y-74215551D02*
G75*
G03*
X80145951Y-75005927I-38J-790349D01*
G01*
X187751936Y-37011938D02*
G75*
G02*
X188547862Y-37807988I-36J-795962D01*
G01*
X71741610Y-23748229D02*
G75*
G03*
X71174614Y-23181190I-567010J29D01*
G01*
X166447939Y-23744900D02*
G75*
G03*
X165884281Y-23181261I-563639J0D01*
G01*
X103075265Y-40731233D02*
G75*
G02*
X102514867Y-40170798I35J560433D01*
G01*
X128734662Y-37735366D02*
G75*
G02*
X128170719Y-38299362I-563962J-34D01*
G01*
X105914720Y-82549882D02*
G75*
G02*
X105118918Y-81754120I-20J795782D01*
G01*
X53337874Y-39158741D02*
G75*
G02*
X52547859Y-38368836I-74J789941D01*
G01*
X187755857Y-37011938D02*
G75*
G03*
X188547938Y-36219859I43J792038D01*
G01*
X33046436Y-26845069D02*
G75*
G02*
X33609784Y-26281736I563364J-31D01*
G01*
X207012952Y-23181233D02*
G75*
G02*
X207574867Y-23743117I48J-561867D01*
G01*
X202966736Y-76475021D02*
G75*
G03*
X203779317Y-77287564I812564J21D01*
G01*
X69604438Y-73419287D02*
G75*
G03*
X70400716Y-74215562I796262J-13D01*
G01*
X207574836Y-38045647D02*
G75*
G02*
X206792787Y-38827636I-782036J47D01*
G01*
X128171954Y-24424633D02*
G75*
G02*
X128734667Y-24987341I46J-562667D01*
G01*
X19716336Y-40168375D02*
G75*
G03*
X20279194Y-40731264I562864J-25D01*
G01*
X143353711Y-71526933D02*
G75*
G03*
X142571633Y-72309008I-11J-782067D01*
G01*
X244820377Y-68563394D02*
G75*
G02*
X244258738Y-69125077I-561677J-6D01*
G01*
X87560661Y-39153143D02*
G75*
G03*
X86997943Y-39715868I39J-562757D01*
G01*
X237004236Y-72074830D02*
G75*
G02*
X236441533Y-72637536I-562736J30D01*
G01*
X164331553Y-80447764D02*
G75*
G03*
X164894364Y-79884981I47J562764D01*
G01*
X69042242Y-61281233D02*
G75*
G02*
X69604367Y-61843429I-42J-562167D01*
G01*
X67947936Y-39720529D02*
G75*
G02*
X68509732Y-39158736I561764J29D01*
G01*
X158422936Y-31587961D02*
G75*
G02*
X158985864Y-31025036I562964J-39D01*
G01*
X49460465Y-39158733D02*
G75*
G03*
X48897933Y-39721262I35J-562567D01*
G01*
X107674836Y-73433220D02*
G75*
G02*
X106892491Y-74215536I-782336J20D01*
G01*
X32485011Y-36079833D02*
G75*
G03*
X33046433Y-35518408I-11J561433D01*
G01*
X161224836Y-68691893D02*
G75*
G02*
X160660996Y-69255736I-563836J-7D01*
G01*
X47232004Y-40731233D02*
G75*
G03*
X46668833Y-41294401I-4J-563167D01*
G01*
X41205689Y-26281721D02*
G75*
G03*
X41769121Y-25718274I11J563421D01*
G01*
X183212582Y-61281233D02*
G75*
G02*
X183774867Y-61843487I18J-562267D01*
G01*
X22284152Y-28369646D02*
G75*
G03*
X22847946Y-27805862I48J563746D01*
G01*
X123341572Y-61281233D02*
G75*
G02*
X123904767Y-61844402I28J-563167D01*
G01*
X93174836Y-38369998D02*
G75*
G02*
X92391691Y-39153136I-783136J-2D01*
G01*
X210666593Y-78266121D02*
G75*
G03*
X211231701Y-78831207I565107J21D01*
G01*
X214330208Y-76172533D02*
G75*
G03*
X213765533Y-76737205I-8J-564667D01*
G01*
X68830883Y-74215551D02*
G75*
G03*
X69604351Y-73441960I-83J773551D01*
G01*
X149611560Y-23181233D02*
G75*
G02*
X150174867Y-23744509I40J-563267D01*
G01*
X244820377Y-61843895D02*
G75*
G03*
X244257715Y-61281223I-562677J-5D01*
G01*
X187984942Y-23181233D02*
G75*
G02*
X188547867Y-23744227I-42J-562967D01*
G01*
X41769136Y-17113151D02*
G75*
G02*
X42332754Y-16549536I563664J-49D01*
G01*
X164894333Y-74670311D02*
G75*
G03*
X165686753Y-75462767I792467J11D01*
G01*
X223482331Y-72637533D02*
G75*
G03*
X222687733Y-73432128I-31J-794567D01*
G01*
X153660436Y-70964291D02*
G75*
G02*
X153097794Y-71526936I-562636J-9D01*
G01*
X188889736Y-77851291D02*
G75*
G02*
X189453425Y-77287636I563664J-9D01*
G01*
X183774836Y-79603184D02*
G75*
G03*
X184336579Y-80164964I561764J-16D01*
G01*
X107674836Y-82225399D02*
G75*
G03*
X107999319Y-82549864I324464J-1D01*
G01*
X198697929Y-40056395D02*
G75*
G03*
X198120867Y-39479371I-577029J-5D01*
G01*
X222687736Y-75610793D02*
G75*
G02*
X222125996Y-76172536I-561736J-7D01*
G01*
X143357957Y-71526933D02*
G75*
G02*
X142571667Y-70740638I43J786333D01*
G01*
X52547936Y-23743260D02*
G75*
G03*
X51985909Y-23181264I-562036J-40D01*
G01*
X222124521Y-61281233D02*
G75*
G02*
X222687667Y-61844448I-21J-563167D01*
G01*
X106609359Y-39081233D02*
G75*
G03*
X106047933Y-39642656I41J-561467D01*
G01*
X17115500Y-23008140D02*
X17115500Y-23033303D01*
X40025036Y-23032567D02*
X40025036Y-16549533D01*
X15808236Y-22444667D02*
X16552027Y-22444667D01*
X17678730Y-23596533D02*
X39461070Y-23596533D01*
X17115500Y-23033303D02*
G75*
G03*
X17678730Y-23596500I563200J3D01*
G01*
X16552027Y-22444667D02*
G75*
G02*
X17115433Y-23008140I-27J-563433D01*
G01*
X39461070Y-23596533D02*
G75*
G03*
X40025033Y-23032567I30J563933D01*
G01*
D31*
X22847936Y-25287533D02*
X22847936Y-24910928D01*
X31602836Y-24909884D02*
X31602836Y-25992233D01*
X23272931Y-24485933D02*
X31178885Y-24485933D01*
X44022936Y-25972304D02*
X44024966Y-25977204D01*
X44022936Y-23181233D02*
X44022936Y-25972304D01*
X22847936Y-24910928D02*
G75*
G02*
X23272931Y-24485936I424964J28D01*
G01*
X31178885Y-24485933D02*
G75*
G02*
X31602867Y-24909884I15J-423967D01*
G01*
D32*
X194183928Y-58022777D02*
X192628536Y-58022777D01*
X207460493Y-59218229D02*
X207460493Y-58482889D01*
X88132024Y-85864899D02*
X88132018Y-85864893D01*
X173516711Y-58022781D02*
X171944761Y-58022781D01*
X212274836Y-56199396D02*
X212274836Y-56199615D01*
X210822936Y-57554356D02*
X210822936Y-59781233D01*
X194455539Y-19594038D02*
X210540313Y-19594038D01*
X115276136Y-90030541D02*
X115276136Y-97316365D01*
X113987324Y-57459699D02*
X113987336Y-57459687D01*
X35425436Y-55268287D02*
X35425436Y-55268492D01*
X133307770Y-41669648D02*
X133307770Y-39155467D01*
X115572936Y-59781233D02*
X115572936Y-58802899D01*
X193404236Y-57243081D02*
X193404236Y-57247077D01*
X237806706Y-56992111D02*
X236232261Y-56992111D01*
X171944761Y-58022781D02*
X155964565Y-58022781D01*
X73147936Y-42231233D02*
X76081762Y-42231233D01*
X59680937Y-19594038D02*
X61272278Y-19594038D01*
X172722936Y-58816572D02*
X172722936Y-59781233D01*
X155964565Y-58022781D02*
X155964557Y-58022789D01*
X36211101Y-56053933D02*
X54257055Y-56053933D01*
X16031523Y-25287533D02*
X17647936Y-25287533D01*
X193668337Y-21118370D02*
X193668337Y-20383745D01*
X97397933Y-58022788D02*
X97397926Y-58022781D01*
X55848883Y-56053933D02*
X54257055Y-56053933D01*
X58422936Y-58213926D02*
X58422936Y-59781233D01*
X149964482Y-58022781D02*
X135186405Y-58022781D01*
X116177295Y-19594049D02*
X116177284Y-19594038D01*
X88132024Y-85864887D02*
X88132018Y-85864893D01*
X153672936Y-59781233D02*
X153672936Y-58586101D01*
X76658840Y-59781233D02*
X77472936Y-59781233D01*
X63072936Y-21681233D02*
X60961248Y-21681233D01*
X155164890Y-42231233D02*
X149347936Y-42231233D01*
X232259652Y-80894148D02*
X232259652Y-86543019D01*
X170992455Y-84060213D02*
X170992035Y-84060633D01*
X93327014Y-59781233D02*
X96522936Y-59781233D01*
X215585436Y-21681233D02*
X211120507Y-21681233D01*
X88132024Y-87438806D02*
X88132024Y-94419899D01*
X58422936Y-59781233D02*
X58069199Y-59781233D01*
X135303866Y-19594045D02*
X135303859Y-19594038D01*
X192628536Y-58022777D02*
X192628532Y-58022781D01*
X97619751Y-19594035D02*
X97619748Y-19594038D01*
X193404236Y-42801253D02*
X193404236Y-57243081D01*
X56321052Y-42231233D02*
X54097936Y-42231233D01*
X136903924Y-19594045D02*
X135303866Y-19594045D01*
X212274836Y-42794518D02*
X212274836Y-56199396D01*
X88132024Y-87438806D02*
X88132024Y-85864899D01*
X245937205Y-78962959D02*
X245937205Y-57556062D01*
X76658840Y-57647128D02*
X58989734Y-57647128D01*
X236232261Y-56992111D02*
X236232239Y-56992133D01*
X190989977Y-58022781D02*
X173516711Y-58022781D01*
X117765978Y-19594049D02*
X116177295Y-19594049D01*
X55848883Y-56053933D02*
X55848880Y-56053936D01*
X79672612Y-19594041D02*
X79672615Y-19594038D01*
X213067354Y-56992133D02*
X211385159Y-56992133D01*
X139385436Y-21681233D02*
X136689357Y-21681233D01*
X67210336Y-80893642D02*
X67210336Y-94984612D01*
X154967327Y-19594038D02*
X136903931Y-19594038D01*
X111495166Y-58584609D02*
X111495174Y-59218544D01*
X211101183Y-20092665D02*
X211101183Y-21698651D01*
X187447936Y-42231233D02*
X192834216Y-42231233D01*
X237806728Y-56992133D02*
X237806706Y-56992111D01*
X97619748Y-19594038D02*
X79672615Y-19594038D01*
X136903931Y-19594038D02*
X136903924Y-19594045D01*
X117765989Y-19594038D02*
X117765978Y-19594049D01*
X174605058Y-21118750D02*
X174605058Y-20382698D01*
X78883541Y-21115549D02*
X78883541Y-20389450D01*
X76645536Y-54876812D02*
X76658840Y-54890116D01*
X113502024Y-89465803D02*
X114711398Y-89465803D01*
X135303859Y-19594038D02*
X117765989Y-19594038D01*
X88920889Y-86653775D02*
X88917055Y-86653775D01*
X131309424Y-58586108D02*
X131309429Y-59218376D01*
X82122936Y-21681233D02*
X79449225Y-21681233D01*
X90137951Y-86653775D02*
X88920889Y-86653775D01*
X129722985Y-92770414D02*
X127415915Y-92770402D01*
X192878641Y-19594027D02*
X192878630Y-19594038D01*
X34639995Y-56053933D02*
X36211101Y-56053933D01*
X32229236Y-56616923D02*
X32229236Y-59781233D01*
X245373276Y-56992133D02*
X237806728Y-56992133D01*
X97397926Y-58022781D02*
X97088394Y-58022781D01*
X44076224Y-19594038D02*
X44076224Y-21627945D01*
X92764301Y-59218497D02*
X92764343Y-58214684D01*
X67210336Y-94984612D02*
X67208932Y-94986016D01*
X120335436Y-21681233D02*
X117539537Y-21681233D01*
X232204236Y-42794747D02*
X232204236Y-56204658D01*
X60481653Y-21201634D02*
X60481653Y-20394754D01*
X98955777Y-58022781D02*
X110933330Y-58022781D01*
X158435436Y-21681233D02*
X156325094Y-21681233D01*
X194455528Y-19594027D02*
X192878641Y-19594027D01*
X246979236Y-42231233D02*
X248415857Y-42231233D01*
X231419779Y-56992133D02*
X232991693Y-56992133D01*
X173823937Y-19594038D02*
X156550375Y-19594038D01*
X78088138Y-19594038D02*
X78088141Y-19594041D01*
X76658840Y-57647128D02*
X76658840Y-59781233D01*
X191772936Y-58812014D02*
X191772936Y-58805740D01*
X206497936Y-42231233D02*
X211711551Y-42231233D01*
X211101183Y-21698651D02*
X211102136Y-21699604D01*
X60424736Y-80331233D02*
X66647927Y-80331233D01*
X225547936Y-42231233D02*
X231640722Y-42231233D01*
X116177284Y-19594038D02*
X99188926Y-19594038D01*
X155760112Y-21116251D02*
X155760112Y-20386823D01*
X136126594Y-21118471D02*
X136126594Y-20416773D01*
X67212680Y-94982268D02*
X67208932Y-94986016D01*
X113424122Y-42231233D02*
X111247936Y-42231233D01*
X112939953Y-84758984D02*
X112939953Y-88903732D01*
X215585436Y-21681233D02*
X215585436Y-20601424D01*
X78883541Y-20389450D02*
X78883541Y-20383112D01*
X98955770Y-58022788D02*
X97397933Y-58022788D01*
X55848883Y-56053933D02*
X56322684Y-56053933D01*
X76658840Y-57647128D02*
X76645536Y-57660432D01*
X172304110Y-39137533D02*
X172304110Y-41668537D01*
X155187006Y-42253349D02*
X155164890Y-42231233D01*
X115572936Y-58802899D02*
X115572936Y-58798169D01*
X170992035Y-84060633D02*
X166503536Y-84060633D01*
X234385436Y-87106233D02*
X236175580Y-87106233D01*
X156550375Y-19594038D02*
X154967327Y-19594038D01*
X96522936Y-58588239D02*
X96522936Y-59781233D01*
X192628532Y-58022781D02*
X190989977Y-58022781D01*
X177485436Y-21681233D02*
X175167541Y-21681233D01*
X130297936Y-42231233D02*
X132746185Y-42231233D01*
X126858536Y-85322611D02*
X126858536Y-92213020D01*
X134622936Y-58586250D02*
X134622936Y-59781233D01*
X248979036Y-44937533D02*
X248979036Y-42794412D01*
X98175236Y-57242280D02*
X98175236Y-57245471D01*
X153672936Y-59781233D02*
X151091182Y-59781233D01*
X58069199Y-59781233D02*
X55625510Y-59781235D01*
X61272278Y-19594038D02*
X78088138Y-19594038D01*
X232822866Y-87106233D02*
X234385436Y-87106233D01*
X76658840Y-57651033D02*
X92200718Y-57651033D01*
X155964557Y-58022789D02*
X154388352Y-58022789D01*
X15470180Y-23715571D02*
X15470179Y-24726188D01*
X155174836Y-57233081D02*
X155174836Y-57236289D01*
X232991693Y-56992133D02*
X232991684Y-56992124D01*
X114797523Y-58022806D02*
X114797548Y-58022781D01*
X59680937Y-19594038D02*
X44076224Y-19594038D01*
X101285436Y-21681233D02*
X99092171Y-21681233D01*
X194181736Y-81298533D02*
X197889532Y-81298533D01*
X216149327Y-20037533D02*
X238834853Y-20037533D01*
X34639995Y-56053933D02*
X32792226Y-56053933D01*
X126294909Y-84758984D02*
X112939953Y-84758984D01*
X98175236Y-44445600D02*
X98175236Y-57242280D01*
X98955770Y-58022788D02*
X98955777Y-58022781D01*
X173823937Y-19594038D02*
X192878630Y-19594038D01*
X131872290Y-59781233D02*
X134622936Y-59781233D01*
X218965536Y-80331233D02*
X231696737Y-80331233D01*
X194455528Y-19594027D02*
X194455539Y-19594038D01*
X114797548Y-58022781D02*
X116353106Y-58022781D01*
X32666736Y-42231233D02*
X34862585Y-42231233D01*
X239397936Y-20600616D02*
X239397936Y-21681233D01*
X92197936Y-42231233D02*
X92197936Y-43321640D01*
X150528259Y-59218310D02*
X150528259Y-58586558D01*
X92759829Y-43883533D02*
X97613169Y-43883533D01*
X196535436Y-21681233D02*
X194231200Y-21681233D01*
X56885536Y-55491081D02*
X56885536Y-42795717D01*
X87569655Y-94982268D02*
X67212680Y-94982268D01*
X78088141Y-19594041D02*
X79672612Y-19594041D01*
D31*
X120335436Y-21681233D02*
X120335436Y-21993133D01*
D32*
X154388344Y-58022781D02*
X154236256Y-58022781D01*
X76658840Y-57647128D02*
X76658840Y-57651033D01*
X85228585Y-81699673D02*
X87569622Y-81699713D01*
X191772936Y-59781233D02*
X191772936Y-58812014D01*
X231419779Y-56992133D02*
X213067354Y-56992133D01*
X237300491Y-79525127D02*
X245375037Y-79525127D01*
X237016736Y-57782057D02*
X237016736Y-57776630D01*
X116353106Y-58022781D02*
X130746093Y-58022781D01*
X114550427Y-58022806D02*
X114797523Y-58022806D01*
X171741414Y-42231233D02*
X168397936Y-42231233D01*
X232204236Y-56204658D02*
X232204236Y-56207676D01*
X116353106Y-58022781D02*
X116353096Y-58022771D01*
X113987336Y-57459687D02*
X113987336Y-42794447D01*
X35425436Y-42794084D02*
X35425436Y-55268287D01*
X36211101Y-56053933D02*
X36211098Y-56053936D01*
X210822936Y-59781233D02*
X208023491Y-59781233D01*
X76645536Y-42795007D02*
X76645536Y-54876812D01*
X58989734Y-57647128D02*
X58985829Y-57651033D01*
X116976956Y-21118653D02*
X116976956Y-20393710D01*
X207000385Y-58022781D02*
X194183932Y-58022781D01*
X236232239Y-56992133D02*
X232991693Y-56992133D01*
X90702036Y-97316844D02*
X90702036Y-87217860D01*
X173516711Y-58022781D02*
X173516701Y-58022791D01*
X88132024Y-82262124D02*
X88132024Y-85864887D01*
X99188926Y-19594038D02*
X97619754Y-19594038D01*
X55061495Y-59279749D02*
X55061495Y-56858373D01*
X98407900Y-20996962D02*
X98407900Y-20382179D01*
X114713615Y-97878886D02*
X91264078Y-97878886D01*
X237016736Y-59781233D02*
X237016736Y-57782057D01*
X236738498Y-86543315D02*
X236738498Y-80087120D01*
X112057870Y-59781233D02*
X115572936Y-59781233D01*
X60481651Y-21201636D02*
X60481653Y-21201634D01*
X156550375Y-19594038D02*
X156550368Y-19594045D01*
X155174836Y-42265519D02*
X155174836Y-57233081D01*
X154388352Y-58022789D02*
X154388344Y-58022781D01*
X194183932Y-58022781D02*
X194183928Y-58022777D01*
X60961248Y-21681233D02*
G75*
G02*
X60481567Y-21201636I-48J479633D01*
G01*
X194183928Y-58022777D02*
G75*
G02*
X193404223Y-57243081I-28J779677D01*
G01*
X98175236Y-57245471D02*
G75*
G02*
X97397926Y-58022836I-777336J-29D01*
G01*
X90702036Y-87217860D02*
G75*
G03*
X90137951Y-86653764I-564136J-40D01*
G01*
X92200718Y-57651033D02*
G75*
G02*
X92764367Y-58214684I-18J-563667D01*
G01*
X92764301Y-59218497D02*
G75*
G03*
X93327014Y-59781199I562699J-3D01*
G01*
X55625510Y-59781235D02*
G75*
G02*
X55061509Y-59279747I1990J570135D01*
G01*
X44076224Y-21627945D02*
G75*
G02*
X44022936Y-21681224I-53324J45D01*
G01*
X151091182Y-59781233D02*
G75*
G02*
X150528267Y-59218310I18J562933D01*
G01*
X88132024Y-94419899D02*
G75*
G02*
X87569655Y-94982224I-562324J-1D01*
G01*
X111495174Y-59218544D02*
G75*
G03*
X112057870Y-59781226I562726J44D01*
G01*
X174605058Y-20382698D02*
G75*
G02*
X175393728Y-19594058I788642J-2D01*
G01*
X155174836Y-57236289D02*
G75*
G02*
X154388344Y-58022836I-786536J-11D01*
G01*
X211385159Y-56992133D02*
G75*
G03*
X210822933Y-57554356I41J-562267D01*
G01*
X32792226Y-56053933D02*
G75*
G03*
X32229233Y-56616923I-26J-562967D01*
G01*
X193668337Y-20383745D02*
G75*
G03*
X192878630Y-19593963I-789737J45D01*
G01*
X207460493Y-58482889D02*
G75*
G03*
X207000385Y-58022807I-460093J-11D01*
G01*
X98955770Y-58022788D02*
G75*
G02*
X98175212Y-57242280I-70J780488D01*
G01*
X211711551Y-42231233D02*
G75*
G02*
X212274867Y-42794518I49J-563267D01*
G01*
X156550368Y-19594045D02*
G75*
G03*
X155760145Y-20384319I32J-790255D01*
G01*
X97613169Y-43883533D02*
G75*
G02*
X98175267Y-44445600I31J-562067D01*
G01*
X236175580Y-87106233D02*
G75*
G03*
X236738533Y-86543315I20J562933D01*
G01*
X193404236Y-57247077D02*
G75*
G02*
X192628532Y-58022836I-775736J-23D01*
G01*
X116353096Y-58022771D02*
G75*
G03*
X115572971Y-58802899I4J-780129D01*
G01*
X136126594Y-20416773D02*
G75*
G03*
X135303859Y-19594106I-822694J-27D01*
G01*
X211120507Y-21681233D02*
G75*
G03*
X211102133Y-21699604I-7J-18367D01*
G01*
X238834853Y-20037533D02*
G75*
G02*
X239397967Y-20600616I47J-563067D01*
G01*
X133307770Y-39155467D02*
G75*
G03*
X133289836Y-39137530I-17970J-33D01*
G01*
X78088141Y-19594041D02*
G75*
G02*
X78883559Y-20389450I-41J-795459D01*
G01*
X175167541Y-21681233D02*
G75*
G02*
X174605067Y-21118750I-41J562433D01*
G01*
X231640722Y-42231233D02*
G75*
G02*
X232204167Y-42794747I-22J-563467D01*
G01*
X116976956Y-20393710D02*
G75*
G03*
X116177284Y-19594044I-799656J10D01*
G01*
X112939953Y-88903732D02*
G75*
G03*
X113502024Y-89465747I562047J32D01*
G01*
X236738498Y-80087120D02*
G75*
G02*
X237300491Y-79525098I562002J20D01*
G01*
X15470179Y-24726188D02*
G75*
G03*
X16031523Y-25287521I561321J-12D01*
G01*
X248979036Y-42794412D02*
G75*
G03*
X248415857Y-42231264I-563136J12D01*
G01*
X87569622Y-81699713D02*
G75*
G02*
X88131987Y-82262124I-22J-562387D01*
G01*
X208023491Y-59781233D02*
G75*
G02*
X207460467Y-59218229I9J563033D01*
G01*
X117539537Y-21681233D02*
G75*
G02*
X116976967Y-21118653I-37J562533D01*
G01*
X115572936Y-58798169D02*
G75*
G03*
X114797548Y-58022764I-775436J-31D01*
G01*
X91264078Y-97878886D02*
G75*
G02*
X90702014Y-97316844I22J562086D01*
G01*
X150528259Y-58586558D02*
G75*
G03*
X149964482Y-58022841I-563759J-42D01*
G01*
X191772936Y-58805740D02*
G75*
G03*
X190989977Y-58022764I-782936J40D01*
G01*
X55848880Y-56053936D02*
G75*
G03*
X55061536Y-56841327I20J-787364D01*
G01*
X35425436Y-55268492D02*
G75*
G02*
X34639995Y-56053936I-785436J-8D01*
G01*
X215585436Y-20601424D02*
G75*
G02*
X216149327Y-20037536I563864J24D01*
G01*
X78883541Y-20383112D02*
G75*
G02*
X79672615Y-19594041I789059J12D01*
G01*
X36211098Y-56053936D02*
G75*
G02*
X35425464Y-55268287I2J785636D01*
G01*
X232259652Y-86543019D02*
G75*
G03*
X232822866Y-87106248I563248J19D01*
G01*
X60481653Y-20394754D02*
G75*
G03*
X59680937Y-19594047I-800753J-46D01*
G01*
X153672936Y-58586101D02*
G75*
G02*
X154236256Y-58022736I563364J1D01*
G01*
X172722936Y-58800956D02*
G75*
G03*
X171944761Y-58022864I-778136J-44D01*
G01*
X237016736Y-57776630D02*
G75*
G03*
X236232239Y-56992064I-784536J30D01*
G01*
X114711398Y-89465803D02*
G75*
G02*
X115276097Y-90030541I2J-564697D01*
G01*
X55061495Y-56858373D02*
G75*
G03*
X54257055Y-56054005I-804395J-27D01*
G01*
X79449225Y-21681233D02*
G75*
G02*
X78883467Y-21115549I-25J565733D01*
G01*
X58985829Y-57651033D02*
G75*
G03*
X58422933Y-58213926I-29J-562867D01*
G01*
X212274836Y-56199396D02*
G75*
G02*
X211482122Y-56992136I-792736J-4D01*
G01*
X192834216Y-42231233D02*
G75*
G02*
X193404267Y-42801253I-16J-570067D01*
G01*
X245937205Y-57556062D02*
G75*
G03*
X245373276Y-56992195I-563905J-38D01*
G01*
X155964557Y-58022789D02*
G75*
G02*
X155174811Y-57233081I-57J789689D01*
G01*
X117765978Y-19594049D02*
G75*
G03*
X116976949Y-20383096I22J-789051D01*
G01*
X173516701Y-58022791D02*
G75*
G03*
X172722891Y-58816572I-1J-793809D01*
G01*
X97088394Y-58022781D02*
G75*
G03*
X96522981Y-58588239I6J-565419D01*
G01*
X156325094Y-21681233D02*
G75*
G02*
X155760167Y-21116251I6J564933D01*
G01*
X98407900Y-20382179D02*
G75*
G03*
X97619751Y-19594100I-788100J-21D01*
G01*
X210540313Y-19594038D02*
G75*
G02*
X211101231Y-20092659I-1913J-566962D01*
G01*
X136903924Y-19594045D02*
G75*
G03*
X136126545Y-20371398I-24J-777355D01*
G01*
X98407900Y-20375064D02*
G75*
G02*
X99188926Y-19594100I781000J-36D01*
G01*
X132746185Y-42231233D02*
G75*
G03*
X133307833Y-41669648I15J561633D01*
G01*
X76081762Y-42231233D02*
G75*
G02*
X76645567Y-42795007I38J-563767D01*
G01*
X232991684Y-56992124D02*
G75*
G02*
X232204276Y-56204658I16J787424D01*
G01*
X110933330Y-58022781D02*
G75*
G02*
X111495119Y-58584609I-30J-561819D01*
G01*
X212274836Y-56199615D02*
G75*
G03*
X213067354Y-56992164I792564J15D01*
G01*
X174605058Y-20375159D02*
G75*
G03*
X173823937Y-19594042I-781158J-41D01*
G01*
X232204236Y-56207676D02*
G75*
G02*
X231419779Y-56992136I-784436J-24D01*
G01*
X126858536Y-92213020D02*
G75*
G03*
X127415915Y-92770364I557364J20D01*
G01*
X113987336Y-42794447D02*
G75*
G03*
X113424122Y-42231164I-563236J47D01*
G01*
X92197936Y-43321640D02*
G75*
G03*
X92759829Y-43883464I561864J40D01*
G01*
X56322684Y-56053933D02*
G75*
G03*
X56885533Y-55491081I16J562833D01*
G01*
X194231200Y-21681233D02*
G75*
G02*
X193668367Y-21118370I0J562833D01*
G01*
X115276136Y-97316365D02*
G75*
G02*
X114713615Y-97878936I-562536J-35D01*
G01*
X245375037Y-79525127D02*
G75*
G03*
X245937127Y-78962959I-37J562127D01*
G01*
X237806706Y-56992111D02*
G75*
G03*
X237016711Y-57782057I-6J-789989D01*
G01*
X60481652Y-20384664D02*
G75*
G02*
X61272278Y-19594052I790648J-36D01*
G01*
X136689357Y-21681233D02*
G75*
G02*
X136126667Y-21118471I43J562733D01*
G01*
X131309429Y-59218376D02*
G75*
G03*
X131872290Y-59781271I562871J-24D01*
G01*
X88132018Y-85864893D02*
G75*
G03*
X88920889Y-86653782I788882J-7D01*
G01*
X155760112Y-20386823D02*
G75*
G03*
X154967327Y-19593988I-792812J23D01*
G01*
X34862585Y-42231233D02*
G75*
G02*
X35425467Y-42794084I15J-562867D01*
G01*
X194455528Y-19594027D02*
G75*
G03*
X193668327Y-20381179I-28J-787173D01*
G01*
X231696737Y-80331233D02*
G75*
G02*
X232259567Y-80894148I-37J-562867D01*
G01*
X99092171Y-21681233D02*
G75*
G02*
X98407967Y-20996962I29J684233D01*
G01*
X66647927Y-80331233D02*
G75*
G02*
X67210267Y-80893642I-27J-562367D01*
G01*
X88917055Y-86653775D02*
G75*
G03*
X88132075Y-87438806I45J-785025D01*
G01*
X191772936Y-58812014D02*
G75*
G02*
X192562165Y-58022736I789264J14D01*
G01*
X56885536Y-42795717D02*
G75*
G03*
X56321052Y-42231264I-564436J17D01*
G01*
X130746093Y-58022781D02*
G75*
G02*
X131309419Y-58586108I7J-563319D01*
G01*
X172304110Y-41668537D02*
G75*
G02*
X171741414Y-42231210I-562710J37D01*
G01*
X114550427Y-58022806D02*
G75*
G02*
X113987294Y-57459699I-27J563106D01*
G01*
X126858536Y-85322611D02*
G75*
G03*
X126294909Y-84758964I-563636J11D01*
G01*
X197889532Y-81298533D02*
G75*
G02*
X197904067Y-81313137I-32J-14567D01*
G01*
X155187006Y-42253349D02*
G75*
G03*
X155174849Y-42265519I-6J-12151D01*
G01*
X135186405Y-58022781D02*
G75*
G03*
X134622981Y-58586250I-5J-563419D01*
G01*
D31*
X15808236Y-37684633D02*
X15808236Y-27211276D01*
X16231979Y-26787533D02*
X17647936Y-26787533D01*
X15808236Y-27211276D02*
G75*
G02*
X16231979Y-26787536I423764J-24D01*
G01*
X52747402Y-21681233D02*
X49222936Y-21681233D01*
X63072936Y-23181233D02*
X53595908Y-23181233D01*
X53171036Y-22756361D02*
X53171036Y-22104867D01*
X53171036Y-22104867D02*
G75*
G03*
X52747402Y-21681264I-423636J-33D01*
G01*
X53595908Y-23181233D02*
G75*
G02*
X53171067Y-22756361I-8J424833D01*
G01*
X72704928Y-21681233D02*
X68272936Y-21681233D01*
X73128922Y-22758492D02*
X73128922Y-22105227D01*
X82122936Y-23181233D02*
X73551663Y-23181233D01*
X73128922Y-22105227D02*
G75*
G03*
X72704928Y-21681178I-424022J27D01*
G01*
X73551663Y-23181233D02*
G75*
G02*
X73128967Y-22758492I37J422733D01*
G01*
X94256387Y-22757620D02*
X94256387Y-22105485D01*
X101285436Y-23181233D02*
X94680000Y-23181233D01*
X87322936Y-21681233D02*
X93832135Y-21681233D01*
X94680000Y-23181233D02*
G75*
G02*
X94256367Y-22757620I0J423633D01*
G01*
X93832135Y-21681233D02*
G75*
G02*
X94256367Y-22105485I-35J-424267D01*
G01*
X113321147Y-22756824D02*
X113321147Y-22104927D01*
X106485436Y-21681233D02*
X112897453Y-21681233D01*
X120335436Y-23181233D02*
X113745556Y-23181233D01*
X112897453Y-21681233D02*
G75*
G02*
X113321167Y-22104927I47J-423667D01*
G01*
X113745556Y-23181233D02*
G75*
G02*
X113321167Y-22756824I44J424433D01*
G01*
X139385436Y-23181233D02*
X133826148Y-23181233D01*
X132978937Y-21681233D02*
X125535436Y-21681233D01*
X133402586Y-22757673D02*
X133402584Y-22104879D01*
X133826148Y-23181233D02*
G75*
G02*
X133402567Y-22757673I-48J423533D01*
G01*
X133402584Y-22104879D02*
G75*
G03*
X132978937Y-21681216I-423684J-21D01*
G01*
X152247936Y-22757900D02*
X152247936Y-22104902D01*
X151824267Y-21681233D02*
X144585436Y-21681233D01*
X158435436Y-23181233D02*
X152671269Y-23181233D01*
X152247936Y-22104902D02*
G75*
G03*
X151824267Y-21681264I-423636J2D01*
G01*
X152671269Y-23181233D02*
G75*
G02*
X152247967Y-22757900I31J423333D01*
G01*
X171675199Y-23181233D02*
X177485436Y-23181233D01*
X163635436Y-21681233D02*
X170827754Y-21681233D01*
X171251491Y-22104980D02*
X171251476Y-22757501D01*
X170827754Y-21681233D02*
G75*
G02*
X171251567Y-22104980I46J-423767D01*
G01*
X171251476Y-22757501D02*
G75*
G03*
X171675199Y-23181224I423724J1D01*
G01*
X190347936Y-22105059D02*
X190347936Y-22757873D01*
X182685436Y-21681233D02*
X189924110Y-21681233D01*
X190771296Y-23181233D02*
X196535436Y-23181233D01*
X190347936Y-22757873D02*
G75*
G03*
X190771296Y-23181264I423364J-27D01*
G01*
X189924110Y-21681233D02*
G75*
G02*
X190347967Y-22105059I-10J-423867D01*
G01*
X201735436Y-21681233D02*
X209124172Y-21681233D01*
X209972300Y-23181233D02*
X215585436Y-23181233D01*
X209547936Y-22104997D02*
X209547936Y-22756869D01*
X209547936Y-22756869D02*
G75*
G03*
X209972300Y-23181264I424364J-31D01*
G01*
X209124172Y-21681233D02*
G75*
G02*
X209547967Y-22104997I28J-423767D01*
G01*
X220785436Y-21681233D02*
X230000564Y-21681233D01*
X230424485Y-22105154D02*
X230424485Y-22757636D01*
X239397936Y-23181233D02*
X230848082Y-23181233D01*
X230848082Y-23181233D02*
G75*
G02*
X230424467Y-22757636I18J423633D01*
G01*
X230000564Y-21681233D02*
G75*
G02*
X230424567Y-22105154I36J-423967D01*
G01*
X250724375Y-40731233D02*
X246979236Y-40731233D01*
X244597936Y-21681233D02*
X250724400Y-21681233D01*
X251147936Y-22104769D02*
X251147936Y-40307672D01*
X250724400Y-21681233D02*
G75*
G02*
X251147967Y-22104769I0J-423567D01*
G01*
X251147936Y-40307672D02*
G75*
G02*
X250724375Y-40731236I-423536J-28D01*
G01*
X241779236Y-42231233D02*
X239472108Y-42231233D01*
X229805219Y-40731233D02*
X225547936Y-40731233D01*
X239047936Y-41807061D02*
X239047936Y-28876966D01*
X230229036Y-28876715D02*
X230229036Y-40307416D01*
X238624167Y-28453197D02*
X230652554Y-28453197D01*
X239472108Y-42231233D02*
G75*
G02*
X239047967Y-41807061I-8J424133D01*
G01*
X230229036Y-40307416D02*
G75*
G02*
X229805219Y-40731236I-423836J16D01*
G01*
X230652554Y-28453197D02*
G75*
G03*
X230229097Y-28876715I46J-423503D01*
G01*
X239047936Y-28876966D02*
G75*
G03*
X238624167Y-28453264I-423736J-34D01*
G01*
X220347936Y-42231233D02*
X214724085Y-42231233D01*
X214300448Y-41154690D02*
X214300448Y-41807596D01*
X206497936Y-40731233D02*
X213876991Y-40731233D01*
X213876991Y-40731233D02*
G75*
G02*
X214300467Y-41154690I9J-423467D01*
G01*
X214724085Y-42231233D02*
G75*
G02*
X214300467Y-41807596I15J423633D01*
G01*
X196360633Y-40731233D02*
X187447936Y-40731233D01*
X201297936Y-42231233D02*
X197208722Y-42231233D01*
X196784574Y-41155174D02*
X196784574Y-41807085D01*
X197208722Y-42231233D02*
G75*
G02*
X196784567Y-41807085I-22J424133D01*
G01*
X196784574Y-41155174D02*
G75*
G03*
X196360633Y-40731226I-423974J-26D01*
G01*
X177024081Y-28670915D02*
X169872200Y-28670915D01*
X182247936Y-42231233D02*
X177871970Y-42231233D01*
X177447936Y-41807199D02*
X177447936Y-29094770D01*
X169447936Y-40731233D02*
X168397936Y-40731233D01*
X169447936Y-29095179D02*
X169447936Y-40731233D01*
X177447936Y-29094770D02*
G75*
G03*
X177024081Y-28670964I-423836J-30D01*
G01*
X177871970Y-42231233D02*
G75*
G02*
X177447967Y-41807199I30J424033D01*
G01*
X169872200Y-28670915D02*
G75*
G03*
X169447915Y-29095179I0J-424285D01*
G01*
X157747936Y-41807798D02*
X157747936Y-41154968D01*
X157324201Y-40731233D02*
X149347936Y-40731233D01*
X163197936Y-42231233D02*
X158171371Y-42231233D01*
X158171371Y-42231233D02*
G75*
G02*
X157747967Y-41807798I29J423433D01*
G01*
X157747936Y-41154968D02*
G75*
G03*
X157324201Y-40731264I-423736J-32D01*
G01*
X139047936Y-41807901D02*
X139047936Y-28989505D01*
X144147936Y-42231233D02*
X139471268Y-42231233D01*
X131375951Y-28989168D02*
X131375951Y-40731233D01*
X138623804Y-28565373D02*
X131799746Y-28565373D01*
X131375951Y-40731233D02*
X130297936Y-40731233D01*
X131799746Y-28565373D02*
G75*
G03*
X131375873Y-28989168I-46J-423827D01*
G01*
X139047936Y-28989505D02*
G75*
G03*
X138623804Y-28565364I-424136J5D01*
G01*
X139471268Y-42231233D02*
G75*
G02*
X139047967Y-41807901I32J423333D01*
G01*
X112074836Y-28922518D02*
X112074836Y-40731233D01*
X112074836Y-40731233D02*
X111247936Y-40731233D01*
X119524571Y-28498806D02*
X112498548Y-28498806D01*
X125097936Y-42231233D02*
X120371541Y-42231233D01*
X119947936Y-41807628D02*
X119947936Y-28922171D01*
X112498548Y-28498806D02*
G75*
G03*
X112074806Y-28922518I-48J-423694D01*
G01*
X119947936Y-28922171D02*
G75*
G03*
X119524571Y-28498864I-423336J-29D01*
G01*
X120371541Y-42231233D02*
G75*
G02*
X119947867Y-41807628I-41J423633D01*
G01*
X100447936Y-41154696D02*
X100447936Y-41808310D01*
X92197936Y-40731233D02*
X100024473Y-40731233D01*
X100870859Y-42231233D02*
X106047936Y-42231233D01*
X100024473Y-40731233D02*
G75*
G02*
X100447967Y-41154696I27J-423467D01*
G01*
X100447936Y-41808310D02*
G75*
G03*
X100870859Y-42231264I422964J10D01*
G01*
X81938575Y-41807713D02*
X81938575Y-28659085D01*
X74308516Y-28659638D02*
X74308516Y-30710444D01*
X81515106Y-28235616D02*
X74732538Y-28235616D01*
X73147940Y-31993758D02*
X73147936Y-31993762D01*
X73147940Y-31558687D02*
X73147940Y-31993758D01*
X73147936Y-31993762D02*
X73147936Y-40731233D01*
X86997936Y-42231233D02*
X82362095Y-42231233D01*
X73884266Y-31134694D02*
X73571968Y-31134681D01*
X73571968Y-31134681D02*
G75*
G03*
X73147981Y-31558687I32J-424019D01*
G01*
X82362095Y-42231233D02*
G75*
G02*
X81938567Y-41807713I5J423533D01*
G01*
X74732538Y-28235616D02*
G75*
G03*
X74308516Y-28659638I-38J-423984D01*
G01*
X74308516Y-30710444D02*
G75*
G02*
X73884266Y-31134616I-424216J44D01*
G01*
X81938575Y-28659085D02*
G75*
G03*
X81515106Y-28235625I-423475J-15D01*
G01*
X63517546Y-40731233D02*
X54097936Y-40731233D01*
X63941436Y-41807361D02*
X63941436Y-41155123D01*
X67947936Y-42231233D02*
X64365308Y-42231233D01*
X63941436Y-41155123D02*
G75*
G03*
X63517546Y-40731164I-423936J23D01*
G01*
X64365308Y-42231233D02*
G75*
G02*
X63941467Y-41807361I-8J423833D01*
G01*
X48498067Y-42231233D02*
X48897936Y-42231233D01*
X36594791Y-53558198D02*
X48074636Y-53558198D01*
X32666736Y-40731233D02*
X35747306Y-40731233D01*
X36171036Y-41154963D02*
X36171036Y-53134443D01*
X48498067Y-53134767D02*
X48498067Y-42231233D01*
X48074636Y-53558198D02*
G75*
G03*
X48497998Y-53134767I-36J423398D01*
G01*
X35747306Y-40731233D02*
G75*
G02*
X36171067Y-41154963I-6J-423767D01*
G01*
X36171036Y-53134443D02*
G75*
G03*
X36594791Y-53558164I423764J43D01*
G01*
X27047936Y-42231233D02*
X27466736Y-42231233D01*
X27047936Y-60857469D02*
X27047936Y-42231233D01*
X32229236Y-61281233D02*
X27471700Y-61281233D01*
X27471700Y-61281233D02*
G75*
G02*
X27047967Y-60857469I0J423733D01*
G01*
X53553320Y-58221611D02*
X37853026Y-58221611D01*
X58422936Y-61281233D02*
X54400392Y-61281233D01*
X53977275Y-60858116D02*
X53977275Y-58645566D01*
X37429236Y-58645401D02*
X37429236Y-59781233D01*
X53977275Y-58645566D02*
G75*
G03*
X53553320Y-58221625I-423975J-34D01*
G01*
X37853026Y-58221611D02*
G75*
G03*
X37429211Y-58645401I-26J-423789D01*
G01*
X54400392Y-61281233D02*
G75*
G02*
X53977267Y-60858116I8J423133D01*
G01*
X71992761Y-60205062D02*
X71992761Y-60857800D01*
X77472936Y-61281233D02*
X72416194Y-61281233D01*
X63622936Y-59781233D02*
X71568932Y-59781233D01*
X72416194Y-61281233D02*
G75*
G02*
X71992767Y-60857800I6J423433D01*
G01*
X71568932Y-59781233D02*
G75*
G02*
X71992767Y-60205062I-32J-423867D01*
G01*
X82672936Y-59781233D02*
X91798725Y-59781233D01*
X92222530Y-60205038D02*
X92222530Y-60856694D01*
X96522936Y-61281233D02*
X92647069Y-61281233D01*
X92647069Y-61281233D02*
G75*
G02*
X92222567Y-60856694I31J424533D01*
G01*
X91798725Y-59781233D02*
G75*
G02*
X92222467Y-60205038I-25J-423767D01*
G01*
X115572936Y-61281233D02*
X110971938Y-61281233D01*
X110124451Y-59781233D02*
X101722936Y-59781233D01*
X110547936Y-60857231D02*
X110547936Y-60204718D01*
X110547936Y-60204718D02*
G75*
G03*
X110124451Y-59781264I-423436J18D01*
G01*
X110971938Y-61281233D02*
G75*
G02*
X110547867Y-60857231I-38J424033D01*
G01*
X134622936Y-61281233D02*
X130283935Y-61281233D01*
X129860135Y-60205038D02*
X129860135Y-60857433D01*
X120772936Y-59781233D02*
X129436330Y-59781233D01*
X130283935Y-61281233D02*
G75*
G02*
X129860067Y-60857433I-35J423833D01*
G01*
X129436330Y-59781233D02*
G75*
G02*
X129860067Y-60205038I-30J-423767D01*
G01*
X146707185Y-60857102D02*
X146707185Y-60205085D01*
X153672936Y-61281233D02*
X147131316Y-61281233D01*
X139822936Y-59781233D02*
X146283333Y-59781233D01*
X146283333Y-59781233D02*
G75*
G02*
X146707167Y-60205085I-33J-423867D01*
G01*
X147131316Y-61281233D02*
G75*
G02*
X146707167Y-60857102I-16J424133D01*
G01*
X165751008Y-60857147D02*
X165751008Y-60204769D01*
X158872936Y-59781233D02*
X165327472Y-59781233D01*
X172722936Y-61281233D02*
X166175094Y-61281233D01*
X166175094Y-61281233D02*
G75*
G02*
X165750967Y-60857147I6J424133D01*
G01*
X165327472Y-59781233D02*
G75*
G02*
X165751067Y-60204769I28J-423567D01*
G01*
X191772936Y-61281233D02*
X187771344Y-61281233D01*
X186924389Y-59781233D02*
X177922936Y-59781233D01*
X187347936Y-60857825D02*
X187347936Y-60204780D01*
X187347936Y-60204780D02*
G75*
G03*
X186924389Y-59781264I-423536J-20D01*
G01*
X187771344Y-61281233D02*
G75*
G02*
X187347867Y-60857825I-44J423433D01*
G01*
X210822936Y-61281233D02*
X206371926Y-61281233D01*
X205947936Y-60857243D02*
X205947936Y-60204015D01*
X205525154Y-59781233D02*
X196972936Y-59781233D01*
X206371926Y-61281233D02*
G75*
G02*
X205947867Y-60857243I-26J424033D01*
G01*
X205947936Y-60204015D02*
G75*
G03*
X205525154Y-59781264I-422736J15D01*
G01*
X223612527Y-61281233D02*
X237016736Y-61281233D01*
X223188136Y-60205127D02*
X223188136Y-60856842D01*
X216022936Y-59781233D02*
X222764242Y-59781233D01*
X223188136Y-60856842D02*
G75*
G03*
X223612527Y-61281164I424364J42D01*
G01*
X222764242Y-59781233D02*
G75*
G02*
X223188067Y-60205127I-42J-423867D01*
G01*
X244996800Y-59781233D02*
X242216736Y-59781233D01*
X218965536Y-78831233D02*
X244997476Y-78831233D01*
X245420377Y-78408332D02*
X245420377Y-60204810D01*
X244997476Y-78831233D02*
G75*
G03*
X245420433Y-78408332I24J422933D01*
G01*
X245420377Y-60204810D02*
G75*
G03*
X244996800Y-59781223I-423577J10D01*
G01*
X213765536Y-80331233D02*
X204837738Y-80331233D01*
X203560620Y-79802233D02*
X194077036Y-79802233D01*
X204837738Y-80331233D02*
G75*
G02*
X204220239Y-80075476I-38J873233D01*
G01*
X204220253Y-80075462D02*
G75*
G03*
X203560620Y-79802220I-659653J-659638D01*
G01*
X188994436Y-81661233D02*
X166717984Y-81661233D01*
X166294736Y-82084481D02*
X166294736Y-82575133D01*
X166717984Y-81661233D02*
G75*
G03*
X166294733Y-82084481I16J-423267D01*
G01*
X157375278Y-80574226D02*
X157375278Y-84421109D01*
X157792027Y-84784284D02*
X161354119Y-84784284D01*
X120815149Y-80562505D02*
X120815145Y-82849226D01*
X120390837Y-83273533D02*
X113148736Y-83273533D01*
X157792023Y-84784288D02*
X157792027Y-84784284D01*
X157397145Y-80552359D02*
X157375278Y-80574226D01*
X157375278Y-84421109D02*
G75*
G03*
X157792023Y-84784315I418422J59409D01*
G01*
X120815145Y-82849226D02*
G75*
G02*
X120390837Y-83273545I-424345J26D01*
G01*
X85333236Y-75753990D02*
X85333236Y-80203333D01*
X103041736Y-83611223D02*
X103041736Y-75753252D01*
X102617981Y-75329497D02*
X85757729Y-75329497D01*
X107790536Y-84035333D02*
X103465846Y-84035333D01*
X85757729Y-75329497D02*
G75*
G03*
X85333197Y-75753990I-29J-424503D01*
G01*
X103465846Y-84035333D02*
G75*
G02*
X103041667Y-83611223I-46J424133D01*
G01*
X103041736Y-75753252D02*
G75*
G03*
X102617981Y-75329564I-423736J-48D01*
G01*
X80041236Y-81336933D02*
X77389215Y-81336933D01*
X76541067Y-75658533D02*
X60848421Y-75658533D01*
X60424736Y-76082218D02*
X60424736Y-78831233D01*
X76965036Y-80912754D02*
X76965036Y-76082502D01*
X60848421Y-75658533D02*
G75*
G03*
X60424733Y-76082218I-21J-423667D01*
G01*
X76965036Y-76082502D02*
G75*
G03*
X76541067Y-75658564I-423936J2D01*
G01*
X77389215Y-81336933D02*
G75*
G02*
X76965067Y-80912754I-15J424133D01*
G01*
X19222936Y-31275033D02*
X19103428Y-31397939D01*
X133946141Y-35536533D02*
X137862069Y-35536533D01*
X39728828Y-74417933D02*
X38945333Y-74417933D01*
X18328236Y-37684667D02*
X18328236Y-33435029D01*
X138285436Y-55234632D02*
X138285436Y-50325033D01*
X26366736Y-69375033D02*
X26366736Y-73994512D01*
X44129436Y-60093933D02*
X41594821Y-60093933D01*
X26790157Y-74417933D02*
X38945333Y-74417933D01*
X147810436Y-65320528D02*
X147810436Y-69375033D01*
X40747298Y-74417933D02*
X39728828Y-74417933D01*
X18374589Y-37638314D02*
X18328236Y-37684667D01*
X133522936Y-31275033D02*
X133522936Y-35113328D01*
X39335436Y-84606233D02*
X39335436Y-74811336D01*
X138288437Y-55237633D02*
X138285436Y-55234632D01*
X21604236Y-68951613D02*
X21604236Y-50325033D01*
X26366736Y-69375033D02*
X22027656Y-69375033D01*
X39728828Y-74417933D02*
X39728824Y-74417937D01*
X18751568Y-50325033D02*
X21604236Y-50325033D01*
X18328236Y-37684667D02*
X18328236Y-49901701D01*
X145448385Y-64896607D02*
X147386564Y-64896647D01*
X41171036Y-60517718D02*
X41171036Y-73994195D01*
X39335436Y-74811336D02*
X39335436Y-74808036D01*
X138285436Y-35959900D02*
X138285436Y-50325033D01*
X147386564Y-64896647D02*
G75*
G02*
X147810453Y-65320528I36J-423853D01*
G01*
X41171036Y-73994195D02*
G75*
G02*
X40747298Y-74417936I-423736J-5D01*
G01*
X41594821Y-60093933D02*
G75*
G03*
X41171033Y-60517718I-21J-423767D01*
G01*
X137862069Y-35536533D02*
G75*
G02*
X138285467Y-35959900I31J-423367D01*
G01*
X39728824Y-74417937D02*
G75*
G03*
X39335437Y-74811336I-24J-393363D01*
G01*
X22027656Y-69375033D02*
G75*
G02*
X21604267Y-68951613I44J423433D01*
G01*
X19103428Y-31397939D02*
G75*
G03*
X18374574Y-32880155I2296272J-2049461D01*
G01*
X26366736Y-73994512D02*
G75*
G03*
X26790157Y-74417964I423464J12D01*
G01*
X18328236Y-33435029D02*
G75*
G02*
X19222937Y-31275034I3054694J-1D01*
G01*
X18328236Y-49901701D02*
G75*
G03*
X18751568Y-50325064I423364J1D01*
G01*
X133522936Y-35113328D02*
G75*
G03*
X133946141Y-35536464I423164J28D01*
G01*
X39335436Y-74808036D02*
G75*
G03*
X38945333Y-74417864I-390136J36D01*
G01*
X24835436Y-84606233D02*
X15180104Y-84606233D01*
X15180474Y-21392733D02*
X22984369Y-21392733D01*
X14756336Y-84182465D02*
X14756336Y-21816871D01*
X23408236Y-21816600D02*
X23408236Y-22444633D01*
X22984369Y-21392733D02*
G75*
G02*
X23408267Y-21816600I31J-423867D01*
G01*
X14756336Y-21816871D02*
G75*
G02*
X15180474Y-21392736I424164J-29D01*
G01*
X15180104Y-84606233D02*
G75*
G02*
X14756367Y-84182465I-4J423733D01*
G01*
X25948236Y-21413884D02*
X25948236Y-22444633D01*
X24835436Y-89606233D02*
X14756999Y-89606233D01*
X14758997Y-20989933D02*
X25524285Y-20989933D01*
X14333536Y-89182770D02*
X14333536Y-21415394D01*
X14756999Y-89606233D02*
G75*
G02*
X14333567Y-89182770I1J423433D01*
G01*
X25524285Y-20989933D02*
G75*
G02*
X25948267Y-21413884I15J-423967D01*
G01*
X14333536Y-21415394D02*
G75*
G02*
X14758997Y-20989936I425464J-6D01*
G01*
X153423236Y-31275033D02*
X152572936Y-31275033D01*
X156773936Y-78124623D02*
X156773936Y-93626733D01*
X166860436Y-65212465D02*
X166860436Y-69375033D01*
X42821836Y-37213333D02*
X38696482Y-37213333D01*
X165929346Y-64788139D02*
X166436120Y-64788144D01*
X43035436Y-50325033D02*
X42821836Y-50325033D01*
X157335436Y-56729151D02*
X157343166Y-56736881D01*
X49474736Y-88425033D02*
X49474736Y-64769933D01*
X172481323Y-43724065D02*
X157760393Y-43724065D01*
X33871036Y-36208804D02*
X33871036Y-29249155D01*
X38272936Y-36789787D02*
X38272936Y-31275033D01*
X49474736Y-64769933D02*
X52136446Y-64769933D01*
X157335436Y-44149022D02*
X157335436Y-50325033D01*
X34294097Y-28826126D02*
X37848733Y-28826126D01*
X52560436Y-65193923D02*
X52560436Y-69375033D01*
X157335436Y-50325033D02*
X157335436Y-56729151D01*
X38272936Y-29250329D02*
X38272936Y-31275033D01*
X20868236Y-37684667D02*
X20868216Y-37056416D01*
X21291885Y-36632733D02*
X33447107Y-36632733D01*
X33871036Y-29249155D02*
X33871051Y-29249140D01*
X153423236Y-37213333D02*
X153423236Y-31275033D01*
X163447936Y-69443477D02*
X163447936Y-77276910D01*
X163024113Y-77700733D02*
X157197826Y-77700733D01*
X42821836Y-50325033D02*
X42821836Y-37213333D01*
X172904110Y-37201355D02*
X172904110Y-43301278D01*
X166436120Y-64788144D02*
G75*
G02*
X166860456Y-65212465I-20J-424356D01*
G01*
X163447936Y-77276910D02*
G75*
G02*
X163024113Y-77700736I-423836J10D01*
G01*
X157197826Y-77700733D02*
G75*
G03*
X156773933Y-78124623I-26J-423867D01*
G01*
X37848733Y-28826126D02*
G75*
G02*
X38272874Y-29250329I-33J-424174D01*
G01*
X33871051Y-29249140D02*
G75*
G02*
X34294097Y-28826151I423049J-60D01*
G01*
X157760393Y-43724065D02*
G75*
G03*
X157335465Y-44149022I7J-424935D01*
G01*
X20868216Y-37056416D02*
G75*
G02*
X21291885Y-36632716I423684J16D01*
G01*
X33447107Y-36632733D02*
G75*
G03*
X33871033Y-36208804I-7J423933D01*
G01*
X172904110Y-43301278D02*
G75*
G02*
X172481323Y-43724110I-422810J-22D01*
G01*
X38696482Y-37213333D02*
G75*
G02*
X38272967Y-36789787I18J423533D01*
G01*
X52136446Y-64769933D02*
G75*
G02*
X52560367Y-65193923I-46J-423967D01*
G01*
X185910436Y-69375033D02*
X185910436Y-61885433D01*
X176385427Y-48135355D02*
X176385427Y-47341743D01*
X176783227Y-47737533D02*
X176781235Y-47737533D01*
X176385427Y-47341743D02*
X176385436Y-47341734D01*
X57671036Y-44106732D02*
X57671036Y-56512233D01*
X70774836Y-69375033D02*
X70774836Y-61196533D01*
X62047936Y-43683166D02*
X62047936Y-50287533D01*
X62047936Y-43683166D02*
X58094602Y-43683166D01*
X171622936Y-34114110D02*
X171622936Y-31275033D01*
X23823469Y-39261542D02*
X35265909Y-39261542D01*
X71610436Y-73117998D02*
X71610436Y-69375033D01*
X57322936Y-31275033D02*
X57322936Y-38450333D01*
X71620555Y-73128117D02*
X71610436Y-73117998D01*
X176385436Y-48135364D02*
X176385427Y-48135355D01*
X183807636Y-96620116D02*
X183807636Y-90192433D01*
X181830646Y-48160436D02*
X181830646Y-49547554D01*
X176385436Y-50325033D02*
X176385436Y-48135364D01*
X176385436Y-47341734D02*
X176385436Y-34961340D01*
X73357436Y-88617812D02*
X73357436Y-77096609D01*
X153865793Y-97043701D02*
X183384051Y-97043701D01*
X71610436Y-69375033D02*
X70774836Y-69375033D01*
X175961629Y-34537533D02*
X172046359Y-34537533D01*
X176783227Y-47737533D02*
X181407743Y-47737533D01*
X153442280Y-77095175D02*
X153442280Y-96620188D01*
X185910436Y-69375033D02*
X185910436Y-77100333D01*
X181830646Y-49547554D02*
X181833545Y-49550453D01*
X23398236Y-37684667D02*
X23398239Y-38836313D01*
X172046359Y-34537533D02*
G75*
G02*
X171622967Y-34114110I41J423433D01*
G01*
X35265909Y-39261542D02*
G75*
G02*
X36171691Y-39636742I-9J-1280958D01*
G01*
X176385436Y-34961340D02*
G75*
G03*
X175961629Y-34537464I-423836J40D01*
G01*
X176385427Y-48135355D02*
G75*
G02*
X176783227Y-47737527I397773J55D01*
G01*
X73753977Y-89014353D02*
G75*
G02*
X73357447Y-88617812I23J396553D01*
G01*
X23398239Y-38836313D02*
G75*
G03*
X23823469Y-39261561I425261J13D01*
G01*
X183384051Y-97043701D02*
G75*
G03*
X183807701Y-96620116I49J423601D01*
G01*
X181407743Y-47737533D02*
G75*
G02*
X181830567Y-48160436I-43J-422867D01*
G01*
X176781235Y-47737533D02*
G75*
G02*
X176385367Y-47341734I-35J395833D01*
G01*
X73357436Y-77096609D02*
G75*
G02*
X73374712Y-77079336I17264J9D01*
G01*
X62047936Y-50287533D02*
G75*
G03*
X62085436Y-50324964I37464J33D01*
G01*
X58094602Y-43683166D02*
G75*
G03*
X57671066Y-44106732I-2J-423534D01*
G01*
X153442280Y-96620188D02*
G75*
G03*
X153865793Y-97043720I423520J-12D01*
G01*
X195435436Y-52785733D02*
X195435436Y-50325033D01*
X76372936Y-31275033D02*
X76372936Y-38788913D01*
X81135436Y-50325033D02*
X81136136Y-50325033D01*
X74478372Y-39187762D02*
X74475392Y-39184782D01*
X100955636Y-76284333D02*
X100955636Y-91299233D01*
X75977737Y-39187762D02*
X76771785Y-39187762D01*
X75977731Y-39187768D02*
X75977737Y-39187762D01*
X75977737Y-39187762D02*
X74478372Y-39187762D01*
X81763236Y-50325033D02*
X81136136Y-50325033D01*
X81763236Y-54890116D02*
X81763236Y-50325033D01*
X204242236Y-69375033D02*
X204960436Y-69375033D01*
X206800436Y-83295767D02*
X206800436Y-88425033D01*
X206803474Y-83292729D02*
X206800436Y-83295767D01*
X76771791Y-39187768D02*
X80711978Y-39187768D01*
X206800436Y-88425033D02*
X208015536Y-88425033D01*
X76771785Y-39187762D02*
X76771791Y-39187768D01*
X81136136Y-39611926D02*
X81136136Y-50325033D01*
X74475392Y-39184782D02*
X74478378Y-39187768D01*
X90660436Y-69375033D02*
X91149836Y-69375033D01*
X204242236Y-61387533D02*
X204242236Y-69375033D01*
X195435436Y-50325033D02*
X194938836Y-50325033D01*
X91149836Y-69375033D02*
X91149836Y-73007033D01*
X90660436Y-61968833D02*
X90660436Y-69375033D01*
X194938836Y-50325033D02*
X194938836Y-42240133D01*
X204242236Y-69375033D02*
X204242236Y-76278724D01*
X204242236Y-76278724D02*
X204247845Y-76284333D01*
X190672936Y-37093169D02*
X190672936Y-31275033D01*
X75977737Y-39187762D02*
G75*
G03*
X76372862Y-38792556I-37J395162D01*
G01*
X76372936Y-38788913D02*
G75*
G03*
X76771791Y-39187764I398864J13D01*
G01*
X80711978Y-39187768D02*
G75*
G02*
X81136132Y-39611926I22J-424132D01*
G01*
X230533175Y-61981133D02*
X230523636Y-61990672D01*
X100046036Y-46870933D02*
X100046036Y-50185633D01*
X230523636Y-61990672D02*
X230523636Y-69375033D01*
X230523636Y-69375033D02*
X231154236Y-69375033D01*
X109710436Y-69375033D02*
X109216736Y-69375033D01*
X209722936Y-31275033D02*
X209722936Y-37931841D01*
X100185436Y-56326733D02*
X100187036Y-56326733D01*
X100185436Y-50325033D02*
X100185436Y-56326733D01*
X214485436Y-55560133D02*
X214485436Y-50325033D01*
X109216736Y-69375033D02*
X109216736Y-61897533D01*
X95422936Y-31275033D02*
X95422936Y-38448433D01*
X100046036Y-50185633D02*
G75*
G03*
X100185436Y-50324964I139364J33D01*
G01*
X144222985Y-74097382D02*
X144222985Y-90270414D01*
X119235436Y-38272875D02*
X119235436Y-50325033D01*
X235916736Y-50325033D02*
X235916736Y-54943791D01*
X248885436Y-55791113D02*
X248885436Y-84606233D01*
X233958767Y-50325033D02*
X235916736Y-50325033D01*
X114472936Y-37848433D02*
X118810994Y-37848433D01*
X236340478Y-55367533D02*
X248461856Y-55367533D01*
X233535436Y-31275033D02*
X233535436Y-49901702D01*
X119235436Y-50325033D02*
X119235436Y-55859533D01*
X114472936Y-31275033D02*
X114472936Y-37848433D01*
X144222936Y-90760148D02*
X144222985Y-90760197D01*
X128760436Y-69375033D02*
X128760436Y-61097133D01*
X144222936Y-74097333D02*
X144222985Y-74097382D01*
X233535436Y-49901702D02*
G75*
G03*
X233958767Y-50325064I423364J2D01*
G01*
X118810994Y-37848433D02*
G75*
G02*
X119235467Y-38272875I6J-424467D01*
G01*
X248461856Y-55367533D02*
G75*
G02*
X248885467Y-55791113I44J-423567D01*
G01*
X235916736Y-54943791D02*
G75*
G03*
X236340478Y-55367564I423764J-9D01*
G01*
X14355643Y-20588033D02*
X30604617Y-20588033D01*
X21168935Y-97648079D02*
X21167455Y-97646599D01*
X21167455Y-97646599D02*
X21167455Y-91331970D01*
X13931636Y-90484519D02*
X13931636Y-21012040D01*
X20743618Y-90908133D02*
X14355250Y-90908133D01*
X31028236Y-21011652D02*
X31028236Y-22444633D01*
X30604617Y-20588033D02*
G75*
G02*
X31028267Y-21011652I-17J-423667D01*
G01*
X13931636Y-21012040D02*
G75*
G02*
X14355643Y-20588036I423964J40D01*
G01*
X21167455Y-91331970D02*
G75*
G03*
X20743618Y-90908145I-423855J-30D01*
G01*
X14355250Y-90908133D02*
G75*
G02*
X13931667Y-90484519I50J423633D01*
G01*
X239985036Y-89182014D02*
X239985036Y-88031725D01*
X252674836Y-87183019D02*
X252674836Y-14932345D01*
X234385436Y-89606233D02*
X239560817Y-89606233D01*
X36092536Y-14933088D02*
X36092536Y-22444633D01*
X252251151Y-14508660D02*
X36516964Y-14508660D01*
X240410128Y-87606633D02*
X252251222Y-87606633D01*
X36516964Y-14508660D02*
G75*
G03*
X36092560Y-14933088I36J-424440D01*
G01*
X239560817Y-89606233D02*
G75*
G03*
X239985033Y-89182014I-17J424233D01*
G01*
X252251222Y-87606633D02*
G75*
G03*
X252674833Y-87183019I-22J423633D01*
G01*
X252674836Y-14932345D02*
G75*
G03*
X252251151Y-14508664I-423636J45D01*
G01*
X239985036Y-88031725D02*
G75*
G02*
X240410128Y-87606636I425064J25D01*
G01*
M02*
