M48
; DRILL file {KiCad 8.0.2-1} date 2024-07-03T19:51:00+0900
; FORMAT={-:-/ absolute / metric / decimal}
; #@! TF.CreationDate,2024-07-03T19:51:00+09:00
; #@! TF.GenerationSoftware,Kicad,Pcbnew,8.0.2-1
; #@! TF.FileFunction,NonPlated,1,2,NPTH
FMAT,2
METRIC
; #@! TA.AperFunction,NonPlated,NPTH,ComponentDrill
T1C3.000
; #@! TA.AperFunction,NonPlated,NPTH,ComponentDrill
T2C5.000
%
G90
G05
T1
X22.573Y-31.275
X24.954Y-50.325
X27.573Y-33.475
X29.717Y-69.375
X29.954Y-52.525
X34.717Y-71.575
X41.623Y-31.275
X46.385Y-50.325
X46.623Y-33.475
X51.385Y-52.525
X52.825Y-88.425
X55.91Y-69.375
X57.825Y-90.625
X60.673Y-31.275
X60.91Y-71.575
X65.435Y-50.325
X65.673Y-33.475
X70.435Y-52.525
X74.96Y-69.375
X77.096Y-89.248
X79.723Y-31.275
X79.96Y-71.575
X81.93Y-91.791
X84.485Y-50.325
X84.723Y-33.475
X89.485Y-52.525
X94.01Y-69.375
X98.773Y-31.275
X99.01Y-71.575
X103.535Y-50.325
X103.773Y-33.475
X104.273Y-91.765
X108.535Y-52.525
X108.918Y-94.64
X113.06Y-69.375
X117.823Y-31.275
X118.06Y-71.575
X122.585Y-50.325
X122.823Y-33.475
X127.585Y-52.525
X132.11Y-69.375
X136.873Y-31.275
X137.11Y-71.575
X141.635Y-50.325
X141.873Y-33.475
X146.635Y-52.525
X151.16Y-69.375
X155.923Y-31.275
X156.16Y-71.575
X160.091Y-93.16
X160.685Y-50.325
X160.923Y-33.475
X165.349Y-94.643
X165.685Y-52.525
X170.21Y-69.375
X174.973Y-31.275
X175.21Y-71.575
X179.735Y-50.325
X179.973Y-33.475
X184.735Y-52.525
X187.15Y-89.959
X189.26Y-69.375
X192.291Y-91.805
X194.023Y-31.275
X194.26Y-71.575
X198.785Y-50.325
X199.023Y-33.475
X203.785Y-52.525
X208.31Y-69.375
X211.366Y-88.425
X213.073Y-31.275
X213.31Y-71.575
X216.366Y-90.625
X217.835Y-50.325
X218.073Y-33.475
X222.835Y-52.525
X234.504Y-69.375
X236.885Y-31.275
X239.267Y-50.325
X239.504Y-71.575
X241.885Y-33.475
X244.267Y-52.525
T2
X27.573Y-27.575
X29.954Y-46.625
X34.717Y-65.675
X46.623Y-27.575
X51.385Y-46.625
X57.825Y-84.725
X60.91Y-65.675
X65.673Y-27.575
X70.435Y-46.625
X79.96Y-65.675
X82.342Y-85.906
X84.723Y-27.575
X89.485Y-46.625
X99.01Y-65.675
X103.773Y-27.575
X108.535Y-46.625
X109.739Y-88.797
X118.06Y-65.675
X122.823Y-27.575
X127.585Y-46.625
X137.11Y-65.675
X141.873Y-27.575
X146.635Y-46.625
X156.16Y-65.675
X160.923Y-27.575
X164.528Y-88.801
X165.685Y-46.625
X175.21Y-65.675
X179.973Y-27.575
X184.735Y-46.625
X191.879Y-85.919
X194.26Y-65.675
X199.023Y-27.575
X203.785Y-46.625
X213.31Y-65.675
X216.366Y-84.725
X218.073Y-27.575
X222.835Y-46.625
X239.504Y-65.675
X241.885Y-27.575
X244.267Y-46.625
M30
