M48
; DRILL file {KiCad 8.0.2-1} date 2024-07-03T19:51:00+0900
; FORMAT={-:-/ absolute / metric / decimal}
; #@! TF.CreationDate,2024-07-03T19:51:00+09:00
; #@! TF.GenerationSoftware,Kicad,Pcbnew,8.0.2-1
; #@! TF.FileFunction,Plated,1,2,PTH
FMAT,2
METRIC
; #@! TA.AperFunction,Plated,PTH,ViaDrill
T1C0.300
; #@! TA.AperFunction,Plated,PTH,ComponentDrill
T2C0.850
; #@! TA.AperFunction,Plated,PTH,ComponentDrill
T3C1.000
; #@! TA.AperFunction,Plated,PTH,ComponentDrill
T4C2.000
%
G90
G05
T1
X15.47Y-23.716
X16.408Y-29.663
X19.716Y-36.08
X21.169Y-97.648
X24.869Y-31.034
X31.603Y-25.992
X36.172Y-39.637
X40.571Y-61.287
X42.822Y-37.213
X43.743Y-46.201
X44.025Y-25.977
X44.076Y-19.594
X44.129Y-60.094
X46.669Y-44.479
X49.475Y-64.77
X51.1Y-74.216
X53.705Y-36.371
X57.323Y-38.45
X57.671Y-56.512
X62.048Y-43.683
X67.209Y-94.986
X68.433Y-62.765
X70.775Y-61.197
X71.621Y-73.128
X73.375Y-77.079
X73.748Y-35.658
X74.475Y-39.185
X76.659Y-54.89
X76.659Y-57.647
X81.763Y-54.89
X87.423Y-62.76
X90.66Y-61.969
X91.15Y-73.007
X92.123Y-36.269
X95.423Y-38.448
X96.787Y-54.638
X100.046Y-46.871
X100.187Y-56.327
X100.956Y-76.284
X109.217Y-61.898
X109.245Y-39.081
X111.123Y-36.269
X114.473Y-37.848
X116.125Y-54.637
X119.235Y-55.86
X120.815Y-80.563
X125.103Y-38.299
X125.424Y-62.759
X128.76Y-61.097
X130.121Y-36.269
X133.29Y-39.138
X138.288Y-55.238
X143.274Y-62.758
X144.223Y-74.097
X145.448Y-64.897
X146.474Y-27.137
X153.423Y-37.213
X153.442Y-77.095
X155.187Y-42.253
X157.343Y-56.737
X157.397Y-80.552
X160.174Y-62.75
X163.202Y-38.302
X163.448Y-69.443
X164.572Y-26.661
X165.929Y-64.788
X170.992Y-84.06
X172.304Y-39.138
X172.904Y-37.201
X174.351Y-54.635
X179.167Y-62.748
X181.834Y-49.55
X182.248Y-38.295
X183.781Y-24.725
X185.91Y-61.885
X185.91Y-77.1
X190.673Y-37.093
X194.939Y-42.24
X195.435Y-52.786
X197.067Y-54.633
X197.904Y-81.313
X198.282Y-62.75
X204.242Y-61.388
X204.248Y-76.284
X206.428Y-24.728
X206.803Y-83.293
X209.723Y-37.932
X210.996Y-45.738
X211.102Y-21.7
X214.485Y-55.56
X217.28Y-62.755
X224.655Y-32.875
X226.849Y-45.711
X227.44Y-38.255
X230.533Y-61.981
X240.523Y-31.195
X241.711Y-38.255
X241.775Y-53.101
X243.067Y-76.132
X243.477Y-62.761
X244.82Y-64.551
X247.08Y-76.132
X248.316Y-23.14
X248.979Y-44.938
T2
X15.808Y-22.445
X15.808Y-37.685
X18.328Y-22.445
X18.328Y-37.685
X20.868Y-22.445
X20.868Y-37.685
X23.398Y-37.685
X23.408Y-22.445
X25.948Y-22.445
X25.948Y-37.685
X28.488Y-22.445
X28.488Y-37.685
X31.028Y-22.445
X31.028Y-37.685
X33.568Y-22.445
X33.568Y-37.685
X36.093Y-22.445
X36.108Y-24.985
X36.108Y-27.525
X36.108Y-35.145
X36.108Y-37.685
T3
X24.835Y-84.606
X24.835Y-87.106
X24.835Y-89.606
X39.335Y-84.606
X39.335Y-89.606
X129.723Y-90.27
X129.723Y-92.77
X129.723Y-95.27
X144.223Y-90.27
X144.223Y-95.27
X234.385Y-84.606
X234.385Y-87.106
X234.385Y-89.606
X248.885Y-84.606
X248.885Y-89.606
T4
G00X31.935Y-81.506
M15
G01X32.735Y-81.506
M16
G05
G00X31.935Y-92.706
M15
G01X32.735Y-92.706
M16
G05
G00X136.823Y-87.17
M15
G01X137.623Y-87.17
M16
G05
G00X136.823Y-98.37
M15
G01X137.623Y-98.37
M16
G05
G00X241.485Y-81.506
M15
G01X242.285Y-81.506
M16
G05
G00X241.485Y-92.706
M15
G01X242.285Y-92.706
M16
G05
M30
