G04 #@! TF.GenerationSoftware,KiCad,Pcbnew,8.0.2-1*
G04 #@! TF.CreationDate,2024-07-03T19:49:39+09:00*
G04 #@! TF.ProjectId,lagoon,6c61676f-6f6e-42e6-9b69-6361645f7063,rev?*
G04 #@! TF.SameCoordinates,Original*
G04 #@! TF.FileFunction,Legend,Bot*
G04 #@! TF.FilePolarity,Positive*
%FSLAX46Y46*%
G04 Gerber Fmt 4.6, Leading zero omitted, Abs format (unit mm)*
G04 Created by KiCad (PCBNEW 8.0.2-1) date 2024-07-03 19:49:39*
%MOMM*%
%LPD*%
G01*
G04 APERTURE LIST*
%ADD10C,0.150000*%
%ADD11C,0.000000*%
G04 APERTURE END LIST*
D10*
G36*
X212150509Y-66474609D02*
G01*
X212487564Y-66474609D01*
X212677158Y-66438888D01*
X212726922Y-66411106D01*
X212801578Y-66296766D01*
X212797264Y-66259675D01*
X212713988Y-66146459D01*
X212653649Y-66108855D01*
X212475531Y-66051002D01*
X212386936Y-66044741D01*
X210861884Y-66044741D01*
X210672290Y-66080805D01*
X210622526Y-66108855D01*
X210547869Y-66222613D01*
X210552184Y-66259675D01*
X210635460Y-66373206D01*
X210695799Y-66411106D01*
X210873497Y-66468407D01*
X210962512Y-66474609D01*
X211300544Y-66474609D01*
X211615129Y-67884501D01*
X211681624Y-68001258D01*
X211781214Y-68076842D01*
X211949787Y-68140040D01*
X212099706Y-68155000D01*
X212296169Y-68124469D01*
X212386936Y-68076842D01*
X212467383Y-67964786D01*
X212465094Y-67884501D01*
X212150509Y-66474609D01*
G37*
G36*
X208933342Y-66904476D02*
G01*
X209014431Y-66904476D01*
X209107243Y-66904476D01*
X209302570Y-66924988D01*
X209383726Y-66952103D01*
X209526265Y-67037866D01*
X209557627Y-67066287D01*
X209643306Y-67178069D01*
X209656301Y-67204895D01*
X209698311Y-67322742D01*
X209828248Y-67891828D01*
X209899996Y-68012330D01*
X209994333Y-68079895D01*
X210172725Y-68142604D01*
X210311849Y-68155000D01*
X210508312Y-68125900D01*
X210599078Y-68080505D01*
X210680783Y-67966954D01*
X210677236Y-67894881D01*
X210407592Y-66702365D01*
X210334339Y-66582237D01*
X210238576Y-66513688D01*
X210067942Y-66450490D01*
X209918129Y-66435530D01*
X209722765Y-66464550D01*
X209659232Y-66491706D01*
X209552437Y-66595891D01*
X209541018Y-66639473D01*
X209501939Y-66639473D01*
X209360818Y-66546540D01*
X209189939Y-66482312D01*
X209178562Y-66479494D01*
X208979827Y-66445190D01*
X208798520Y-66435530D01*
X208610453Y-66473915D01*
X208544508Y-66510635D01*
X208470685Y-66627642D01*
X208477096Y-66673056D01*
X208554133Y-66788135D01*
X208632435Y-66837920D01*
X208811801Y-66895117D01*
X208933342Y-66904476D01*
G37*
G36*
X207600753Y-67887554D02*
G01*
X207666767Y-68003431D01*
X207766838Y-68078063D01*
X207935103Y-68140273D01*
X208084354Y-68155000D01*
X208280817Y-68124946D01*
X208371584Y-68078063D01*
X208453289Y-67961030D01*
X208449741Y-67887554D01*
X208180097Y-66681605D01*
X208113602Y-66565921D01*
X208014012Y-66491706D01*
X207845748Y-66429002D01*
X207696496Y-66414159D01*
X207499576Y-66444450D01*
X207409267Y-66491706D01*
X207326700Y-66608200D01*
X207330132Y-66681605D01*
X207600753Y-67887554D01*
G37*
G36*
X208045275Y-66085652D02*
G01*
X207974089Y-65971710D01*
X207882121Y-65912850D01*
X207697489Y-65858277D01*
X207572421Y-65849347D01*
X207374050Y-65874153D01*
X207280307Y-65912850D01*
X207190579Y-66027547D01*
X207195310Y-66085652D01*
X207273468Y-66201763D01*
X207361395Y-66255401D01*
X207539787Y-66307914D01*
X207678911Y-66318293D01*
X207871939Y-66293726D01*
X207963210Y-66255401D01*
X208049843Y-66142034D01*
X208045275Y-66085652D01*
G37*
G36*
X206423431Y-66415100D02*
G01*
X206600334Y-66481325D01*
X206717356Y-66568909D01*
X206783028Y-66688932D01*
X207182609Y-68471294D01*
X207185600Y-68544699D01*
X207103475Y-68661193D01*
X207013166Y-68708448D01*
X206816245Y-68738740D01*
X206666994Y-68723897D01*
X206498729Y-68661193D01*
X206399139Y-68586978D01*
X206332644Y-68471294D01*
X206225177Y-68013949D01*
X206175352Y-68013949D01*
X206045415Y-68095160D01*
X205879330Y-68135460D01*
X205705429Y-68151336D01*
X205550090Y-68155000D01*
X205518072Y-68154761D01*
X205313175Y-68139734D01*
X205120223Y-68093939D01*
X204982298Y-68035134D01*
X204841786Y-67943729D01*
X204763498Y-67869281D01*
X204681563Y-67753220D01*
X204651509Y-67691539D01*
X204610244Y-67567595D01*
X204492560Y-67024766D01*
X205353719Y-67024766D01*
X205359856Y-67085531D01*
X205381074Y-67208558D01*
X205409406Y-67346556D01*
X205422741Y-67405138D01*
X205463140Y-67528517D01*
X205542274Y-67645143D01*
X205666350Y-67706814D01*
X205859790Y-67725132D01*
X205938323Y-67721304D01*
X206091332Y-67645143D01*
X206107697Y-67549583D01*
X206090355Y-67422882D01*
X206028806Y-67132233D01*
X205998853Y-67028683D01*
X205930132Y-66909972D01*
X205859515Y-66858995D01*
X205662442Y-66826318D01*
X205476817Y-66844637D01*
X205379120Y-66906919D01*
X205353719Y-67024766D01*
X204492560Y-67024766D01*
X204492030Y-67022323D01*
X204487562Y-67000969D01*
X204475422Y-66876999D01*
X204481462Y-66792651D01*
X204529155Y-66667561D01*
X204606006Y-66572884D01*
X204746043Y-66478883D01*
X204834886Y-66442819D01*
X205022754Y-66406191D01*
X205223782Y-66396451D01*
X205367259Y-66401087D01*
X205567676Y-66424539D01*
X205682897Y-66451530D01*
X205843182Y-66522847D01*
X205893984Y-66522847D01*
X205897141Y-66519357D01*
X206037599Y-66431866D01*
X206055216Y-66425537D01*
X206247648Y-66396451D01*
X206423431Y-66415100D01*
G37*
G36*
X203345066Y-67887554D02*
G01*
X203410771Y-68003431D01*
X203510174Y-68078063D01*
X203678747Y-68140273D01*
X203828667Y-68155000D01*
X204025129Y-68124946D01*
X204115896Y-68078063D01*
X204197601Y-67961030D01*
X204194054Y-67887554D01*
X203811081Y-66192508D01*
X203745376Y-66077125D01*
X203645973Y-66002609D01*
X203477400Y-65939905D01*
X203327480Y-65925062D01*
X203131399Y-65955354D01*
X203041228Y-66002609D01*
X202958661Y-66119379D01*
X202962093Y-66192508D01*
X203345066Y-67887554D01*
G37*
G36*
X201595061Y-66402392D02*
G01*
X201806626Y-66425789D01*
X202006615Y-66471556D01*
X202095081Y-66501459D01*
X202265311Y-66578179D01*
X202406196Y-66671224D01*
X202470410Y-66727061D01*
X202572052Y-66839284D01*
X202645554Y-66952714D01*
X202684755Y-67031864D01*
X202733024Y-67153165D01*
X202768653Y-67277557D01*
X202782208Y-67344924D01*
X202796863Y-67469870D01*
X202793497Y-67594832D01*
X202760837Y-67725132D01*
X202736446Y-67776742D01*
X202650481Y-67893903D01*
X202521479Y-67992578D01*
X202466753Y-68021015D01*
X202293219Y-68084461D01*
X202105289Y-68122027D01*
X201978771Y-68136452D01*
X201779836Y-68150363D01*
X201569909Y-68155000D01*
X201470990Y-68153807D01*
X201274863Y-68142787D01*
X201209406Y-68135689D01*
X201018897Y-68102487D01*
X201007009Y-68099325D01*
X200847927Y-68025551D01*
X200838630Y-68018932D01*
X200754138Y-67906482D01*
X200750966Y-67876644D01*
X200807871Y-67756273D01*
X200826372Y-67739815D01*
X201007173Y-67686053D01*
X201030621Y-67705593D01*
X201053091Y-67725132D01*
X201084904Y-67725132D01*
X201283656Y-67725132D01*
X201289946Y-67725132D01*
X201485889Y-67725132D01*
X201503676Y-67725062D01*
X201704864Y-67711341D01*
X201891332Y-67653080D01*
X201960209Y-67593632D01*
X201987076Y-67470509D01*
X201981214Y-67451580D01*
X200839134Y-67451580D01*
X200750024Y-67444961D01*
X200571444Y-67383803D01*
X200505365Y-67339176D01*
X200427829Y-67225045D01*
X200417125Y-67165418D01*
X200411343Y-67099870D01*
X201243600Y-67099870D01*
X201874724Y-67099870D01*
X201832592Y-67000694D01*
X201728178Y-66889211D01*
X201689286Y-66867837D01*
X201502498Y-66826318D01*
X201479855Y-66826871D01*
X201306127Y-66889211D01*
X201253859Y-66973017D01*
X201243600Y-67099870D01*
X200411343Y-67099870D01*
X200405949Y-67038729D01*
X200411221Y-66915467D01*
X200415108Y-66887723D01*
X200453683Y-66766341D01*
X200532365Y-66651074D01*
X200552710Y-66629838D01*
X200682254Y-66535734D01*
X200844996Y-66466060D01*
X201004685Y-66426429D01*
X201197622Y-66403249D01*
X201401870Y-66396451D01*
X201595061Y-66402392D01*
G37*
G36*
X198413276Y-66059584D02*
G01*
X198582330Y-66122288D01*
X198681920Y-66196503D01*
X198748415Y-66312187D01*
X199102079Y-67887554D01*
X199105626Y-67961030D01*
X199023921Y-68078063D01*
X198933155Y-68124946D01*
X198736692Y-68155000D01*
X198597568Y-68142504D01*
X198419176Y-68079284D01*
X198324839Y-68012021D01*
X198253091Y-67893049D01*
X198202288Y-67686053D01*
X197847648Y-67686053D01*
X197712826Y-68006622D01*
X197711001Y-68010906D01*
X197600474Y-68115310D01*
X197578538Y-68124612D01*
X197386517Y-68155000D01*
X197278966Y-68146918D01*
X197099288Y-68086612D01*
X197020519Y-68030226D01*
X196952742Y-67915642D01*
X196949811Y-67870457D01*
X196958604Y-67827714D01*
X197060209Y-67571259D01*
X197054347Y-67535844D01*
X196930940Y-67471159D01*
X196796209Y-67368535D01*
X196702637Y-67258018D01*
X196681589Y-67225265D01*
X196619612Y-67109345D01*
X196570229Y-66983049D01*
X196536552Y-66860512D01*
X196519836Y-66780788D01*
X196514974Y-66739002D01*
X197359895Y-66739002D01*
X197374794Y-66865397D01*
X197400851Y-66961310D01*
X197465652Y-67083384D01*
X197481268Y-67102465D01*
X197603405Y-67201842D01*
X197768513Y-67248859D01*
X197943391Y-67256186D01*
X198100683Y-67256186D01*
X197937529Y-66474609D01*
X197780237Y-66474609D01*
X197608290Y-66482547D01*
X197459790Y-66529563D01*
X197455919Y-66532043D01*
X197371863Y-66645579D01*
X197359895Y-66739002D01*
X196514974Y-66739002D01*
X196504884Y-66652274D01*
X196508220Y-66524678D01*
X196510662Y-66506146D01*
X196548276Y-66385765D01*
X196635226Y-66268224D01*
X196649347Y-66254983D01*
X196794183Y-66162972D01*
X196967397Y-66102749D01*
X197154746Y-66067401D01*
X197363414Y-66049330D01*
X197560418Y-66044741D01*
X198263838Y-66044741D01*
X198413276Y-66059584D01*
G37*
G36*
X194946917Y-66396533D02*
G01*
X195159255Y-66406408D01*
X195350986Y-66432740D01*
X195538087Y-66480715D01*
X195659171Y-66525404D01*
X195820417Y-66603170D01*
X195957208Y-66693817D01*
X196035122Y-66760182D01*
X196134590Y-66865884D01*
X196213175Y-66978970D01*
X196239879Y-67027154D01*
X196296362Y-67149780D01*
X196336273Y-67277557D01*
X196345647Y-67322697D01*
X196357935Y-67452260D01*
X196350928Y-67576755D01*
X196344638Y-67615099D01*
X196300507Y-67742542D01*
X196221967Y-67859466D01*
X196184940Y-67898288D01*
X196054361Y-67995727D01*
X195897613Y-68071346D01*
X195733317Y-68118973D01*
X195534618Y-68146830D01*
X195324131Y-68155000D01*
X195301704Y-68154918D01*
X195088984Y-68145115D01*
X194897253Y-68118973D01*
X194710593Y-68071346D01*
X194589509Y-68026505D01*
X194428263Y-67949082D01*
X194291472Y-67859466D01*
X194222596Y-67802318D01*
X194114778Y-67689211D01*
X194038436Y-67576755D01*
X194012295Y-67528395D01*
X193956829Y-67405451D01*
X193917292Y-67277557D01*
X193907918Y-67232432D01*
X193896660Y-67113914D01*
X194735994Y-67113914D01*
X194738314Y-67154138D01*
X194755533Y-67277557D01*
X194764937Y-67319155D01*
X194806336Y-67441200D01*
X194819514Y-67470638D01*
X194893286Y-67585303D01*
X194900114Y-67593143D01*
X195029085Y-67687274D01*
X195034184Y-67689604D01*
X195222526Y-67725132D01*
X195397404Y-67687274D01*
X195487285Y-67585303D01*
X195495166Y-67564880D01*
X195514640Y-67441200D01*
X195513602Y-67400976D01*
X195498032Y-67277557D01*
X195488506Y-67235959D01*
X195445275Y-67113914D01*
X195430804Y-67084498D01*
X195355394Y-66970422D01*
X195348566Y-66962503D01*
X195219595Y-66866618D01*
X195214436Y-66864139D01*
X195025177Y-66826318D01*
X194851277Y-66866618D01*
X194761395Y-66970422D01*
X194753305Y-66990669D01*
X194735994Y-67113914D01*
X193896660Y-67113914D01*
X193895630Y-67103070D01*
X193902637Y-66978970D01*
X193908896Y-66940454D01*
X193952440Y-66812110D01*
X194029644Y-66693817D01*
X194065545Y-66654482D01*
X194193987Y-66556241D01*
X194350090Y-66480715D01*
X194514502Y-66432740D01*
X194713546Y-66404680D01*
X194924549Y-66396451D01*
X194946917Y-66396533D01*
G37*
G36*
X192213454Y-67712309D02*
G01*
X192043876Y-67773489D01*
X192019036Y-67791688D01*
X191960690Y-67908639D01*
X191965303Y-67933349D01*
X192037549Y-68046877D01*
X192103056Y-68090275D01*
X192281636Y-68148679D01*
X192370746Y-68155000D01*
X192517292Y-68155000D01*
X192725247Y-68146125D01*
X192920109Y-68112753D01*
X193012616Y-68079895D01*
X193148415Y-67990136D01*
X193229504Y-67872288D01*
X193260145Y-67747884D01*
X193260802Y-67616250D01*
X193253928Y-67561489D01*
X193232487Y-67435184D01*
X193207121Y-67303107D01*
X193180655Y-67178028D01*
X193113244Y-66865397D01*
X193248066Y-66865397D01*
X193437660Y-66829677D01*
X193487424Y-66801894D01*
X193562081Y-66687554D01*
X193557766Y-66650464D01*
X193474490Y-66537248D01*
X193414152Y-66499644D01*
X193236034Y-66441791D01*
X193147438Y-66435530D01*
X193011639Y-66435530D01*
X192960837Y-66213879D01*
X192894342Y-66098496D01*
X192794752Y-66023981D01*
X192626488Y-65961277D01*
X192477236Y-65946434D01*
X192281155Y-65976725D01*
X192190983Y-66023981D01*
X192108417Y-66140750D01*
X192111849Y-66213879D01*
X192162651Y-66435530D01*
X191981912Y-66435530D01*
X191793234Y-66471594D01*
X191743531Y-66499644D01*
X191668874Y-66613402D01*
X191673189Y-66650464D01*
X191756465Y-66763995D01*
X191816803Y-66801894D01*
X191994502Y-66859196D01*
X192083517Y-66865397D01*
X192264256Y-66865397D01*
X192370746Y-67339839D01*
X192392061Y-67464898D01*
X192388855Y-67592705D01*
X192379539Y-67619497D01*
X192236827Y-67708485D01*
X192213454Y-67712309D01*
G37*
G36*
X190801425Y-66404771D02*
G01*
X190969769Y-66467281D01*
X191008912Y-66494542D01*
X191089937Y-66609553D01*
X191094391Y-66647566D01*
X191022526Y-66762815D01*
X190974043Y-66790598D01*
X190786099Y-66826318D01*
X190671793Y-66826318D01*
X190589727Y-66826318D01*
X190575027Y-66826349D01*
X190372840Y-66834256D01*
X190206755Y-66878220D01*
X190198473Y-66882967D01*
X190109057Y-66994235D01*
X190090267Y-67080191D01*
X190094403Y-67205505D01*
X190151067Y-67205505D01*
X190319106Y-67158489D01*
X190421501Y-67145132D01*
X190622944Y-67138949D01*
X190727725Y-67142052D01*
X190927759Y-67165205D01*
X191028982Y-67186949D01*
X191206196Y-67251301D01*
X191310114Y-67312142D01*
X191425038Y-67413722D01*
X191436410Y-67426664D01*
X191510905Y-67544283D01*
X191552044Y-67667735D01*
X191567577Y-67801918D01*
X191534718Y-67934828D01*
X191433831Y-68040816D01*
X191410254Y-68054643D01*
X191227438Y-68118871D01*
X191020938Y-68147863D01*
X190820293Y-68155000D01*
X190705010Y-68155000D01*
X190538925Y-68142787D01*
X190359162Y-68106151D01*
X190212616Y-68042648D01*
X190161814Y-68042648D01*
X190041646Y-68123248D01*
X189857976Y-68155000D01*
X189740831Y-68145125D01*
X189568792Y-68084780D01*
X189488238Y-68027278D01*
X189419316Y-67911978D01*
X189334374Y-67529738D01*
X190190146Y-67529738D01*
X190235087Y-67716584D01*
X190367955Y-67748946D01*
X190522316Y-67764211D01*
X190679609Y-67723300D01*
X190696217Y-67645143D01*
X190612198Y-67563932D01*
X190483611Y-67537251D01*
X190285889Y-67529738D01*
X190190146Y-67529738D01*
X189334374Y-67529738D01*
X189272770Y-67252522D01*
X189261149Y-67193389D01*
X189244219Y-67066444D01*
X189238576Y-66941113D01*
X189239297Y-66912655D01*
X189261737Y-66787232D01*
X189320642Y-66666339D01*
X189325814Y-66658754D01*
X189437128Y-66550199D01*
X189590286Y-66470334D01*
X189723303Y-66431372D01*
X189922971Y-66403666D01*
X190122735Y-66396451D01*
X190223968Y-66396451D01*
X190423642Y-66396451D01*
X190539963Y-66396451D01*
X190736273Y-66396451D01*
X190801425Y-66404771D01*
G37*
G36*
X187178143Y-66904476D02*
G01*
X187259232Y-66904476D01*
X187352044Y-66904476D01*
X187547371Y-66924988D01*
X187628527Y-66952103D01*
X187771066Y-67037866D01*
X187802428Y-67066287D01*
X187888108Y-67178069D01*
X187901102Y-67204895D01*
X187943112Y-67322742D01*
X188073049Y-67891828D01*
X188144797Y-68012330D01*
X188239134Y-68079895D01*
X188417526Y-68142604D01*
X188556650Y-68155000D01*
X188753113Y-68125900D01*
X188843879Y-68080505D01*
X188925584Y-67966954D01*
X188922037Y-67894881D01*
X188652393Y-66702365D01*
X188579140Y-66582237D01*
X188483377Y-66513688D01*
X188312743Y-66450490D01*
X188162930Y-66435530D01*
X187967566Y-66464550D01*
X187904033Y-66491706D01*
X187797238Y-66595891D01*
X187785819Y-66639473D01*
X187746741Y-66639473D01*
X187605619Y-66546540D01*
X187434740Y-66482312D01*
X187423363Y-66479494D01*
X187224629Y-66445190D01*
X187043321Y-66435530D01*
X186855254Y-66473915D01*
X186789309Y-66510635D01*
X186715486Y-66627642D01*
X186721898Y-66673056D01*
X186798934Y-66788135D01*
X186877236Y-66837920D01*
X187056602Y-66895117D01*
X187178143Y-66904476D01*
G37*
G36*
X186453230Y-66694427D02*
G01*
X186386735Y-66578743D01*
X186287145Y-66504528D01*
X186118572Y-66441824D01*
X185968653Y-66426981D01*
X185772571Y-66457273D01*
X185682400Y-66504528D01*
X185599834Y-66621023D01*
X185603265Y-66694427D01*
X185743949Y-67320300D01*
X185765027Y-67443693D01*
X185769351Y-67496154D01*
X185743949Y-67608506D01*
X185645275Y-67668346D01*
X185456720Y-67686053D01*
X185261631Y-67655761D01*
X185192937Y-67608506D01*
X185123481Y-67488436D01*
X185097194Y-67394183D01*
X184938925Y-66694427D01*
X184872430Y-66578743D01*
X184772840Y-66504528D01*
X184604575Y-66441824D01*
X184455324Y-66426981D01*
X184259243Y-66457273D01*
X184169071Y-66504528D01*
X184086505Y-66621023D01*
X184089937Y-66694427D01*
X184404521Y-68095160D01*
X184448827Y-68227395D01*
X184517629Y-68344669D01*
X184626256Y-68460379D01*
X184766879Y-68556550D01*
X184807034Y-68577540D01*
X184984842Y-68649133D01*
X185189030Y-68700272D01*
X185389332Y-68728238D01*
X185609829Y-68740543D01*
X185676538Y-68741182D01*
X185880340Y-68738027D01*
X185991123Y-68733855D01*
X186190868Y-68718017D01*
X186306685Y-68702103D01*
X186480433Y-68644201D01*
X186498171Y-68629441D01*
X186552113Y-68511734D01*
X186548974Y-68487170D01*
X186468726Y-68371773D01*
X186411221Y-68334518D01*
X186237511Y-68278318D01*
X186149392Y-68272236D01*
X186070258Y-68278953D01*
X185912965Y-68301545D01*
X185754696Y-68311315D01*
X185589588Y-68307651D01*
X185440111Y-68279563D01*
X185321898Y-68207512D01*
X185257901Y-68089594D01*
X185254487Y-68073789D01*
X185232016Y-67975481D01*
X185282819Y-67975481D01*
X185434803Y-68052475D01*
X185445973Y-68056081D01*
X185628667Y-68096992D01*
X185811360Y-68112868D01*
X185968653Y-68115921D01*
X186173122Y-68104701D01*
X186362076Y-68060909D01*
X186371165Y-68057302D01*
X186520916Y-67973010D01*
X186582191Y-67912588D01*
X186644161Y-67794867D01*
X186655464Y-67728796D01*
X186653480Y-67605014D01*
X186644717Y-67545003D01*
X186453230Y-66694427D01*
G37*
G36*
X181578871Y-66402392D02*
G01*
X181790436Y-66425789D01*
X181990425Y-66471556D01*
X182078891Y-66501459D01*
X182249121Y-66578179D01*
X182390006Y-66671224D01*
X182454220Y-66727061D01*
X182555863Y-66839284D01*
X182629364Y-66952714D01*
X182668565Y-67031864D01*
X182716834Y-67153165D01*
X182752463Y-67277557D01*
X182766018Y-67344924D01*
X182780673Y-67469870D01*
X182777307Y-67594832D01*
X182744647Y-67725132D01*
X182720256Y-67776742D01*
X182634291Y-67893903D01*
X182505289Y-67992578D01*
X182450563Y-68021015D01*
X182277029Y-68084461D01*
X182089099Y-68122027D01*
X181962581Y-68136452D01*
X181763646Y-68150363D01*
X181553719Y-68155000D01*
X181454801Y-68153807D01*
X181258674Y-68142787D01*
X181193217Y-68135689D01*
X181002707Y-68102487D01*
X180990819Y-68099325D01*
X180831737Y-68025551D01*
X180822441Y-68018932D01*
X180737948Y-67906482D01*
X180734777Y-67876644D01*
X180791681Y-67756273D01*
X180810183Y-67739815D01*
X180990983Y-67686053D01*
X181014431Y-67705593D01*
X181036901Y-67725132D01*
X181068714Y-67725132D01*
X181267466Y-67725132D01*
X181273757Y-67725132D01*
X181469699Y-67725132D01*
X181487486Y-67725062D01*
X181688675Y-67711341D01*
X181875143Y-67653080D01*
X181944019Y-67593632D01*
X181970886Y-67470509D01*
X181965024Y-67451580D01*
X180822944Y-67451580D01*
X180733834Y-67444961D01*
X180555254Y-67383803D01*
X180489175Y-67339176D01*
X180411639Y-67225045D01*
X180400935Y-67165418D01*
X180395153Y-67099870D01*
X181227411Y-67099870D01*
X181858534Y-67099870D01*
X181816402Y-67000694D01*
X181711988Y-66889211D01*
X181673096Y-66867837D01*
X181486308Y-66826318D01*
X181463665Y-66826871D01*
X181289937Y-66889211D01*
X181237669Y-66973017D01*
X181227411Y-67099870D01*
X180395153Y-67099870D01*
X180389760Y-67038729D01*
X180395031Y-66915467D01*
X180398918Y-66887723D01*
X180437493Y-66766341D01*
X180516175Y-66651074D01*
X180536520Y-66629838D01*
X180666064Y-66535734D01*
X180828806Y-66466060D01*
X180988495Y-66426429D01*
X181181432Y-66403249D01*
X181385680Y-66396451D01*
X181578871Y-66402392D01*
G37*
G36*
X179851835Y-66687711D02*
G01*
X179786990Y-66569422D01*
X179672072Y-66481936D01*
X179499110Y-66415234D01*
X179328178Y-66396451D01*
X179135944Y-66426371D01*
X179112267Y-66435530D01*
X178975053Y-66525904D01*
X178968653Y-66533227D01*
X178911988Y-66533227D01*
X178756741Y-66454623D01*
X178745903Y-66450795D01*
X178572002Y-66408663D01*
X178410802Y-66396451D01*
X178298450Y-66396451D01*
X178097912Y-66403664D01*
X177899402Y-66432966D01*
X177846113Y-66447742D01*
X177684996Y-66516966D01*
X177609685Y-66574748D01*
X177535472Y-66689898D01*
X177525666Y-66738391D01*
X177526765Y-66862382D01*
X177533482Y-66900202D01*
X177758185Y-67890607D01*
X177824680Y-68005904D01*
X177924270Y-68079284D01*
X178103006Y-68142504D01*
X178242763Y-68155000D01*
X178439226Y-68124946D01*
X178529993Y-68078063D01*
X178611697Y-67960780D01*
X178608150Y-67886332D01*
X178455743Y-67198789D01*
X178433824Y-67073254D01*
X178428387Y-67019881D01*
X178450858Y-66905087D01*
X178546601Y-66844637D01*
X178732226Y-66826318D01*
X178922019Y-66855379D01*
X179001870Y-66908750D01*
X179073038Y-67025581D01*
X179103475Y-67127348D01*
X179272491Y-67886332D01*
X179338505Y-68003497D01*
X179438576Y-68078063D01*
X179606840Y-68140273D01*
X179756092Y-68155000D01*
X179952554Y-68125185D01*
X180043321Y-68078674D01*
X180125026Y-67962455D01*
X180121479Y-67888775D01*
X179851835Y-66687711D01*
G37*
G36*
X175560976Y-66826318D02*
G01*
X175759397Y-66833274D01*
X175890216Y-66848300D01*
X176069918Y-66898790D01*
X176117850Y-66923405D01*
X176234438Y-67025789D01*
X176258534Y-67061402D01*
X176313260Y-67183905D01*
X176337669Y-67273893D01*
X176356743Y-67396075D01*
X176355254Y-67486995D01*
X176301376Y-67605692D01*
X176279050Y-67626214D01*
X176115881Y-67694936D01*
X176084633Y-67701318D01*
X175882955Y-67722318D01*
X175752463Y-67725132D01*
X175668443Y-67725132D01*
X175583447Y-67725132D01*
X175395502Y-67759479D01*
X175347020Y-67786193D01*
X175275132Y-67900951D01*
X175279609Y-67932128D01*
X175366059Y-68046261D01*
X175394891Y-68064630D01*
X175564573Y-68127479D01*
X175617641Y-68135460D01*
X175812180Y-68151946D01*
X175873607Y-68153778D01*
X176071459Y-68154957D01*
X176117850Y-68155000D01*
X176334912Y-68148286D01*
X176542557Y-68125078D01*
X176730194Y-68080403D01*
X176759720Y-68070125D01*
X176926255Y-67993211D01*
X177059077Y-67893701D01*
X177094822Y-67853970D01*
X177167858Y-67734959D01*
X177205738Y-67606598D01*
X177210104Y-67568206D01*
X177211580Y-67445417D01*
X177196941Y-67320395D01*
X177187634Y-67277557D01*
X177149299Y-67154906D01*
X177098633Y-67034737D01*
X177075282Y-66986908D01*
X176996635Y-66864925D01*
X176889287Y-66751004D01*
X176830062Y-66701144D01*
X176691348Y-66609324D01*
X176524331Y-66529869D01*
X176397264Y-66483768D01*
X176215933Y-66437722D01*
X176006552Y-66408730D01*
X175794126Y-66397218D01*
X175718269Y-66396451D01*
X175521161Y-66397660D01*
X175476957Y-66398283D01*
X175277120Y-66408329D01*
X175228806Y-66412937D01*
X175053861Y-66474291D01*
X175040251Y-66484989D01*
X174984167Y-66605380D01*
X174986517Y-66619323D01*
X175074078Y-66733811D01*
X175127201Y-66765868D01*
X175303136Y-66820415D01*
X175391960Y-66826318D01*
X175476957Y-66826318D01*
X175560976Y-66826318D01*
G37*
G36*
X173484809Y-66396533D02*
G01*
X173697148Y-66406408D01*
X173888878Y-66432740D01*
X174075980Y-66480715D01*
X174197063Y-66525404D01*
X174358309Y-66603170D01*
X174495101Y-66693817D01*
X174573014Y-66760182D01*
X174672482Y-66865884D01*
X174751067Y-66978970D01*
X174777772Y-67027154D01*
X174834255Y-67149780D01*
X174874166Y-67277557D01*
X174883539Y-67322697D01*
X174895828Y-67452260D01*
X174888820Y-67576755D01*
X174882531Y-67615099D01*
X174838399Y-67742542D01*
X174759860Y-67859466D01*
X174722832Y-67898288D01*
X174592254Y-67995727D01*
X174435505Y-68071346D01*
X174271209Y-68118973D01*
X174072511Y-68146830D01*
X173862023Y-68155000D01*
X173839597Y-68154918D01*
X173626877Y-68145115D01*
X173435146Y-68118973D01*
X173248485Y-68071346D01*
X173127402Y-68026505D01*
X172966156Y-67949082D01*
X172829364Y-67859466D01*
X172760489Y-67802318D01*
X172652670Y-67689211D01*
X172576329Y-67576755D01*
X172550187Y-67528395D01*
X172494721Y-67405451D01*
X172455184Y-67277557D01*
X172445811Y-67232432D01*
X172434552Y-67113914D01*
X173273886Y-67113914D01*
X173276207Y-67154138D01*
X173293426Y-67277557D01*
X173302829Y-67319155D01*
X173344228Y-67441200D01*
X173357406Y-67470638D01*
X173431179Y-67585303D01*
X173438006Y-67593143D01*
X173566978Y-67687274D01*
X173572076Y-67689604D01*
X173760418Y-67725132D01*
X173935296Y-67687274D01*
X174025177Y-67585303D01*
X174033058Y-67564880D01*
X174052533Y-67441200D01*
X174051495Y-67400976D01*
X174035924Y-67277557D01*
X174026399Y-67235959D01*
X173983168Y-67113914D01*
X173968696Y-67084498D01*
X173893286Y-66970422D01*
X173886459Y-66962503D01*
X173757487Y-66866618D01*
X173752329Y-66864139D01*
X173563070Y-66826318D01*
X173389169Y-66866618D01*
X173299288Y-66970422D01*
X173291197Y-66990669D01*
X173273886Y-67113914D01*
X172434552Y-67113914D01*
X172433522Y-67103070D01*
X172440530Y-66978970D01*
X172446789Y-66940454D01*
X172490332Y-66812110D01*
X172567536Y-66693817D01*
X172603438Y-66654482D01*
X172731879Y-66556241D01*
X172887983Y-66480715D01*
X173052394Y-66432740D01*
X173251439Y-66404680D01*
X173462442Y-66396451D01*
X173484809Y-66396533D01*
G37*
G36*
X169974013Y-65936242D02*
G01*
X170144647Y-65998946D01*
X170246241Y-66073461D01*
X170313663Y-66188845D01*
X170392798Y-66537501D01*
X170442623Y-66537501D01*
X170498666Y-66496750D01*
X170668304Y-66431866D01*
X170792854Y-66408936D01*
X170994612Y-66396451D01*
X171128917Y-66400395D01*
X171331746Y-66425511D01*
X171512407Y-66478883D01*
X171524596Y-66484021D01*
X171687285Y-66566963D01*
X171819176Y-66667561D01*
X171901642Y-66759941D01*
X171968653Y-66876999D01*
X171977980Y-66901843D01*
X172018478Y-67022323D01*
X172136692Y-67567595D01*
X172145570Y-67627547D01*
X172148415Y-67753220D01*
X172137459Y-67821463D01*
X172078073Y-67943729D01*
X172018127Y-68006641D01*
X171869979Y-68093939D01*
X171860890Y-68097695D01*
X171671936Y-68143312D01*
X171467466Y-68155000D01*
X171310174Y-68155000D01*
X171126503Y-68146451D01*
X170940879Y-68109204D01*
X170929354Y-68105598D01*
X170774794Y-68028604D01*
X170723991Y-68028604D01*
X170721131Y-68032318D01*
X170581353Y-68122027D01*
X170556288Y-68129755D01*
X170358604Y-68155000D01*
X170188531Y-68136887D01*
X170018618Y-68072568D01*
X169905102Y-67986665D01*
X169840809Y-67869846D01*
X169647322Y-67007363D01*
X170514187Y-67007363D01*
X170527620Y-67132233D01*
X170589169Y-67422882D01*
X170622434Y-67528198D01*
X170690774Y-67645143D01*
X170759605Y-67693886D01*
X170955533Y-67725132D01*
X171143112Y-67706814D01*
X171241786Y-67645143D01*
X171265233Y-67528517D01*
X171258501Y-67468868D01*
X171236901Y-67346556D01*
X171208569Y-67208558D01*
X171195466Y-67149831D01*
X171157766Y-67024766D01*
X171155977Y-67020140D01*
X171081563Y-66906919D01*
X170955533Y-66844637D01*
X170758185Y-66826318D01*
X170679839Y-66830321D01*
X170530551Y-66909972D01*
X170514187Y-67007363D01*
X169647322Y-67007363D01*
X169463698Y-66188845D01*
X169459920Y-66115715D01*
X169539902Y-65998946D01*
X169628425Y-65951691D01*
X169824200Y-65921399D01*
X169974013Y-65936242D01*
G37*
G36*
X168104482Y-66402392D02*
G01*
X168316047Y-66425789D01*
X168516036Y-66471556D01*
X168604501Y-66501459D01*
X168774732Y-66578179D01*
X168915617Y-66671224D01*
X168979831Y-66727061D01*
X169081473Y-66839284D01*
X169154975Y-66952714D01*
X169194176Y-67031864D01*
X169242445Y-67153165D01*
X169278073Y-67277557D01*
X169291629Y-67344924D01*
X169306284Y-67469870D01*
X169302918Y-67594832D01*
X169270258Y-67725132D01*
X169245867Y-67776742D01*
X169159902Y-67893903D01*
X169030900Y-67992578D01*
X168976174Y-68021015D01*
X168802640Y-68084461D01*
X168614710Y-68122027D01*
X168488192Y-68136452D01*
X168289256Y-68150363D01*
X168079330Y-68155000D01*
X167980411Y-68153807D01*
X167784284Y-68142787D01*
X167718827Y-68135689D01*
X167528318Y-68102487D01*
X167516430Y-68099325D01*
X167357348Y-68025551D01*
X167348051Y-68018932D01*
X167263558Y-67906482D01*
X167260387Y-67876644D01*
X167317292Y-67756273D01*
X167335793Y-67739815D01*
X167516594Y-67686053D01*
X167540041Y-67705593D01*
X167562512Y-67725132D01*
X167594324Y-67725132D01*
X167793077Y-67725132D01*
X167799367Y-67725132D01*
X167995310Y-67725132D01*
X168013097Y-67725062D01*
X168214285Y-67711341D01*
X168400753Y-67653080D01*
X168469630Y-67593632D01*
X168496496Y-67470509D01*
X168490635Y-67451580D01*
X167348555Y-67451580D01*
X167259445Y-67444961D01*
X167080865Y-67383803D01*
X167014786Y-67339176D01*
X166937250Y-67225045D01*
X166926545Y-67165418D01*
X166920763Y-67099870D01*
X167753021Y-67099870D01*
X168384145Y-67099870D01*
X168342013Y-67000694D01*
X168237599Y-66889211D01*
X168198707Y-66867837D01*
X168011919Y-66826318D01*
X167989276Y-66826871D01*
X167815547Y-66889211D01*
X167763279Y-66973017D01*
X167753021Y-67099870D01*
X166920763Y-67099870D01*
X166915370Y-67038729D01*
X166920642Y-66915467D01*
X166924528Y-66887723D01*
X166963104Y-66766341D01*
X167041786Y-66651074D01*
X167062131Y-66629838D01*
X167191675Y-66535734D01*
X167354417Y-66466060D01*
X167514106Y-66426429D01*
X167707042Y-66403249D01*
X167911290Y-66396451D01*
X168104482Y-66402392D01*
G37*
G36*
X164903196Y-66904476D02*
G01*
X164984284Y-66904476D01*
X165077096Y-66904476D01*
X165272423Y-66924988D01*
X165353579Y-66952103D01*
X165496118Y-67037866D01*
X165527480Y-67066287D01*
X165613160Y-67178069D01*
X165626154Y-67204895D01*
X165668164Y-67322742D01*
X165798101Y-67891828D01*
X165869850Y-68012330D01*
X165964187Y-68079895D01*
X166142578Y-68142604D01*
X166281702Y-68155000D01*
X166478165Y-68125900D01*
X166568932Y-68080505D01*
X166650637Y-67966954D01*
X166647090Y-67894881D01*
X166377445Y-66702365D01*
X166304193Y-66582237D01*
X166208429Y-66513688D01*
X166037795Y-66450490D01*
X165887983Y-66435530D01*
X165692618Y-66464550D01*
X165629085Y-66491706D01*
X165522290Y-66595891D01*
X165510872Y-66639473D01*
X165471793Y-66639473D01*
X165330671Y-66546540D01*
X165159793Y-66482312D01*
X165148415Y-66479494D01*
X164949681Y-66445190D01*
X164768374Y-66435530D01*
X164580307Y-66473915D01*
X164514361Y-66510635D01*
X164440539Y-66627642D01*
X164446950Y-66673056D01*
X164523987Y-66788135D01*
X164602288Y-66837920D01*
X164781654Y-66895117D01*
X164903196Y-66904476D01*
G37*
G36*
X162326922Y-66691985D02*
G01*
X161539483Y-66157704D01*
X161385610Y-66082141D01*
X161373398Y-66078325D01*
X161180383Y-66048434D01*
X161174096Y-66048405D01*
X160980452Y-66081013D01*
X160901521Y-66124120D01*
X160819014Y-66236119D01*
X160819455Y-66304860D01*
X160891904Y-66421066D01*
X160909337Y-66435530D01*
X161584424Y-66903255D01*
X161596147Y-66941723D01*
X161111570Y-67782529D01*
X161094961Y-67838705D01*
X161100823Y-67894881D01*
X161172571Y-68012834D01*
X161266908Y-68079895D01*
X161441167Y-68142604D01*
X161572700Y-68155000D01*
X161765694Y-68120224D01*
X161793496Y-68106151D01*
X161910935Y-68007909D01*
X161927341Y-67986472D01*
X162271235Y-67385024D01*
X162332784Y-67385024D01*
X162585819Y-67623771D01*
X162648346Y-67891217D01*
X162714360Y-68006515D01*
X162814431Y-68079895D01*
X162992822Y-68142604D01*
X163131946Y-68155000D01*
X163328409Y-68125662D01*
X163419176Y-68079895D01*
X163500881Y-67964478D01*
X163497334Y-67891217D01*
X163143670Y-66315851D01*
X163077175Y-66200167D01*
X162977585Y-66125952D01*
X162808531Y-66063248D01*
X162659092Y-66048405D01*
X162463011Y-66078697D01*
X162372840Y-66125952D01*
X162290273Y-66242446D01*
X162293705Y-66315851D01*
X162377725Y-66691985D01*
X162326922Y-66691985D01*
G37*
G36*
X159554028Y-66402392D02*
G01*
X159765593Y-66425789D01*
X159965582Y-66471556D01*
X160054048Y-66501459D01*
X160224278Y-66578179D01*
X160365163Y-66671224D01*
X160429377Y-66727061D01*
X160531020Y-66839284D01*
X160604521Y-66952714D01*
X160643722Y-67031864D01*
X160691991Y-67153165D01*
X160727620Y-67277557D01*
X160741175Y-67344924D01*
X160755830Y-67469870D01*
X160752464Y-67594832D01*
X160719804Y-67725132D01*
X160695413Y-67776742D01*
X160609448Y-67893903D01*
X160480446Y-67992578D01*
X160425720Y-68021015D01*
X160252186Y-68084461D01*
X160064256Y-68122027D01*
X159937739Y-68136452D01*
X159738803Y-68150363D01*
X159528876Y-68155000D01*
X159429958Y-68153807D01*
X159233831Y-68142787D01*
X159168374Y-68135689D01*
X158977864Y-68102487D01*
X158965976Y-68099325D01*
X158806894Y-68025551D01*
X158797598Y-68018932D01*
X158713105Y-67906482D01*
X158709934Y-67876644D01*
X158766838Y-67756273D01*
X158785340Y-67739815D01*
X158966140Y-67686053D01*
X158989588Y-67705593D01*
X159012058Y-67725132D01*
X159043871Y-67725132D01*
X159242623Y-67725132D01*
X159248914Y-67725132D01*
X159444856Y-67725132D01*
X159462643Y-67725062D01*
X159663832Y-67711341D01*
X159850300Y-67653080D01*
X159919176Y-67593632D01*
X159946043Y-67470509D01*
X159940181Y-67451580D01*
X158798101Y-67451580D01*
X158708991Y-67444961D01*
X158530411Y-67383803D01*
X158464332Y-67339176D01*
X158386796Y-67225045D01*
X158376092Y-67165418D01*
X158370310Y-67099870D01*
X159202568Y-67099870D01*
X159833691Y-67099870D01*
X159791559Y-67000694D01*
X159687145Y-66889211D01*
X159648253Y-66867837D01*
X159461465Y-66826318D01*
X159438822Y-66826871D01*
X159265094Y-66889211D01*
X159212826Y-66973017D01*
X159202568Y-67099870D01*
X158370310Y-67099870D01*
X158364917Y-67038729D01*
X158370188Y-66915467D01*
X158374075Y-66887723D01*
X158412650Y-66766341D01*
X158491332Y-66651074D01*
X158511677Y-66629838D01*
X158641221Y-66535734D01*
X158803963Y-66466060D01*
X158963652Y-66426429D01*
X159156589Y-66403249D01*
X159360837Y-66396451D01*
X159554028Y-66402392D01*
G37*
G36*
X157855324Y-66694427D02*
G01*
X157788829Y-66578743D01*
X157689239Y-66504528D01*
X157520665Y-66441824D01*
X157370746Y-66426981D01*
X157174665Y-66457273D01*
X157084494Y-66504528D01*
X157001927Y-66621023D01*
X157005359Y-66694427D01*
X157146043Y-67320300D01*
X157167120Y-67443693D01*
X157171444Y-67496154D01*
X157146043Y-67608506D01*
X157047369Y-67668346D01*
X156858813Y-67686053D01*
X156663724Y-67655761D01*
X156595031Y-67608506D01*
X156525574Y-67488436D01*
X156499288Y-67394183D01*
X156341018Y-66694427D01*
X156274523Y-66578743D01*
X156174933Y-66504528D01*
X156006669Y-66441824D01*
X155857418Y-66426981D01*
X155661336Y-66457273D01*
X155571165Y-66504528D01*
X155488598Y-66621023D01*
X155492030Y-66694427D01*
X155806615Y-68095160D01*
X155850920Y-68227395D01*
X155919722Y-68344669D01*
X156028349Y-68460379D01*
X156168972Y-68556550D01*
X156209127Y-68577540D01*
X156386936Y-68649133D01*
X156591123Y-68700272D01*
X156791425Y-68728238D01*
X157011923Y-68740543D01*
X157078632Y-68741182D01*
X157282433Y-68738027D01*
X157393217Y-68733855D01*
X157592961Y-68718017D01*
X157708778Y-68702103D01*
X157882527Y-68644201D01*
X157900265Y-68629441D01*
X157954206Y-68511734D01*
X157951067Y-68487170D01*
X157870819Y-68371773D01*
X157813314Y-68334518D01*
X157639604Y-68278318D01*
X157551486Y-68272236D01*
X157472351Y-68278953D01*
X157315059Y-68301545D01*
X157156789Y-68311315D01*
X156991681Y-68307651D01*
X156842205Y-68279563D01*
X156723991Y-68207512D01*
X156659995Y-68089594D01*
X156656580Y-68073789D01*
X156634110Y-67975481D01*
X156684912Y-67975481D01*
X156836896Y-68052475D01*
X156848066Y-68056081D01*
X157030760Y-68096992D01*
X157213454Y-68112868D01*
X157370746Y-68115921D01*
X157575216Y-68104701D01*
X157764170Y-68060909D01*
X157773258Y-68057302D01*
X157923010Y-67973010D01*
X157984284Y-67912588D01*
X158046254Y-67794867D01*
X158057557Y-67728796D01*
X158055574Y-67605014D01*
X158046810Y-67545003D01*
X157855324Y-66694427D01*
G37*
G36*
X154495962Y-65936242D02*
G01*
X154664535Y-65998946D01*
X154764125Y-66073461D01*
X154830621Y-66188845D01*
X155207732Y-67869846D01*
X155206417Y-67961039D01*
X155119804Y-68072568D01*
X155004346Y-68128918D01*
X154813035Y-68155000D01*
X154774901Y-68154195D01*
X154580516Y-68122027D01*
X154540216Y-68108510D01*
X154390983Y-68028604D01*
X154341158Y-68028604D01*
X154211221Y-68109204D01*
X154045136Y-68146451D01*
X153871235Y-68155000D01*
X153715896Y-68155000D01*
X153683878Y-68154761D01*
X153478981Y-68139734D01*
X153286029Y-68093939D01*
X153148104Y-68035134D01*
X153007592Y-67943729D01*
X152929304Y-67869281D01*
X152847369Y-67753220D01*
X152817315Y-67691539D01*
X152776050Y-67567595D01*
X152658366Y-67024766D01*
X153519525Y-67024766D01*
X153525662Y-67085531D01*
X153546880Y-67208558D01*
X153575212Y-67346556D01*
X153588547Y-67405138D01*
X153628946Y-67528517D01*
X153708080Y-67645143D01*
X153832156Y-67706814D01*
X154025596Y-67725132D01*
X154104129Y-67721304D01*
X154257138Y-67645143D01*
X154273503Y-67549583D01*
X154256161Y-67422882D01*
X154194612Y-67132233D01*
X154164659Y-67028683D01*
X154095938Y-66909972D01*
X154025321Y-66858995D01*
X153828248Y-66826318D01*
X153642623Y-66844637D01*
X153544926Y-66906919D01*
X153519525Y-67024766D01*
X152658366Y-67024766D01*
X152657836Y-67022323D01*
X152653368Y-67000969D01*
X152641228Y-66876999D01*
X152647268Y-66792651D01*
X152694961Y-66667561D01*
X152771812Y-66572884D01*
X152911849Y-66478883D01*
X153000692Y-66442819D01*
X153188560Y-66406191D01*
X153389588Y-66396451D01*
X153533065Y-66402296D01*
X153733482Y-66431866D01*
X153848703Y-66463036D01*
X154008988Y-66537501D01*
X154059790Y-66537501D01*
X153980655Y-66188845D01*
X153977224Y-66115715D01*
X154059790Y-65998946D01*
X154149962Y-65951691D01*
X154346043Y-65921399D01*
X154495962Y-65936242D01*
G37*
G36*
X150948033Y-66396533D02*
G01*
X151160372Y-66406408D01*
X151352102Y-66432740D01*
X151539204Y-66480715D01*
X151660287Y-66525404D01*
X151821533Y-66603170D01*
X151958325Y-66693817D01*
X152036238Y-66760182D01*
X152135706Y-66865884D01*
X152214291Y-66978970D01*
X152240996Y-67027154D01*
X152297479Y-67149780D01*
X152337390Y-67277557D01*
X152346763Y-67322697D01*
X152359052Y-67452260D01*
X152352044Y-67576755D01*
X152345755Y-67615099D01*
X152301623Y-67742542D01*
X152223084Y-67859466D01*
X152186056Y-67898288D01*
X152055478Y-67995727D01*
X151898729Y-68071346D01*
X151734433Y-68118973D01*
X151535735Y-68146830D01*
X151325247Y-68155000D01*
X151302821Y-68154918D01*
X151090101Y-68145115D01*
X150898370Y-68118973D01*
X150711709Y-68071346D01*
X150590626Y-68026505D01*
X150429380Y-67949082D01*
X150292588Y-67859466D01*
X150223713Y-67802318D01*
X150115894Y-67689211D01*
X150039553Y-67576755D01*
X150013411Y-67528395D01*
X149957945Y-67405451D01*
X149918408Y-67277557D01*
X149909035Y-67232432D01*
X149897776Y-67113914D01*
X150737110Y-67113914D01*
X150739431Y-67154138D01*
X150756650Y-67277557D01*
X150766053Y-67319155D01*
X150807452Y-67441200D01*
X150820630Y-67470638D01*
X150894403Y-67585303D01*
X150901230Y-67593143D01*
X151030202Y-67687274D01*
X151035300Y-67689604D01*
X151223642Y-67725132D01*
X151398520Y-67687274D01*
X151488401Y-67585303D01*
X151496282Y-67564880D01*
X151515757Y-67441200D01*
X151514719Y-67400976D01*
X151499148Y-67277557D01*
X151489623Y-67235959D01*
X151446392Y-67113914D01*
X151431920Y-67084498D01*
X151356510Y-66970422D01*
X151349683Y-66962503D01*
X151220711Y-66866618D01*
X151215553Y-66864139D01*
X151026294Y-66826318D01*
X150852393Y-66866618D01*
X150762512Y-66970422D01*
X150754421Y-66990669D01*
X150737110Y-67113914D01*
X149897776Y-67113914D01*
X149896746Y-67103070D01*
X149903754Y-66978970D01*
X149910013Y-66940454D01*
X149953557Y-66812110D01*
X150030760Y-66693817D01*
X150066662Y-66654482D01*
X150195103Y-66556241D01*
X150351207Y-66480715D01*
X150515618Y-66432740D01*
X150714663Y-66404680D01*
X150925666Y-66396451D01*
X150948033Y-66396533D01*
G37*
G36*
X148928431Y-66404771D02*
G01*
X149096775Y-66467281D01*
X149135918Y-66494542D01*
X149216943Y-66609553D01*
X149221398Y-66647566D01*
X149149532Y-66762815D01*
X149101050Y-66790598D01*
X148913105Y-66826318D01*
X148798799Y-66826318D01*
X148716734Y-66826318D01*
X148702033Y-66826349D01*
X148499846Y-66834256D01*
X148333761Y-66878220D01*
X148325479Y-66882967D01*
X148236064Y-66994235D01*
X148217273Y-67080191D01*
X148221409Y-67205505D01*
X148278073Y-67205505D01*
X148446113Y-67158489D01*
X148548508Y-67145132D01*
X148749951Y-67138949D01*
X148854731Y-67142052D01*
X149054766Y-67165205D01*
X149155988Y-67186949D01*
X149333203Y-67251301D01*
X149437120Y-67312142D01*
X149552044Y-67413722D01*
X149563417Y-67426664D01*
X149637911Y-67544283D01*
X149679050Y-67667735D01*
X149694584Y-67801918D01*
X149661724Y-67934828D01*
X149560837Y-68040816D01*
X149537260Y-68054643D01*
X149354444Y-68118871D01*
X149147944Y-68147863D01*
X148947299Y-68155000D01*
X148832016Y-68155000D01*
X148665931Y-68142787D01*
X148486168Y-68106151D01*
X148339623Y-68042648D01*
X148288820Y-68042648D01*
X148168653Y-68123248D01*
X147984982Y-68155000D01*
X147867837Y-68145125D01*
X147695799Y-68084780D01*
X147615244Y-68027278D01*
X147546322Y-67911978D01*
X147461380Y-67529738D01*
X148317152Y-67529738D01*
X148362093Y-67716584D01*
X148494961Y-67748946D01*
X148649323Y-67764211D01*
X148806615Y-67723300D01*
X148823224Y-67645143D01*
X148739204Y-67563932D01*
X148610618Y-67537251D01*
X148412896Y-67529738D01*
X148317152Y-67529738D01*
X147461380Y-67529738D01*
X147399776Y-67252522D01*
X147388156Y-67193389D01*
X147371226Y-67066444D01*
X147365582Y-66941113D01*
X147366303Y-66912655D01*
X147388743Y-66787232D01*
X147447648Y-66666339D01*
X147452821Y-66658754D01*
X147564134Y-66550199D01*
X147717292Y-66470334D01*
X147850309Y-66431372D01*
X148049977Y-66403666D01*
X148249741Y-66396451D01*
X148350974Y-66396451D01*
X148550648Y-66396451D01*
X148666969Y-66396451D01*
X148863279Y-66396451D01*
X148928431Y-66404771D01*
G37*
G36*
X145305150Y-66904476D02*
G01*
X145386238Y-66904476D01*
X145479050Y-66904476D01*
X145674377Y-66924988D01*
X145755533Y-66952103D01*
X145898072Y-67037866D01*
X145929434Y-67066287D01*
X146015114Y-67178069D01*
X146028108Y-67204895D01*
X146070118Y-67322742D01*
X146200055Y-67891828D01*
X146271804Y-68012330D01*
X146366140Y-68079895D01*
X146544532Y-68142604D01*
X146683656Y-68155000D01*
X146880119Y-68125900D01*
X146970886Y-68080505D01*
X147052591Y-67966954D01*
X147049043Y-67894881D01*
X146779399Y-66702365D01*
X146706147Y-66582237D01*
X146610383Y-66513688D01*
X146439749Y-66450490D01*
X146289937Y-66435530D01*
X146094572Y-66464550D01*
X146031039Y-66491706D01*
X145924244Y-66595891D01*
X145912826Y-66639473D01*
X145873747Y-66639473D01*
X145732625Y-66546540D01*
X145561747Y-66482312D01*
X145550369Y-66479494D01*
X145351635Y-66445190D01*
X145170327Y-66435530D01*
X144982260Y-66473915D01*
X144916315Y-66510635D01*
X144842493Y-66627642D01*
X144848904Y-66673056D01*
X144925941Y-66788135D01*
X145004242Y-66837920D01*
X145183608Y-66895117D01*
X145305150Y-66904476D01*
G37*
G36*
X142642261Y-65936242D02*
G01*
X142812896Y-65998946D01*
X142914489Y-66073461D01*
X142981912Y-66188845D01*
X143061046Y-66537501D01*
X143110872Y-66537501D01*
X143166914Y-66496750D01*
X143336552Y-66431866D01*
X143461103Y-66408936D01*
X143662861Y-66396451D01*
X143797166Y-66400395D01*
X143999994Y-66425511D01*
X144180655Y-66478883D01*
X144192845Y-66484021D01*
X144355533Y-66566963D01*
X144487424Y-66667561D01*
X144569891Y-66759941D01*
X144636901Y-66876999D01*
X144646228Y-66901843D01*
X144686727Y-67022323D01*
X144804940Y-67567595D01*
X144813819Y-67627547D01*
X144816664Y-67753220D01*
X144805707Y-67821463D01*
X144746322Y-67943729D01*
X144686376Y-68006641D01*
X144538227Y-68093939D01*
X144529138Y-68097695D01*
X144340184Y-68143312D01*
X144135715Y-68155000D01*
X143978422Y-68155000D01*
X143794752Y-68146451D01*
X143609127Y-68109204D01*
X143597602Y-68105598D01*
X143443042Y-68028604D01*
X143392240Y-68028604D01*
X143389379Y-68032318D01*
X143249602Y-68122027D01*
X143224536Y-68129755D01*
X143026852Y-68155000D01*
X142856779Y-68136887D01*
X142686866Y-68072568D01*
X142573351Y-67986665D01*
X142509057Y-67869846D01*
X142315570Y-67007363D01*
X143182435Y-67007363D01*
X143195868Y-67132233D01*
X143257418Y-67422882D01*
X143290682Y-67528198D01*
X143359023Y-67645143D01*
X143427853Y-67693886D01*
X143623782Y-67725132D01*
X143811360Y-67706814D01*
X143910034Y-67645143D01*
X143933482Y-67528517D01*
X143926750Y-67468868D01*
X143905150Y-67346556D01*
X143876817Y-67208558D01*
X143863714Y-67149831D01*
X143826015Y-67024766D01*
X143824225Y-67020140D01*
X143749811Y-66906919D01*
X143623782Y-66844637D01*
X143426434Y-66826318D01*
X143348088Y-66830321D01*
X143198799Y-66909972D01*
X143182435Y-67007363D01*
X142315570Y-67007363D01*
X142131946Y-66188845D01*
X142128168Y-66115715D01*
X142208150Y-65998946D01*
X142296673Y-65951691D01*
X142492449Y-65921399D01*
X142642261Y-65936242D01*
G37*
G36*
X140579539Y-66332337D02*
G01*
X140513044Y-66216653D01*
X140413454Y-66142438D01*
X140244400Y-66079734D01*
X140094961Y-66064891D01*
X139898880Y-66095183D01*
X139808709Y-66142438D01*
X139726142Y-66258933D01*
X139729574Y-66332337D01*
X140044159Y-67725132D01*
X139335854Y-67725132D01*
X139146261Y-67761196D01*
X139096496Y-67789246D01*
X139021840Y-67903004D01*
X139026154Y-67940066D01*
X139104033Y-68053597D01*
X139163907Y-68091496D01*
X139342025Y-68148798D01*
X139430621Y-68155000D01*
X140567815Y-68155000D01*
X140764278Y-68126139D01*
X140855045Y-68081116D01*
X140936750Y-67969681D01*
X140933203Y-67899766D01*
X140579539Y-66332337D01*
G37*
G36*
X137888654Y-66404771D02*
G01*
X138056999Y-66467281D01*
X138096142Y-66494542D01*
X138177166Y-66609553D01*
X138181621Y-66647566D01*
X138109755Y-66762815D01*
X138061273Y-66790598D01*
X137873328Y-66826318D01*
X137759023Y-66826318D01*
X137676957Y-66826318D01*
X137662257Y-66826349D01*
X137460069Y-66834256D01*
X137293984Y-66878220D01*
X137285703Y-66882967D01*
X137196287Y-66994235D01*
X137177497Y-67080191D01*
X137181632Y-67205505D01*
X137238297Y-67205505D01*
X137406336Y-67158489D01*
X137508731Y-67145132D01*
X137710174Y-67138949D01*
X137814954Y-67142052D01*
X138014989Y-67165205D01*
X138116211Y-67186949D01*
X138293426Y-67251301D01*
X138397344Y-67312142D01*
X138512267Y-67413722D01*
X138523640Y-67426664D01*
X138598134Y-67544283D01*
X138639274Y-67667735D01*
X138654807Y-67801918D01*
X138621948Y-67934828D01*
X138521060Y-68040816D01*
X138497483Y-68054643D01*
X138314667Y-68118871D01*
X138108168Y-68147863D01*
X137907522Y-68155000D01*
X137792240Y-68155000D01*
X137626154Y-68142787D01*
X137446392Y-68106151D01*
X137299846Y-68042648D01*
X137249043Y-68042648D01*
X137128876Y-68123248D01*
X136945205Y-68155000D01*
X136828060Y-68145125D01*
X136656022Y-68084780D01*
X136575467Y-68027278D01*
X136506545Y-67911978D01*
X136421603Y-67529738D01*
X137277376Y-67529738D01*
X137322316Y-67716584D01*
X137455184Y-67748946D01*
X137609546Y-67764211D01*
X137766838Y-67723300D01*
X137783447Y-67645143D01*
X137699427Y-67563932D01*
X137570841Y-67537251D01*
X137373119Y-67529738D01*
X137277376Y-67529738D01*
X136421603Y-67529738D01*
X136360000Y-67252522D01*
X136348379Y-67193389D01*
X136331449Y-67066444D01*
X136325806Y-66941113D01*
X136326527Y-66912655D01*
X136348967Y-66787232D01*
X136407871Y-66666339D01*
X136413044Y-66658754D01*
X136524358Y-66550199D01*
X136677515Y-66470334D01*
X136810532Y-66431372D01*
X137010201Y-66403666D01*
X137209965Y-66396451D01*
X137311198Y-66396451D01*
X137510872Y-66396451D01*
X137627192Y-66396451D01*
X137823503Y-66396451D01*
X137888654Y-66404771D01*
G37*
G36*
X134984884Y-66400395D02*
G01*
X135187712Y-66425511D01*
X135368374Y-66478883D01*
X135392584Y-66489285D01*
X135552754Y-66573532D01*
X135675143Y-66668782D01*
X135757609Y-66761697D01*
X135824619Y-66879441D01*
X135833946Y-66904285D01*
X135874445Y-67024766D01*
X135986796Y-67526685D01*
X135996116Y-67586361D01*
X135998520Y-67712309D01*
X135985468Y-67787071D01*
X135925247Y-67904040D01*
X135857899Y-67971938D01*
X135714221Y-68054860D01*
X135705133Y-68058617D01*
X135516179Y-68104233D01*
X135311709Y-68115921D01*
X135154417Y-68112868D01*
X134971723Y-68096992D01*
X134789030Y-68056081D01*
X134777741Y-68052475D01*
X134624898Y-67975481D01*
X134575073Y-67975481D01*
X134597543Y-68073789D01*
X134600958Y-68089594D01*
X134664954Y-68207512D01*
X134783168Y-68279563D01*
X134932644Y-68307651D01*
X135097752Y-68311315D01*
X135256022Y-68301545D01*
X135413314Y-68278953D01*
X135491472Y-68272236D01*
X135571431Y-68277163D01*
X135753300Y-68334518D01*
X135810805Y-68371773D01*
X135891053Y-68487170D01*
X135894122Y-68506862D01*
X135841228Y-68627609D01*
X135823276Y-68641997D01*
X135649741Y-68702103D01*
X135533924Y-68715384D01*
X135334180Y-68731413D01*
X135223396Y-68736975D01*
X135019595Y-68741182D01*
X134952886Y-68740526D01*
X134732388Y-68727900D01*
X134532086Y-68699203D01*
X134327899Y-68646729D01*
X134150090Y-68573265D01*
X134109935Y-68551725D01*
X133969312Y-68453016D01*
X133860685Y-68334234D01*
X133791883Y-68213833D01*
X133747578Y-68078063D01*
X133505301Y-67009195D01*
X134370153Y-67009195D01*
X134383586Y-67134675D01*
X134439274Y-67381360D01*
X134468743Y-67487274D01*
X134535017Y-67605453D01*
X134603848Y-67654569D01*
X134799776Y-67686053D01*
X134988332Y-67667735D01*
X135087006Y-67605453D01*
X135112407Y-67487606D01*
X135107461Y-67427413D01*
X135087006Y-67303813D01*
X135064535Y-67212222D01*
X135051432Y-67152856D01*
X135013733Y-67026598D01*
X135011943Y-67021934D01*
X134937529Y-66907529D01*
X134811500Y-66844637D01*
X134614152Y-66826318D01*
X134535806Y-66830380D01*
X134386517Y-66911193D01*
X134370153Y-67009195D01*
X133505301Y-67009195D01*
X133432016Y-66685879D01*
X133433815Y-66594089D01*
X133522875Y-66481325D01*
X133639668Y-66423306D01*
X133831598Y-66396451D01*
X133893376Y-66398426D01*
X134086278Y-66436443D01*
X134242903Y-66522847D01*
X134298590Y-66522847D01*
X134348435Y-66486681D01*
X134524270Y-66424539D01*
X134648821Y-66406353D01*
X134850579Y-66396451D01*
X134984884Y-66400395D01*
G37*
G36*
X131744684Y-66396533D02*
G01*
X131957022Y-66406408D01*
X132148753Y-66432740D01*
X132335854Y-66480715D01*
X132456938Y-66525404D01*
X132618184Y-66603170D01*
X132754975Y-66693817D01*
X132832889Y-66760182D01*
X132932356Y-66865884D01*
X133010942Y-66978970D01*
X133037646Y-67027154D01*
X133094129Y-67149780D01*
X133134040Y-67277557D01*
X133143414Y-67322697D01*
X133155702Y-67452260D01*
X133148695Y-67576755D01*
X133142405Y-67615099D01*
X133098274Y-67742542D01*
X133019734Y-67859466D01*
X132982707Y-67898288D01*
X132852128Y-67995727D01*
X132695380Y-68071346D01*
X132531084Y-68118973D01*
X132332385Y-68146830D01*
X132121898Y-68155000D01*
X132099471Y-68154918D01*
X131886751Y-68145115D01*
X131695020Y-68118973D01*
X131508360Y-68071346D01*
X131387276Y-68026505D01*
X131226030Y-67949082D01*
X131089239Y-67859466D01*
X131020363Y-67802318D01*
X130912544Y-67689211D01*
X130836203Y-67576755D01*
X130810062Y-67528395D01*
X130754596Y-67405451D01*
X130715059Y-67277557D01*
X130705685Y-67232432D01*
X130694427Y-67113914D01*
X131533761Y-67113914D01*
X131536081Y-67154138D01*
X131553300Y-67277557D01*
X131562704Y-67319155D01*
X131604103Y-67441200D01*
X131617280Y-67470638D01*
X131691053Y-67585303D01*
X131697881Y-67593143D01*
X131826852Y-67687274D01*
X131831951Y-67689604D01*
X132020293Y-67725132D01*
X132195170Y-67687274D01*
X132285052Y-67585303D01*
X132292932Y-67564880D01*
X132312407Y-67441200D01*
X132311369Y-67400976D01*
X132295799Y-67277557D01*
X132286273Y-67235959D01*
X132243042Y-67113914D01*
X132228571Y-67084498D01*
X132153161Y-66970422D01*
X132146333Y-66962503D01*
X132017362Y-66866618D01*
X132012203Y-66864139D01*
X131822944Y-66826318D01*
X131649043Y-66866618D01*
X131559162Y-66970422D01*
X131551072Y-66990669D01*
X131533761Y-67113914D01*
X130694427Y-67113914D01*
X130693397Y-67103070D01*
X130700404Y-66978970D01*
X130706663Y-66940454D01*
X130750207Y-66812110D01*
X130827411Y-66693817D01*
X130863312Y-66654482D01*
X130991754Y-66556241D01*
X131147857Y-66480715D01*
X131312269Y-66432740D01*
X131511313Y-66404680D01*
X131722316Y-66396451D01*
X131744684Y-66396533D01*
G37*
G36*
X129001348Y-66396533D02*
G01*
X129213687Y-66406408D01*
X129405417Y-66432740D01*
X129592519Y-66480715D01*
X129713602Y-66525404D01*
X129874848Y-66603170D01*
X130011639Y-66693817D01*
X130089553Y-66760182D01*
X130189021Y-66865884D01*
X130267606Y-66978970D01*
X130294310Y-67027154D01*
X130350794Y-67149780D01*
X130390704Y-67277557D01*
X130400078Y-67322697D01*
X130412367Y-67452260D01*
X130405359Y-67576755D01*
X130399070Y-67615099D01*
X130354938Y-67742542D01*
X130276399Y-67859466D01*
X130239371Y-67898288D01*
X130108793Y-67995727D01*
X129952044Y-68071346D01*
X129787748Y-68118973D01*
X129589050Y-68146830D01*
X129378562Y-68155000D01*
X129356136Y-68154918D01*
X129143415Y-68145115D01*
X128951685Y-68118973D01*
X128765024Y-68071346D01*
X128643941Y-68026505D01*
X128482694Y-67949082D01*
X128345903Y-67859466D01*
X128277028Y-67802318D01*
X128169209Y-67689211D01*
X128092868Y-67576755D01*
X128066726Y-67528395D01*
X128011260Y-67405451D01*
X127971723Y-67277557D01*
X127962349Y-67232432D01*
X127951091Y-67113914D01*
X128790425Y-67113914D01*
X128792745Y-67154138D01*
X128809965Y-67277557D01*
X128819368Y-67319155D01*
X128860767Y-67441200D01*
X128873945Y-67470638D01*
X128947718Y-67585303D01*
X128954545Y-67593143D01*
X129083517Y-67687274D01*
X129088615Y-67689604D01*
X129276957Y-67725132D01*
X129451835Y-67687274D01*
X129541716Y-67585303D01*
X129549597Y-67564880D01*
X129569071Y-67441200D01*
X129568033Y-67400976D01*
X129552463Y-67277557D01*
X129542937Y-67235959D01*
X129499706Y-67113914D01*
X129485235Y-67084498D01*
X129409825Y-66970422D01*
X129402998Y-66962503D01*
X129274026Y-66866618D01*
X129268867Y-66864139D01*
X129079609Y-66826318D01*
X128905708Y-66866618D01*
X128815826Y-66970422D01*
X128807736Y-66990669D01*
X128790425Y-67113914D01*
X127951091Y-67113914D01*
X127950061Y-67103070D01*
X127957069Y-66978970D01*
X127963327Y-66940454D01*
X128006871Y-66812110D01*
X128084075Y-66693817D01*
X128119977Y-66654482D01*
X128248418Y-66556241D01*
X128404521Y-66480715D01*
X128568933Y-66432740D01*
X128767978Y-66404680D01*
X128978981Y-66396451D01*
X129001348Y-66396533D01*
G37*
G36*
X127400195Y-66687711D02*
G01*
X127335350Y-66569422D01*
X127220432Y-66481936D01*
X127047470Y-66415234D01*
X126876538Y-66396451D01*
X126684304Y-66426371D01*
X126660628Y-66435530D01*
X126523413Y-66525904D01*
X126517013Y-66533227D01*
X126460348Y-66533227D01*
X126305102Y-66454623D01*
X126294263Y-66450795D01*
X126120362Y-66408663D01*
X125959162Y-66396451D01*
X125846810Y-66396451D01*
X125646272Y-66403664D01*
X125447762Y-66432966D01*
X125394473Y-66447742D01*
X125233356Y-66516966D01*
X125158046Y-66574748D01*
X125083832Y-66689898D01*
X125074026Y-66738391D01*
X125075125Y-66862382D01*
X125081842Y-66900202D01*
X125306545Y-67890607D01*
X125373040Y-68005904D01*
X125472630Y-68079284D01*
X125651366Y-68142504D01*
X125791123Y-68155000D01*
X125987586Y-68124946D01*
X126078353Y-68078063D01*
X126160058Y-67960780D01*
X126156510Y-67886332D01*
X126004103Y-67198789D01*
X125982184Y-67073254D01*
X125976748Y-67019881D01*
X125999218Y-66905087D01*
X126094961Y-66844637D01*
X126280586Y-66826318D01*
X126470380Y-66855379D01*
X126550230Y-66908750D01*
X126621398Y-67025581D01*
X126651835Y-67127348D01*
X126820851Y-67886332D01*
X126886865Y-68003497D01*
X126986936Y-68078063D01*
X127155200Y-68140273D01*
X127304452Y-68155000D01*
X127500915Y-68125185D01*
X127591681Y-68078674D01*
X127673386Y-67962455D01*
X127669839Y-67888775D01*
X127400195Y-66687711D01*
G37*
G36*
X124854207Y-67920526D02*
G01*
X124783021Y-67805701D01*
X124691053Y-67747725D01*
X124506879Y-67694726D01*
X124381353Y-67686053D01*
X124189470Y-67710144D01*
X124099986Y-67747725D01*
X124015656Y-67861681D01*
X124020851Y-67920526D01*
X124093208Y-68038498D01*
X124179120Y-68092107D01*
X124362913Y-68146155D01*
X124487843Y-68155000D01*
X124680108Y-68130432D01*
X124770188Y-68092107D01*
X124856646Y-67978041D01*
X124854207Y-67920526D01*
G37*
D11*
G36*
X212859488Y-52153463D02*
G01*
X212954247Y-52334622D01*
X213021744Y-52661510D01*
X213025780Y-53030525D01*
X212966952Y-53376807D01*
X212845855Y-53635498D01*
X212670377Y-53858583D01*
X209967189Y-53858583D01*
X207264000Y-53858583D01*
X207261308Y-58875083D01*
X207260758Y-59939508D01*
X207259660Y-60852525D01*
X207256997Y-61621802D01*
X207251752Y-62260164D01*
X207242903Y-62780436D01*
X207229433Y-63195443D01*
X207210322Y-63518009D01*
X207184551Y-63760961D01*
X207151100Y-63937123D01*
X207108951Y-64059319D01*
X207057084Y-64140376D01*
X206994481Y-64193118D01*
X206920121Y-64230369D01*
X206832986Y-64264956D01*
X206618900Y-64318246D01*
X206276718Y-64348140D01*
X205902281Y-64342929D01*
X205561839Y-64304020D01*
X205321642Y-64232822D01*
X205130659Y-64074553D01*
X204987180Y-63839188D01*
X204967845Y-63732075D01*
X204947650Y-63472836D01*
X204930757Y-63067599D01*
X204917095Y-62512480D01*
X204906593Y-61803593D01*
X204899179Y-60937052D01*
X204894783Y-59908974D01*
X204893334Y-58715472D01*
X204893334Y-53860962D01*
X202205167Y-53838606D01*
X199517000Y-53816250D01*
X199474667Y-52937427D01*
X199464802Y-52713603D01*
X199457602Y-52380992D01*
X199469146Y-52172132D01*
X199502151Y-52057130D01*
X199559334Y-52006094D01*
X199564924Y-52004710D01*
X199694306Y-51996414D01*
X199977591Y-51988546D01*
X200401510Y-51981209D01*
X200952791Y-51974510D01*
X201618166Y-51968554D01*
X202384363Y-51963444D01*
X203238115Y-51959288D01*
X204166149Y-51956189D01*
X205155197Y-51954252D01*
X206191988Y-51953583D01*
X212697642Y-51953583D01*
X212859488Y-52153463D01*
G37*
G36*
X147074366Y-51916845D02*
G01*
X147313721Y-51944429D01*
X147482324Y-52006542D01*
X147632779Y-52115628D01*
X147870334Y-52320007D01*
X147870334Y-57047462D01*
X147870330Y-57204120D01*
X147869974Y-58199644D01*
X147868725Y-59042178D01*
X147866132Y-59746005D01*
X147861745Y-60325412D01*
X147855112Y-60794686D01*
X147845785Y-61168112D01*
X147833312Y-61459975D01*
X147817242Y-61684562D01*
X147797126Y-61856158D01*
X147772512Y-61989051D01*
X147742951Y-62097524D01*
X147707992Y-62195865D01*
X147604648Y-62425174D01*
X147245795Y-62942527D01*
X146750111Y-63386724D01*
X146133090Y-63747877D01*
X145410227Y-64016095D01*
X144597015Y-64181489D01*
X144531267Y-64187799D01*
X144278675Y-64200860D01*
X143892265Y-64212753D01*
X143389868Y-64223432D01*
X142789317Y-64232854D01*
X142108443Y-64240974D01*
X141365077Y-64247747D01*
X140577053Y-64253129D01*
X139762202Y-64257076D01*
X138938355Y-64259542D01*
X138123344Y-64260483D01*
X137335001Y-64259856D01*
X136591158Y-64257614D01*
X135909646Y-64253715D01*
X135308298Y-64248113D01*
X134804945Y-64240763D01*
X134417419Y-64231622D01*
X134163552Y-64220645D01*
X134061175Y-64207787D01*
X133942007Y-64079204D01*
X133822892Y-63843633D01*
X133773334Y-63607772D01*
X133789230Y-63512441D01*
X133866015Y-63284548D01*
X133985000Y-63018410D01*
X134069326Y-62843324D01*
X134161035Y-62629343D01*
X134196667Y-62510544D01*
X134229939Y-62496722D01*
X134420455Y-62476099D01*
X134779516Y-62457229D01*
X135306639Y-62440124D01*
X136001346Y-62424797D01*
X136863156Y-62411258D01*
X137891590Y-62399521D01*
X139086167Y-62389597D01*
X140084662Y-62382433D01*
X140968096Y-62375511D01*
X141710241Y-62368520D01*
X142325375Y-62360865D01*
X142827776Y-62351953D01*
X143231724Y-62341189D01*
X143551497Y-62327977D01*
X143801374Y-62311722D01*
X143995633Y-62291831D01*
X144148553Y-62267708D01*
X144274413Y-62238759D01*
X144387492Y-62204388D01*
X144502067Y-62164001D01*
X144950354Y-61952629D01*
X145285234Y-61680465D01*
X145542000Y-61388024D01*
X145542000Y-56949954D01*
X145542597Y-56221939D01*
X145546033Y-55202150D01*
X145552610Y-54343820D01*
X145562424Y-53642135D01*
X145575573Y-53092281D01*
X145592154Y-52689445D01*
X145612265Y-52428812D01*
X145636004Y-52305570D01*
X145763079Y-52125149D01*
X145978636Y-52000014D01*
X146304866Y-51931865D01*
X146768930Y-51911250D01*
X147074366Y-51916845D01*
G37*
G36*
X69270654Y-54630751D02*
G01*
X70088750Y-54644382D01*
X70827920Y-54669303D01*
X71443149Y-54705514D01*
X72069298Y-54770694D01*
X72911628Y-54927874D01*
X73613799Y-55157810D01*
X74185542Y-55464973D01*
X74636584Y-55853832D01*
X74976655Y-56328856D01*
X75226334Y-56779583D01*
X75250994Y-60313454D01*
X75252906Y-60591086D01*
X75257993Y-61447180D01*
X75259702Y-62153495D01*
X75256700Y-62725193D01*
X75247656Y-63177436D01*
X75231238Y-63525385D01*
X75206115Y-63784204D01*
X75170953Y-63969053D01*
X75124423Y-64095094D01*
X75065191Y-64177490D01*
X74991927Y-64231402D01*
X74903299Y-64271992D01*
X74726389Y-64321445D01*
X74385373Y-64354202D01*
X74003639Y-64340767D01*
X73633286Y-64286800D01*
X73326418Y-64197961D01*
X73135136Y-64079909D01*
X73133774Y-64069482D01*
X73128321Y-63931907D01*
X73121163Y-63649048D01*
X73112636Y-63239000D01*
X73103082Y-62719856D01*
X73092837Y-62109710D01*
X73082243Y-61426658D01*
X73071636Y-60688793D01*
X73025000Y-57316669D01*
X72719004Y-57036362D01*
X72670454Y-56993203D01*
X72493740Y-56860244D01*
X72291122Y-56752032D01*
X72044682Y-56666136D01*
X71736500Y-56600124D01*
X71348659Y-56551567D01*
X70863240Y-56518031D01*
X70262326Y-56497088D01*
X69527997Y-56486304D01*
X68642337Y-56483250D01*
X68145468Y-56484050D01*
X67361454Y-56490327D01*
X66717517Y-56504328D01*
X66194817Y-56527823D01*
X65774518Y-56562581D01*
X65437778Y-56610370D01*
X65165760Y-56672960D01*
X64939625Y-56752119D01*
X64740533Y-56849617D01*
X64701189Y-56871605D01*
X64569759Y-56948949D01*
X64462382Y-57030454D01*
X64376629Y-57132636D01*
X64310067Y-57272013D01*
X64260267Y-57465102D01*
X64224798Y-57728421D01*
X64201229Y-58078486D01*
X64187129Y-58531815D01*
X64180067Y-59104925D01*
X64177612Y-59814334D01*
X64177334Y-60676558D01*
X64177334Y-63862275D01*
X63920988Y-64118621D01*
X63823192Y-64213079D01*
X63699200Y-64302750D01*
X63553019Y-64346582D01*
X63335698Y-64356569D01*
X62998283Y-64344706D01*
X62815117Y-64338796D01*
X62604392Y-64332880D01*
X62431719Y-64316143D01*
X62293447Y-64274176D01*
X62185924Y-64192569D01*
X62105499Y-64056915D01*
X62048522Y-63852803D01*
X62011340Y-63565825D01*
X61990304Y-63181572D01*
X61981762Y-62685634D01*
X61982063Y-62063604D01*
X61987555Y-61301071D01*
X61994588Y-60383627D01*
X62018334Y-56779583D01*
X62229446Y-56366195D01*
X62434847Y-56036970D01*
X62847691Y-55613962D01*
X63392127Y-55271825D01*
X64073724Y-55008019D01*
X64898048Y-54820003D01*
X65870667Y-54705239D01*
X66109320Y-54689182D01*
X66792965Y-54657627D01*
X67577747Y-54637371D01*
X68418648Y-54628413D01*
X69270654Y-54630751D01*
G37*
G36*
X182368217Y-58144108D02*
G01*
X182370549Y-58709182D01*
X182371173Y-59422240D01*
X182371148Y-59766805D01*
X182369607Y-60420221D01*
X182365004Y-60935721D01*
X182356096Y-61334977D01*
X182341640Y-61639655D01*
X182320393Y-61871426D01*
X182291112Y-62051958D01*
X182252554Y-62202921D01*
X182203477Y-62345984D01*
X182132460Y-62512156D01*
X181806395Y-63001507D01*
X181339603Y-63422784D01*
X180746530Y-63767007D01*
X180041625Y-64025197D01*
X179239334Y-64188372D01*
X179207006Y-64192240D01*
X178950798Y-64211430D01*
X178565780Y-64229043D01*
X178085809Y-64243986D01*
X177544747Y-64255163D01*
X176976452Y-64261482D01*
X175179237Y-64272583D01*
X175040433Y-64060742D01*
X175005225Y-63988498D01*
X174949951Y-63737666D01*
X174931084Y-63419118D01*
X174947091Y-63091435D01*
X174996436Y-62813197D01*
X175077584Y-62642986D01*
X175164238Y-62605688D01*
X175386846Y-62567983D01*
X175749989Y-62535203D01*
X176263260Y-62506515D01*
X176936253Y-62481081D01*
X177040283Y-62477646D01*
X177582862Y-62455864D01*
X178079491Y-62429815D01*
X178499337Y-62401527D01*
X178811562Y-62373029D01*
X178985334Y-62346346D01*
X179150778Y-62298123D01*
X179613874Y-62095357D01*
X179930713Y-61823312D01*
X180112556Y-61469395D01*
X180170667Y-61021013D01*
X180170667Y-60547250D01*
X175027167Y-60543563D01*
X174112887Y-60541792D01*
X173224911Y-60537873D01*
X172394525Y-60532031D01*
X171637692Y-60524484D01*
X170970376Y-60515448D01*
X170408540Y-60505139D01*
X169968147Y-60493776D01*
X169665161Y-60481573D01*
X169515544Y-60468748D01*
X169475920Y-60461069D01*
X169275430Y-60416501D01*
X169124707Y-60356864D01*
X169016745Y-60260120D01*
X168944534Y-60104231D01*
X168901066Y-59867161D01*
X168879332Y-59526871D01*
X168872323Y-59061324D01*
X168872759Y-58684583D01*
X171004910Y-58684583D01*
X175587789Y-58684583D01*
X180170667Y-58684583D01*
X180170667Y-58039622D01*
X180169432Y-57804321D01*
X180154742Y-57555980D01*
X180108928Y-57387787D01*
X180014299Y-57246136D01*
X179853167Y-57077420D01*
X179695322Y-56934300D01*
X179520677Y-56814219D01*
X179314407Y-56717197D01*
X179059305Y-56640874D01*
X178738164Y-56582886D01*
X178333777Y-56540873D01*
X177828936Y-56512471D01*
X177206434Y-56495320D01*
X176449065Y-56487057D01*
X175539620Y-56485320D01*
X174734721Y-56487466D01*
X174036167Y-56493936D01*
X173468070Y-56506289D01*
X173010529Y-56526111D01*
X172643646Y-56554990D01*
X172347520Y-56594514D01*
X172102253Y-56646269D01*
X171887945Y-56711843D01*
X171684696Y-56792824D01*
X171609830Y-56827567D01*
X171358961Y-56996556D01*
X171192595Y-57230283D01*
X171093127Y-57562616D01*
X171042953Y-58027422D01*
X171004910Y-58684583D01*
X168872759Y-58684583D01*
X168873032Y-58448483D01*
X168875597Y-58005619D01*
X168886015Y-57464097D01*
X168909540Y-57046119D01*
X168952048Y-56724220D01*
X169019414Y-56470938D01*
X169117516Y-56258810D01*
X169252230Y-56060374D01*
X169429432Y-55848166D01*
X169553022Y-55716910D01*
X169862028Y-55457877D01*
X170231445Y-55239412D01*
X170674753Y-55058856D01*
X171205427Y-54913550D01*
X171836945Y-54800835D01*
X172582784Y-54718052D01*
X173456421Y-54662543D01*
X174471334Y-54631649D01*
X175641000Y-54622710D01*
X176222145Y-54625726D01*
X177341142Y-54649842D01*
X178310481Y-54701008D01*
X179142593Y-54782829D01*
X179849908Y-54898914D01*
X180444858Y-55052868D01*
X180939873Y-55248300D01*
X181347384Y-55488815D01*
X181679822Y-55778021D01*
X181949617Y-56119525D01*
X182169201Y-56516933D01*
X182179437Y-56538973D01*
X182235272Y-56665887D01*
X182279011Y-56791351D01*
X182312139Y-56936713D01*
X182336140Y-57123323D01*
X182352497Y-57372527D01*
X182362695Y-57705673D01*
X182366901Y-58039622D01*
X182368217Y-58144108D01*
G37*
G36*
X89568028Y-57705673D02*
G01*
X89573551Y-58144108D01*
X89575882Y-58709182D01*
X89576507Y-59422240D01*
X89576481Y-59766805D01*
X89574941Y-60420221D01*
X89570338Y-60935721D01*
X89561429Y-61334977D01*
X89546973Y-61639655D01*
X89525726Y-61871426D01*
X89496445Y-62051958D01*
X89457887Y-62202921D01*
X89408810Y-62345984D01*
X89347792Y-62491262D01*
X89026755Y-62985085D01*
X88563154Y-63410021D01*
X87969760Y-63758117D01*
X87259341Y-64021420D01*
X86444667Y-64191978D01*
X86408253Y-64196098D01*
X86177682Y-64209454D01*
X85804941Y-64220676D01*
X85311211Y-64229523D01*
X84717671Y-64235753D01*
X84045503Y-64239126D01*
X83315886Y-64239399D01*
X82550000Y-64236333D01*
X79121000Y-64215073D01*
X78440807Y-63992248D01*
X78366178Y-63967310D01*
X77695654Y-63685703D01*
X77166494Y-63340168D01*
X76759224Y-62915044D01*
X76454370Y-62394668D01*
X76425542Y-62327893D01*
X76383562Y-62206705D01*
X76351041Y-62061587D01*
X76326765Y-61871769D01*
X76309518Y-61616480D01*
X76298086Y-61274946D01*
X76291253Y-60826397D01*
X76287805Y-60250061D01*
X76286527Y-59525166D01*
X76286529Y-59511729D01*
X78486000Y-59511729D01*
X78486001Y-59531156D01*
X78486743Y-60166904D01*
X78490089Y-60656215D01*
X78497789Y-61021380D01*
X78511592Y-61284688D01*
X78533247Y-61468433D01*
X78564502Y-61594904D01*
X78607106Y-61686392D01*
X78662810Y-61765190D01*
X78673884Y-61779059D01*
X78954528Y-62032612D01*
X79348772Y-62228075D01*
X79883000Y-62378712D01*
X80111532Y-62410311D01*
X80493948Y-62438116D01*
X80991102Y-62459674D01*
X81574814Y-62475002D01*
X82216903Y-62484116D01*
X82889191Y-62487030D01*
X83563496Y-62483762D01*
X84211640Y-62474328D01*
X84805443Y-62458743D01*
X85316723Y-62437023D01*
X85717303Y-62409185D01*
X85979000Y-62375245D01*
X86067112Y-62356654D01*
X86570520Y-62207913D01*
X86939200Y-62007655D01*
X87199992Y-61741957D01*
X87201506Y-61739828D01*
X87256413Y-61653774D01*
X87298433Y-61555119D01*
X87329282Y-61421472D01*
X87350675Y-61230444D01*
X87364328Y-60959644D01*
X87371956Y-60586684D01*
X87375275Y-60089172D01*
X87376000Y-59444719D01*
X87376000Y-57394662D01*
X87058500Y-57077420D01*
X86971798Y-56995185D01*
X86798283Y-56860253D01*
X86598027Y-56750847D01*
X86353214Y-56664390D01*
X86046029Y-56598304D01*
X85658658Y-56550012D01*
X85173285Y-56516938D01*
X84572095Y-56496504D01*
X83837273Y-56486134D01*
X82951003Y-56483250D01*
X82549905Y-56483769D01*
X81745886Y-56489444D01*
X81084452Y-56502738D01*
X80547048Y-56525345D01*
X80115119Y-56558958D01*
X79770109Y-56605271D01*
X79493463Y-56665977D01*
X79266626Y-56742769D01*
X79071041Y-56837342D01*
X78931475Y-56918762D01*
X78789066Y-57022476D01*
X78680743Y-57146621D01*
X78601850Y-57312470D01*
X78547736Y-57541292D01*
X78513747Y-57854359D01*
X78495230Y-58272940D01*
X78487532Y-58818306D01*
X78486000Y-59511729D01*
X76286529Y-59511729D01*
X76286593Y-59077158D01*
X76290139Y-58364488D01*
X76300734Y-57789793D01*
X76321453Y-57332701D01*
X76355365Y-56972838D01*
X76405545Y-56689833D01*
X76475064Y-56463311D01*
X76566996Y-56272901D01*
X76684412Y-56098230D01*
X76830384Y-55918924D01*
X76856638Y-55888717D01*
X77163977Y-55594213D01*
X77533622Y-55344713D01*
X77978760Y-55137437D01*
X78512576Y-54969609D01*
X79148256Y-54838452D01*
X79898985Y-54741187D01*
X80777951Y-54675037D01*
X81798339Y-54637225D01*
X82973334Y-54624974D01*
X83191512Y-54625274D01*
X84350561Y-54642204D01*
X85356517Y-54687677D01*
X86221730Y-54765342D01*
X86958545Y-54878849D01*
X87579310Y-55031847D01*
X88096372Y-55227985D01*
X88522078Y-55470914D01*
X88868776Y-55764282D01*
X89148812Y-56111738D01*
X89374534Y-56516933D01*
X89384770Y-56538973D01*
X89440605Y-56665887D01*
X89484345Y-56791351D01*
X89517473Y-56936713D01*
X89541473Y-57123323D01*
X89557830Y-57372527D01*
X89558508Y-57394662D01*
X89568028Y-57705673D01*
G37*
G36*
X103792028Y-57705673D02*
G01*
X103797551Y-58144108D01*
X103799882Y-58709182D01*
X103800507Y-59422240D01*
X103800481Y-59766805D01*
X103798941Y-60420221D01*
X103794338Y-60935721D01*
X103785429Y-61334977D01*
X103770973Y-61639655D01*
X103749726Y-61871426D01*
X103720445Y-62051958D01*
X103681887Y-62202921D01*
X103632810Y-62345984D01*
X103571792Y-62491262D01*
X103250755Y-62985085D01*
X102787154Y-63410021D01*
X102193760Y-63758117D01*
X101483341Y-64021420D01*
X100668667Y-64191978D01*
X100632253Y-64196098D01*
X100401682Y-64209454D01*
X100028941Y-64220676D01*
X99535211Y-64229523D01*
X98941671Y-64235753D01*
X98269503Y-64239126D01*
X97539886Y-64239399D01*
X96774000Y-64236333D01*
X93345000Y-64215073D01*
X92664807Y-63992248D01*
X92590178Y-63967310D01*
X91919654Y-63685703D01*
X91390494Y-63340168D01*
X90983224Y-62915044D01*
X90678370Y-62394668D01*
X90649542Y-62327893D01*
X90607562Y-62206705D01*
X90575041Y-62061587D01*
X90550765Y-61871769D01*
X90533518Y-61616480D01*
X90522086Y-61274946D01*
X90515253Y-60826397D01*
X90511805Y-60250061D01*
X90510527Y-59525166D01*
X90510529Y-59511729D01*
X92710000Y-59511729D01*
X92710001Y-59531156D01*
X92710743Y-60166904D01*
X92714089Y-60656215D01*
X92721789Y-61021380D01*
X92735592Y-61284688D01*
X92757247Y-61468433D01*
X92788502Y-61594904D01*
X92831106Y-61686392D01*
X92886810Y-61765190D01*
X92897884Y-61779059D01*
X93178528Y-62032612D01*
X93572772Y-62228075D01*
X94107000Y-62378712D01*
X94335532Y-62410311D01*
X94717948Y-62438116D01*
X95215102Y-62459674D01*
X95798814Y-62475002D01*
X96440903Y-62484116D01*
X97113191Y-62487030D01*
X97787496Y-62483762D01*
X98435640Y-62474328D01*
X99029443Y-62458743D01*
X99540723Y-62437023D01*
X99941303Y-62409185D01*
X100203000Y-62375245D01*
X100291112Y-62356654D01*
X100794520Y-62207913D01*
X101163200Y-62007655D01*
X101423992Y-61741957D01*
X101425506Y-61739828D01*
X101480413Y-61653774D01*
X101522433Y-61555119D01*
X101553282Y-61421472D01*
X101574675Y-61230444D01*
X101588328Y-60959644D01*
X101595956Y-60586684D01*
X101599275Y-60089172D01*
X101600000Y-59444719D01*
X101600000Y-57394662D01*
X101282500Y-57077420D01*
X101195798Y-56995185D01*
X101022283Y-56860253D01*
X100822027Y-56750847D01*
X100577214Y-56664390D01*
X100270029Y-56598304D01*
X99882658Y-56550012D01*
X99397285Y-56516938D01*
X98796095Y-56496504D01*
X98061273Y-56486134D01*
X97175003Y-56483250D01*
X96773905Y-56483769D01*
X95969886Y-56489444D01*
X95308452Y-56502738D01*
X94771048Y-56525345D01*
X94339119Y-56558958D01*
X93994109Y-56605271D01*
X93717463Y-56665977D01*
X93490626Y-56742769D01*
X93295041Y-56837342D01*
X93155475Y-56918762D01*
X93013066Y-57022476D01*
X92904743Y-57146621D01*
X92825850Y-57312470D01*
X92771736Y-57541292D01*
X92737747Y-57854359D01*
X92719230Y-58272940D01*
X92711532Y-58818306D01*
X92710000Y-59511729D01*
X90510529Y-59511729D01*
X90510593Y-59077158D01*
X90514139Y-58364488D01*
X90524734Y-57789793D01*
X90545453Y-57332701D01*
X90579365Y-56972838D01*
X90629545Y-56689833D01*
X90699064Y-56463311D01*
X90790996Y-56272901D01*
X90908412Y-56098230D01*
X91054384Y-55918924D01*
X91080638Y-55888717D01*
X91387977Y-55594213D01*
X91757622Y-55344713D01*
X92202760Y-55137437D01*
X92736576Y-54969609D01*
X93372256Y-54838452D01*
X94122985Y-54741187D01*
X95001951Y-54675037D01*
X96022339Y-54637225D01*
X97197334Y-54624974D01*
X97415512Y-54625274D01*
X98574561Y-54642204D01*
X99580517Y-54687677D01*
X100445730Y-54765342D01*
X101182545Y-54878849D01*
X101803310Y-55031847D01*
X102320372Y-55227985D01*
X102746078Y-55470914D01*
X103092776Y-55764282D01*
X103372812Y-56111738D01*
X103598534Y-56516933D01*
X103608770Y-56538973D01*
X103664605Y-56665887D01*
X103708345Y-56791351D01*
X103741473Y-56936713D01*
X103765473Y-57123323D01*
X103781830Y-57372527D01*
X103782508Y-57394662D01*
X103792028Y-57705673D01*
G37*
G36*
X167113680Y-51910592D02*
G01*
X167449501Y-51982561D01*
X167698779Y-52115543D01*
X167936334Y-52319837D01*
X167960415Y-57874171D01*
X167962463Y-58389435D01*
X167965507Y-59608731D01*
X167965256Y-60664114D01*
X167961662Y-61559473D01*
X167954682Y-62298698D01*
X167944271Y-62885678D01*
X167930382Y-63324301D01*
X167912972Y-63618457D01*
X167891994Y-63772034D01*
X167862665Y-63869032D01*
X167737810Y-64095768D01*
X167529246Y-64237507D01*
X167470879Y-64260532D01*
X167125497Y-64326845D01*
X166650525Y-64335810D01*
X166419852Y-64323473D01*
X166154491Y-64288176D01*
X165973612Y-64221241D01*
X165825025Y-64108283D01*
X165608000Y-63904399D01*
X165608000Y-61633158D01*
X165607689Y-61366173D01*
X165602631Y-60638155D01*
X165591309Y-60076152D01*
X165573630Y-59677733D01*
X165549495Y-59440465D01*
X165518812Y-59361917D01*
X165508605Y-59364293D01*
X165380080Y-59420710D01*
X165126619Y-59544716D01*
X164767751Y-59726348D01*
X164323003Y-59955644D01*
X163811903Y-60222641D01*
X163253978Y-60517377D01*
X162189281Y-61082807D01*
X161204182Y-61605915D01*
X160348519Y-62060221D01*
X159611982Y-62451190D01*
X158984262Y-62784284D01*
X158455050Y-63064969D01*
X158014035Y-63298707D01*
X157650909Y-63490963D01*
X157355363Y-63647201D01*
X157117086Y-63772884D01*
X156925770Y-63873477D01*
X156771104Y-63954443D01*
X156642780Y-64021246D01*
X156560867Y-64062051D01*
X156082184Y-64242019D01*
X155593224Y-64340325D01*
X155126282Y-64358053D01*
X154713652Y-64296286D01*
X154387630Y-64156109D01*
X154180510Y-63938606D01*
X154095779Y-63660089D01*
X154137521Y-63319893D01*
X154326167Y-63012861D01*
X154430779Y-62932517D01*
X154685917Y-62774341D01*
X155071985Y-62554180D01*
X155577289Y-62278400D01*
X156190133Y-61953364D01*
X156898824Y-61585439D01*
X157691667Y-61180991D01*
X158315487Y-60865296D01*
X159346931Y-60343351D01*
X160241917Y-59890274D01*
X161009847Y-59501029D01*
X161660122Y-59170581D01*
X162202144Y-58893896D01*
X162645316Y-58665938D01*
X162999039Y-58481671D01*
X163272715Y-58336061D01*
X163475746Y-58224073D01*
X163617534Y-58140670D01*
X163707481Y-58080819D01*
X163754990Y-58039483D01*
X163769461Y-58011628D01*
X163760297Y-57992218D01*
X163736900Y-57976219D01*
X163708672Y-57958594D01*
X163645767Y-57922496D01*
X163440205Y-57813589D01*
X163107864Y-57641380D01*
X162662713Y-57412990D01*
X162118721Y-57135540D01*
X161489856Y-56816149D01*
X160790086Y-56461938D01*
X160033380Y-56080027D01*
X159233706Y-55677536D01*
X158639690Y-55378028D01*
X157864136Y-54984105D01*
X157139418Y-54612755D01*
X156479931Y-54271528D01*
X155900071Y-53967973D01*
X155414235Y-53709642D01*
X155036820Y-53504083D01*
X154782220Y-53358847D01*
X154664834Y-53281483D01*
X154654524Y-53271796D01*
X154481111Y-53037997D01*
X154432000Y-52749001D01*
X154433580Y-52642723D01*
X154471001Y-52358529D01*
X154577059Y-52173231D01*
X154776723Y-52035118D01*
X154790932Y-52028150D01*
X155043505Y-51958712D01*
X155396904Y-51920568D01*
X155790257Y-51914817D01*
X156162690Y-51942556D01*
X156453329Y-52004883D01*
X156544681Y-52045402D01*
X156780184Y-52161990D01*
X157132480Y-52342535D01*
X157583657Y-52577539D01*
X158115801Y-52857502D01*
X158711001Y-53172925D01*
X159351343Y-53514309D01*
X160018917Y-53872155D01*
X160695808Y-54236964D01*
X161364106Y-54599236D01*
X162005896Y-54949472D01*
X162079947Y-54989998D01*
X162555752Y-55248796D01*
X163061015Y-55521274D01*
X163573438Y-55795648D01*
X164070721Y-56060137D01*
X164530566Y-56302958D01*
X164930674Y-56512329D01*
X165248746Y-56676467D01*
X165462484Y-56783590D01*
X165549589Y-56821917D01*
X165564006Y-56753839D01*
X165578264Y-56537419D01*
X165590385Y-56194311D01*
X165599776Y-55746780D01*
X165605846Y-55217091D01*
X165608000Y-54627508D01*
X165609512Y-54101910D01*
X165614630Y-53547014D01*
X165622842Y-53064823D01*
X165633603Y-52679493D01*
X165646369Y-52415181D01*
X165660594Y-52296043D01*
X165769875Y-52156258D01*
X166019413Y-52022470D01*
X166355391Y-51934376D01*
X166734561Y-51895807D01*
X167113680Y-51910592D01*
G37*
G36*
X133422895Y-60348166D02*
G01*
X133434719Y-60873061D01*
X133419500Y-61395280D01*
X133377271Y-61860113D01*
X133308059Y-62212850D01*
X133192335Y-62510614D01*
X132867319Y-62997197D01*
X132402317Y-63417424D01*
X131810790Y-63762433D01*
X131106197Y-64023366D01*
X130302000Y-64191362D01*
X130185262Y-64201078D01*
X129893040Y-64212855D01*
X129465466Y-64222712D01*
X128922159Y-64230446D01*
X128282740Y-64235854D01*
X127566827Y-64238731D01*
X126794040Y-64238876D01*
X125984000Y-64236085D01*
X125943376Y-64235870D01*
X125021934Y-64230344D01*
X124252830Y-64223990D01*
X123619725Y-64216177D01*
X123106282Y-64206274D01*
X122696165Y-64193649D01*
X122373037Y-64177672D01*
X122120560Y-64157711D01*
X121922397Y-64133135D01*
X121762212Y-64103312D01*
X121623667Y-64067612D01*
X121619076Y-64066271D01*
X120894199Y-63804767D01*
X120310042Y-63479623D01*
X119845291Y-63076047D01*
X119478628Y-62579250D01*
X119253000Y-62198250D01*
X119253000Y-59488917D01*
X119253000Y-59192583D01*
X121396123Y-59192583D01*
X121425228Y-60411510D01*
X121434591Y-60760922D01*
X121450739Y-61151034D01*
X121473513Y-61421940D01*
X121507121Y-61603449D01*
X121555770Y-61725372D01*
X121623667Y-61817519D01*
X121863031Y-62020758D01*
X122328199Y-62245196D01*
X122942936Y-62399023D01*
X123198019Y-62426765D01*
X123594347Y-62449386D01*
X124105197Y-62466817D01*
X124704769Y-62479147D01*
X125367261Y-62486465D01*
X126066875Y-62488859D01*
X126777809Y-62486420D01*
X127474263Y-62479234D01*
X128130438Y-62467393D01*
X128720532Y-62450984D01*
X129218747Y-62430098D01*
X129599281Y-62404821D01*
X129836334Y-62375245D01*
X130282729Y-62260309D01*
X130710535Y-62070482D01*
X131021867Y-61817029D01*
X131056231Y-61776174D01*
X131125312Y-61653613D01*
X131166304Y-61480613D01*
X131185951Y-61217603D01*
X131191000Y-60825012D01*
X131191000Y-60019885D01*
X130865011Y-59738090D01*
X130843123Y-59719303D01*
X130699906Y-59605646D01*
X130549077Y-59509554D01*
X130375935Y-59429563D01*
X130165779Y-59364208D01*
X129903907Y-59312026D01*
X129575619Y-59271552D01*
X129166212Y-59241321D01*
X128660984Y-59219871D01*
X128045236Y-59205736D01*
X127304265Y-59197453D01*
X126423369Y-59193557D01*
X125387848Y-59192583D01*
X121396123Y-59192583D01*
X119253000Y-59192583D01*
X119253000Y-56779583D01*
X119502679Y-56328856D01*
X119629382Y-56121646D01*
X119967436Y-55719648D01*
X120396192Y-55391671D01*
X120930285Y-55131434D01*
X121584353Y-54932655D01*
X122373032Y-54789051D01*
X123310959Y-54694340D01*
X123699617Y-54668653D01*
X124492501Y-54632313D01*
X125127616Y-54629432D01*
X125610779Y-54660276D01*
X125947803Y-54725112D01*
X126144505Y-54824205D01*
X126148942Y-54828319D01*
X126266027Y-55035105D01*
X126326463Y-55339826D01*
X126329555Y-55682412D01*
X126274607Y-56002794D01*
X126160923Y-56240903D01*
X126131395Y-56276155D01*
X126066766Y-56336035D01*
X125977596Y-56380816D01*
X125839766Y-56413820D01*
X125629154Y-56438371D01*
X125321640Y-56457788D01*
X124893103Y-56475395D01*
X124319423Y-56494514D01*
X124287389Y-56495558D01*
X123747989Y-56518047D01*
X123246903Y-56547541D01*
X122816878Y-56581475D01*
X122490662Y-56617290D01*
X122301000Y-56652423D01*
X122221620Y-56678388D01*
X121865341Y-56839647D01*
X121604097Y-57034174D01*
X121474530Y-57236090D01*
X121472566Y-57244022D01*
X121470362Y-57278980D01*
X121490180Y-57308445D01*
X121545413Y-57333028D01*
X121649452Y-57353338D01*
X121815688Y-57369987D01*
X122057513Y-57383583D01*
X122388318Y-57394737D01*
X122821495Y-57404058D01*
X123370435Y-57412158D01*
X124048530Y-57419646D01*
X124869171Y-57427132D01*
X125845749Y-57435226D01*
X126641438Y-57441858D01*
X127500722Y-57449822D01*
X128218874Y-57458006D01*
X128811589Y-57467083D01*
X129294565Y-57477723D01*
X129683499Y-57490599D01*
X129994087Y-57506382D01*
X130242028Y-57525744D01*
X130443017Y-57549357D01*
X130612752Y-57577893D01*
X130766930Y-57612022D01*
X130921248Y-57652418D01*
X131424659Y-57811428D01*
X132123943Y-58126848D01*
X132672527Y-58511008D01*
X133068406Y-58962377D01*
X133309575Y-59479419D01*
X133318001Y-59509182D01*
X133383999Y-59875303D01*
X133395892Y-60019885D01*
X133422895Y-60348166D01*
G37*
G36*
X118320660Y-59962217D02*
G01*
X118314855Y-60582989D01*
X118301081Y-61075244D01*
X118276214Y-61461711D01*
X118237128Y-61765118D01*
X118180699Y-62008196D01*
X118103803Y-62213674D01*
X118003313Y-62404282D01*
X117876105Y-62602748D01*
X117743657Y-62774887D01*
X117320248Y-63156410D01*
X116765360Y-63485987D01*
X116103289Y-63750736D01*
X115358334Y-63937771D01*
X115303679Y-63945878D01*
X115043016Y-63968344D01*
X114634665Y-63990367D01*
X114094537Y-64011448D01*
X113438544Y-64031089D01*
X112682599Y-64048791D01*
X111842614Y-64064055D01*
X110934500Y-64076383D01*
X110437184Y-64081981D01*
X109588492Y-64091660D01*
X108888728Y-64101155D01*
X108324418Y-64112198D01*
X107882088Y-64126520D01*
X107548264Y-64145854D01*
X107309472Y-64171931D01*
X107152239Y-64206485D01*
X107063091Y-64251246D01*
X107028553Y-64307948D01*
X107035154Y-64378321D01*
X107069418Y-64464099D01*
X107117872Y-64567012D01*
X107124835Y-64581941D01*
X107267189Y-64791284D01*
X107483525Y-64958421D01*
X107789529Y-65086998D01*
X108200889Y-65180658D01*
X108733293Y-65243046D01*
X109402430Y-65277806D01*
X110223986Y-65288583D01*
X110504660Y-65288554D01*
X111055841Y-65291464D01*
X111466921Y-65306252D01*
X111758432Y-65342439D01*
X111950904Y-65409546D01*
X112064866Y-65517093D01*
X112120850Y-65674601D01*
X112139385Y-65891591D01*
X112141000Y-66177583D01*
X112135592Y-66498066D01*
X112111716Y-66723970D01*
X112060140Y-66861533D01*
X111971667Y-66952862D01*
X111943312Y-66967494D01*
X111751321Y-67006986D01*
X111427061Y-67035328D01*
X110998493Y-67053008D01*
X110493575Y-67060513D01*
X109940265Y-67058332D01*
X109366524Y-67046952D01*
X108800309Y-67026859D01*
X108269580Y-66998543D01*
X107802296Y-66962490D01*
X107426416Y-66919188D01*
X107169898Y-66869124D01*
X107031666Y-66828419D01*
X106408295Y-66596218D01*
X105904620Y-66310563D01*
X105480981Y-65949868D01*
X105418398Y-65885785D01*
X105270858Y-65728930D01*
X105147796Y-65577923D01*
X105046991Y-65416840D01*
X104966224Y-65229755D01*
X104903274Y-65000742D01*
X104855921Y-64713876D01*
X104821944Y-64353230D01*
X104799124Y-63902880D01*
X104785239Y-63346899D01*
X104778071Y-62669362D01*
X104775398Y-61854343D01*
X104775000Y-60885917D01*
X104775018Y-60591915D01*
X104775702Y-59904147D01*
X107018667Y-59904147D01*
X107018667Y-62325250D01*
X110553500Y-62318519D01*
X111078552Y-62317187D01*
X111957236Y-62312555D01*
X112692429Y-62304065D01*
X113301066Y-62290406D01*
X113800080Y-62270266D01*
X114206403Y-62242333D01*
X114536969Y-62205294D01*
X114808712Y-62157838D01*
X115038564Y-62098652D01*
X115243459Y-62026424D01*
X115440331Y-61939842D01*
X115582769Y-61870453D01*
X115744045Y-61775968D01*
X115865858Y-61664840D01*
X115953744Y-61515257D01*
X116013237Y-61305405D01*
X116049874Y-61013473D01*
X116069190Y-60617646D01*
X116076721Y-60096114D01*
X116078000Y-59427062D01*
X116077779Y-59144366D01*
X116073777Y-58525102D01*
X116061394Y-58045098D01*
X116036309Y-57682707D01*
X115994204Y-57416278D01*
X115930757Y-57224164D01*
X115841649Y-57084716D01*
X115722559Y-56976286D01*
X115569167Y-56877226D01*
X115420379Y-56797309D01*
X115205389Y-56709594D01*
X114950497Y-56639412D01*
X114637224Y-56584964D01*
X114247089Y-56544450D01*
X113761612Y-56516071D01*
X113162314Y-56498028D01*
X112430715Y-56488522D01*
X111548334Y-56485753D01*
X110860131Y-56487327D01*
X110094575Y-56495079D01*
X109465687Y-56510943D01*
X108954987Y-56536717D01*
X108543994Y-56574202D01*
X108214229Y-56625196D01*
X107947212Y-56691498D01*
X107724462Y-56774909D01*
X107527500Y-56877226D01*
X107449550Y-56924416D01*
X107324695Y-57013320D01*
X107226615Y-57117974D01*
X107152082Y-57257576D01*
X107097870Y-57451322D01*
X107060751Y-57718411D01*
X107037499Y-58078041D01*
X107024885Y-58549408D01*
X107019684Y-59151711D01*
X107018667Y-59904147D01*
X104775702Y-59904147D01*
X104775935Y-59669323D01*
X104779807Y-58895638D01*
X104788762Y-58254987D01*
X104804927Y-57731491D01*
X104830430Y-57309276D01*
X104867399Y-56972465D01*
X104917963Y-56705182D01*
X104984248Y-56491551D01*
X105068384Y-56315697D01*
X105172497Y-56161742D01*
X105298716Y-56013811D01*
X105449169Y-55856027D01*
X105615893Y-55695775D01*
X105945902Y-55439302D01*
X106324384Y-55224216D01*
X106766333Y-55047513D01*
X107286748Y-54906185D01*
X107900623Y-54797227D01*
X108622957Y-54717633D01*
X109468744Y-54664397D01*
X110452982Y-54634512D01*
X111590667Y-54624974D01*
X112285221Y-54628754D01*
X113295872Y-54650929D01*
X114180704Y-54692312D01*
X114929036Y-54752174D01*
X115530184Y-54829785D01*
X115973466Y-54924414D01*
X116393971Y-55067336D01*
X116931218Y-55317428D01*
X117393015Y-55609695D01*
X117732589Y-55917723D01*
X117877320Y-56095616D01*
X118012096Y-56295172D01*
X118116732Y-56510505D01*
X118194980Y-56763545D01*
X118250589Y-57076223D01*
X118287312Y-57470469D01*
X118308899Y-57968213D01*
X118319100Y-58591386D01*
X118321667Y-59361917D01*
X118321558Y-59427062D01*
X118320660Y-59962217D01*
G37*
G36*
X198599770Y-55915515D02*
G01*
X198608658Y-56745505D01*
X198615371Y-57601456D01*
X198619813Y-58466009D01*
X198621889Y-59321807D01*
X198621503Y-60151490D01*
X198618561Y-60937700D01*
X198612968Y-61663078D01*
X198604627Y-62310266D01*
X198593444Y-62861905D01*
X198579324Y-63300637D01*
X198562171Y-63609103D01*
X198541890Y-63769943D01*
X198510866Y-63872084D01*
X198386169Y-64096847D01*
X198178579Y-64237507D01*
X198120212Y-64260532D01*
X197774831Y-64326845D01*
X197299858Y-64335810D01*
X197069186Y-64323473D01*
X196803825Y-64288176D01*
X196622945Y-64221241D01*
X196474358Y-64108283D01*
X196257334Y-63904399D01*
X196257334Y-61929491D01*
X196256774Y-61600682D01*
X196251289Y-60981590D01*
X196239562Y-60517370D01*
X196221114Y-60198086D01*
X196195466Y-60013803D01*
X196162139Y-59954583D01*
X196134318Y-59960981D01*
X196033652Y-59996843D01*
X195856357Y-60066942D01*
X195595295Y-60174339D01*
X195243329Y-60322090D01*
X194793323Y-60513253D01*
X194238141Y-60750886D01*
X193570644Y-61038047D01*
X192783697Y-61377794D01*
X191870163Y-61773185D01*
X190822904Y-62227277D01*
X189634785Y-62743129D01*
X188298667Y-63323798D01*
X187772255Y-63552201D01*
X187223069Y-63788001D01*
X186789236Y-63969160D01*
X186448586Y-64103350D01*
X186178948Y-64198244D01*
X185958151Y-64261515D01*
X185764023Y-64300835D01*
X185574394Y-64323877D01*
X185367092Y-64338314D01*
X185128777Y-64348057D01*
X184654201Y-64331565D01*
X184310228Y-64252682D01*
X184075388Y-64104576D01*
X183928211Y-63880415D01*
X183914993Y-63847067D01*
X183856082Y-63489967D01*
X183939167Y-63160292D01*
X184153738Y-62903574D01*
X184254234Y-62849274D01*
X184500731Y-62735852D01*
X184868909Y-62575379D01*
X185339517Y-62375703D01*
X185893305Y-62144671D01*
X186511021Y-61890132D01*
X187173417Y-61619932D01*
X187861240Y-61341921D01*
X188555240Y-61063944D01*
X189236167Y-60793851D01*
X189884769Y-60539489D01*
X190481798Y-60308705D01*
X191008000Y-60109348D01*
X191175361Y-60046633D01*
X191563192Y-59899916D01*
X191879063Y-59778464D01*
X192094036Y-59693475D01*
X192179173Y-59656147D01*
X192171298Y-59653824D01*
X192042294Y-59648058D01*
X191771646Y-59643562D01*
X191379799Y-59640462D01*
X190887196Y-59638883D01*
X190314284Y-59638952D01*
X189681506Y-59640793D01*
X189288975Y-59642111D01*
X188595433Y-59641791D01*
X188035371Y-59636536D01*
X187584686Y-59625315D01*
X187219277Y-59607097D01*
X186915039Y-59580851D01*
X186647870Y-59545545D01*
X186393667Y-59500148D01*
X185637025Y-59311141D01*
X184889253Y-59028090D01*
X184267971Y-58678276D01*
X183785364Y-58268719D01*
X183453620Y-57806439D01*
X183424506Y-57748031D01*
X183365785Y-57602597D01*
X183322317Y-57430870D01*
X183290808Y-57204242D01*
X183267962Y-56894107D01*
X183250486Y-56471857D01*
X183235084Y-55908885D01*
X183232930Y-55807984D01*
X185547000Y-55807984D01*
X185547019Y-55890434D01*
X185549062Y-56335440D01*
X185557810Y-56647527D01*
X185577955Y-56858242D01*
X185614189Y-56999133D01*
X185671206Y-57101745D01*
X185753696Y-57197625D01*
X185841867Y-57275185D01*
X186096905Y-57434561D01*
X186388696Y-57561689D01*
X186414575Y-57570107D01*
X186527918Y-57600372D01*
X186669361Y-57626140D01*
X186853026Y-57647884D01*
X187093037Y-57666073D01*
X187403517Y-57681179D01*
X187798590Y-57693673D01*
X188292380Y-57704026D01*
X188899009Y-57712711D01*
X189632601Y-57720197D01*
X190507279Y-57726955D01*
X191537167Y-57733459D01*
X196257334Y-57761182D01*
X196257334Y-55803629D01*
X196257334Y-53846077D01*
X191537167Y-53876130D01*
X190766160Y-53881101D01*
X189869456Y-53887351D01*
X189116879Y-53893683D01*
X188493990Y-53900708D01*
X187986352Y-53909035D01*
X187579526Y-53919276D01*
X187259075Y-53932041D01*
X187010559Y-53947941D01*
X186819541Y-53967585D01*
X186671583Y-53991585D01*
X186552246Y-54020551D01*
X186447092Y-54055094D01*
X186341684Y-54095824D01*
X186092358Y-54199164D01*
X185868097Y-54317151D01*
X185715624Y-54455469D01*
X185621107Y-54643915D01*
X185570717Y-54912286D01*
X185550625Y-55290377D01*
X185547000Y-55807984D01*
X183232930Y-55807984D01*
X183228078Y-55580701D01*
X183224491Y-55004550D01*
X183241408Y-54555904D01*
X183285473Y-54206678D01*
X183363334Y-53928787D01*
X183481638Y-53694148D01*
X183647030Y-53474676D01*
X183866156Y-53242287D01*
X184138159Y-53001064D01*
X184742895Y-52619801D01*
X185478918Y-52326522D01*
X186351855Y-52119225D01*
X187367334Y-51995906D01*
X187438558Y-51990986D01*
X187801194Y-51973403D01*
X188288409Y-51958121D01*
X188881835Y-51945133D01*
X189563103Y-51934431D01*
X190313846Y-51926009D01*
X191115693Y-51919858D01*
X191950277Y-51915972D01*
X192799229Y-51914344D01*
X193644179Y-51914966D01*
X194466760Y-51917831D01*
X195248602Y-51922932D01*
X195971338Y-51930263D01*
X196616597Y-51939814D01*
X197166012Y-51951580D01*
X197601214Y-51965554D01*
X197903835Y-51981727D01*
X198055504Y-52000093D01*
X198097544Y-52013099D01*
X198328554Y-52129123D01*
X198478838Y-52274788D01*
X198484630Y-52290631D01*
X198506082Y-52452850D01*
X198526025Y-52762540D01*
X198544364Y-53202344D01*
X198561003Y-53754902D01*
X198575847Y-54402855D01*
X198588801Y-55128846D01*
X198598210Y-55803629D01*
X198599770Y-55915515D01*
G37*
M02*
