G04 #@! TF.GenerationSoftware,KiCad,Pcbnew,8.0.2-1*
G04 #@! TF.CreationDate,2024-07-03T19:49:40+09:00*
G04 #@! TF.ProjectId,lagoon,6c61676f-6f6e-42e6-9b69-6361645f7063,rev?*
G04 #@! TF.SameCoordinates,Original*
G04 #@! TF.FileFunction,Profile,NP*
%FSLAX46Y46*%
G04 Gerber Fmt 4.6, Leading zero omitted, Abs format (unit mm)*
G04 Created by KiCad (PCBNEW 8.0.2-1) date 2024-07-03 19:49:40*
%MOMM*%
%LPD*%
G01*
G04 APERTURE LIST*
G04 #@! TA.AperFunction,Profile*
%ADD10C,0.100000*%
G04 #@! TD*
G04 APERTURE END LIST*
D10*
X137192421Y-105748070D02*
G75*
G02*
X116713517Y-102645805I-75121J68648670D01*
G01*
X256561045Y-12668750D02*
G75*
G02*
X261554230Y-17668664I11555J-4981650D01*
G01*
X256561045Y-12668750D02*
X17673445Y-12668750D01*
X177748897Y-99631249D02*
X256560952Y-99629720D01*
X12664720Y-17668716D02*
X12668750Y-94631248D01*
X96635945Y-99634328D02*
G75*
G02*
X116713513Y-102645819I-45J-68434472D01*
G01*
X261554243Y-94631249D02*
G75*
G02*
X256560952Y-99629754I-4985443J-13051D01*
G01*
X157671326Y-102645809D02*
G75*
G02*
X177748897Y-99634328I20077474J-65422291D01*
G01*
X17673377Y-99642388D02*
X96635945Y-99642388D01*
X157671326Y-102645809D02*
G75*
G02*
X137192421Y-105748080I-20403726J65545909D01*
G01*
X17673377Y-99642387D02*
G75*
G02*
X12670580Y-94631247I12263J5015047D01*
G01*
X12668750Y-17668716D02*
G75*
G02*
X17673445Y-12668748I5035770J-35834D01*
G01*
X261554244Y-94631249D02*
X261554244Y-17668664D01*
X25144715Y-36065959D02*
X25144715Y-24065959D01*
X26144715Y-23065959D02*
X32144715Y-23065959D01*
X32144715Y-37065959D02*
X26144715Y-37065959D01*
X33144715Y-24065959D02*
X33144715Y-36065959D01*
X25144715Y-24065959D02*
G75*
G02*
X26144715Y-23065960I1000149J-150D01*
G01*
X26144715Y-37065959D02*
G75*
G02*
X25144715Y-36065959I-137J999863D01*
G01*
X32144715Y-23065959D02*
G75*
G02*
X33144714Y-24065959I-131J-1000130D01*
G01*
X33144715Y-36065959D02*
G75*
G02*
X32144715Y-37065959I-999856J-144D01*
G01*
M02*
