G04 #@! TF.GenerationSoftware,KiCad,Pcbnew,8.0.2-1*
G04 #@! TF.CreationDate,2024-07-03T19:51:58+09:00*
G04 #@! TF.ProjectId,lagoon,6c61676f-6f6e-42e6-9b69-6361645f7063,rev?*
G04 #@! TF.SameCoordinates,Original*
G04 #@! TF.FileFunction,Legend,Top*
G04 #@! TF.FilePolarity,Positive*
%FSLAX46Y46*%
G04 Gerber Fmt 4.6, Leading zero omitted, Abs format (unit mm)*
G04 Created by KiCad (PCBNEW 8.0.2-1) date 2024-07-03 19:51:58*
%MOMM*%
%LPD*%
G01*
G04 APERTURE LIST*
%ADD10C,0.000000*%
G04 APERTURE END LIST*
D10*
G36*
X102363088Y-73972279D02*
G01*
X102850304Y-73973233D01*
X103307464Y-73974759D01*
X103728031Y-73976807D01*
X104105468Y-73979324D01*
X104433239Y-73982258D01*
X104704806Y-73985558D01*
X104913633Y-73989172D01*
X105053182Y-73993048D01*
X105116917Y-73997135D01*
X105119671Y-73997817D01*
X105147840Y-74022957D01*
X105164098Y-74079608D01*
X105169785Y-74182495D01*
X105166238Y-74346343D01*
X105161379Y-74456601D01*
X105140525Y-74889519D01*
X103816305Y-74900532D01*
X102492085Y-74911545D01*
X102492085Y-77302929D01*
X102491371Y-77890861D01*
X102489205Y-78397304D01*
X102485553Y-78824171D01*
X102480380Y-79173376D01*
X102473650Y-79446834D01*
X102465328Y-79646458D01*
X102455380Y-79774162D01*
X102445855Y-79826927D01*
X102375176Y-79942870D01*
X102281096Y-80020835D01*
X102162772Y-80055908D01*
X101995066Y-80075075D01*
X101810615Y-80077642D01*
X101642052Y-80062916D01*
X101536591Y-80036665D01*
X101493667Y-80019627D01*
X101457037Y-80001277D01*
X101426198Y-79975295D01*
X101400648Y-79935366D01*
X101379885Y-79875171D01*
X101363407Y-79788392D01*
X101350711Y-79668711D01*
X101341297Y-79509811D01*
X101334661Y-79305374D01*
X101330303Y-79049083D01*
X101327719Y-78734619D01*
X101326407Y-78355665D01*
X101325866Y-77905903D01*
X101325595Y-77381555D01*
X101324269Y-74910373D01*
X99992649Y-74910373D01*
X98661029Y-74910373D01*
X98574586Y-74800479D01*
X98514933Y-74673045D01*
X98485954Y-74502462D01*
X98487942Y-74320682D01*
X98521192Y-74159653D01*
X98567871Y-74070412D01*
X98647598Y-73971949D01*
X101852354Y-73971949D01*
X102363088Y-73972279D01*
G37*
G36*
X131353399Y-73961251D02*
G01*
X131514103Y-73994821D01*
X131620289Y-74056464D01*
X131682888Y-74145342D01*
X131694582Y-74206052D01*
X131704489Y-74334443D01*
X131712657Y-74532884D01*
X131719134Y-74803748D01*
X131723969Y-75149406D01*
X131727208Y-75572228D01*
X131728901Y-76074588D01*
X131729195Y-76433216D01*
X131729195Y-78619457D01*
X131855681Y-78763517D01*
X132020646Y-78897588D01*
X132241477Y-79001712D01*
X132297918Y-79021607D01*
X132353622Y-79038538D01*
X132415622Y-79052799D01*
X132490952Y-79064682D01*
X132586646Y-79074481D01*
X132709738Y-79082488D01*
X132867262Y-79088996D01*
X133066251Y-79094299D01*
X133313740Y-79098689D01*
X133616761Y-79102460D01*
X133982350Y-79105904D01*
X134417539Y-79109314D01*
X134909408Y-79112842D01*
X135497870Y-79117731D01*
X136004487Y-79123513D01*
X136429025Y-79130182D01*
X136771245Y-79137733D01*
X137030912Y-79146159D01*
X137207788Y-79155454D01*
X137301639Y-79165614D01*
X137318029Y-79172423D01*
X137335582Y-79230944D01*
X137380759Y-79336353D01*
X137422298Y-79422603D01*
X137480912Y-79553705D01*
X137518737Y-79665968D01*
X137526568Y-79712929D01*
X137502155Y-79829117D01*
X137443477Y-79945161D01*
X137384774Y-80008503D01*
X137334342Y-80014837D01*
X137209284Y-80020244D01*
X137018385Y-80024747D01*
X136770428Y-80028368D01*
X136474197Y-80031127D01*
X136138477Y-80033048D01*
X135772052Y-80034152D01*
X135383706Y-80034462D01*
X134982222Y-80033998D01*
X134576386Y-80032783D01*
X134174982Y-80030839D01*
X133786792Y-80028188D01*
X133420603Y-80024851D01*
X133085197Y-80020851D01*
X132789359Y-80016210D01*
X132541873Y-80010949D01*
X132351523Y-80005091D01*
X132227093Y-79998657D01*
X132194705Y-79995548D01*
X131794108Y-79914073D01*
X131438018Y-79781946D01*
X131134067Y-79604038D01*
X130889887Y-79385222D01*
X130713112Y-79130368D01*
X130662204Y-79017408D01*
X130644983Y-78968964D01*
X130630421Y-78915529D01*
X130618296Y-78850065D01*
X130608386Y-78765535D01*
X130600470Y-78654901D01*
X130594326Y-78511126D01*
X130589731Y-78327172D01*
X130586464Y-78096003D01*
X130584302Y-77810581D01*
X130583025Y-77463868D01*
X130582410Y-77048827D01*
X130582235Y-76558420D01*
X130582233Y-76481249D01*
X130582233Y-74152453D01*
X130699255Y-74051774D01*
X130773371Y-73998037D01*
X130856426Y-73967440D01*
X130974335Y-73953852D01*
X131124796Y-73951095D01*
X131353399Y-73961251D01*
G37*
G36*
X170135231Y-75294012D02*
G01*
X170521823Y-75303990D01*
X170858594Y-75319535D01*
X170976157Y-75327445D01*
X171455280Y-75383979D01*
X171861351Y-75476597D01*
X172197113Y-75606551D01*
X172465308Y-75775092D01*
X172668679Y-75983470D01*
X172769862Y-76145650D01*
X172873858Y-76349289D01*
X172885555Y-78124680D01*
X172889020Y-78576623D01*
X172891726Y-78952255D01*
X172891874Y-79258674D01*
X172887666Y-79502978D01*
X172877303Y-79692265D01*
X172858987Y-79833634D01*
X172830920Y-79934181D01*
X172791302Y-80001006D01*
X172738334Y-80041207D01*
X172670220Y-80061880D01*
X172585159Y-80070125D01*
X172481354Y-80073039D01*
X172391125Y-80075950D01*
X172224910Y-80081795D01*
X172117856Y-80076875D01*
X172045846Y-80055283D01*
X171984766Y-80011110D01*
X171936590Y-79964579D01*
X171810311Y-79838300D01*
X171810311Y-78268981D01*
X171810174Y-77844240D01*
X171808965Y-77494778D01*
X171805486Y-77212457D01*
X171798540Y-76989142D01*
X171786930Y-76816697D01*
X171769457Y-76686983D01*
X171744925Y-76591865D01*
X171712137Y-76523207D01*
X171669894Y-76472871D01*
X171616999Y-76432721D01*
X171552255Y-76394620D01*
X171532873Y-76383788D01*
X171434799Y-76335760D01*
X171323402Y-76296765D01*
X171189403Y-76265933D01*
X171023521Y-76242391D01*
X170816477Y-76225269D01*
X170558990Y-76213695D01*
X170241779Y-76206798D01*
X169855565Y-76203706D01*
X169610803Y-76203312D01*
X169174517Y-76204817D01*
X168812779Y-76210129D01*
X168516762Y-76220446D01*
X168277639Y-76236966D01*
X168086584Y-76260886D01*
X167934771Y-76293404D01*
X167813371Y-76335717D01*
X167713559Y-76389024D01*
X167626508Y-76454521D01*
X167602592Y-76475781D01*
X167451855Y-76613863D01*
X167428882Y-78275008D01*
X167423657Y-78638489D01*
X167418438Y-78974968D01*
X167413391Y-79275532D01*
X167408685Y-79531268D01*
X167404484Y-79733262D01*
X167400958Y-79872601D01*
X167398272Y-79940372D01*
X167397601Y-79945509D01*
X167303373Y-80003662D01*
X167152207Y-80047426D01*
X166969767Y-80074010D01*
X166781720Y-80080629D01*
X166613733Y-80064492D01*
X166526585Y-80040131D01*
X166482925Y-80020136D01*
X166446835Y-79993578D01*
X166417657Y-79952989D01*
X166394735Y-79890900D01*
X166377415Y-79799841D01*
X166365038Y-79672344D01*
X166356951Y-79500941D01*
X166352495Y-79278161D01*
X166351017Y-78996536D01*
X166351858Y-78648598D01*
X166354365Y-78226877D01*
X166355306Y-78090112D01*
X166367454Y-76349289D01*
X166490449Y-76127256D01*
X166657971Y-75893254D01*
X166880160Y-75701698D01*
X167161806Y-75550386D01*
X167507704Y-75437117D01*
X167922644Y-75359688D01*
X168231092Y-75327580D01*
X168534161Y-75309742D01*
X168898284Y-75297466D01*
X169301286Y-75290751D01*
X169720994Y-75289600D01*
X170135231Y-75294012D01*
G37*
G36*
X117478291Y-75291193D02*
G01*
X117978249Y-75306412D01*
X118408612Y-75333757D01*
X118776020Y-75374536D01*
X119087113Y-75430061D01*
X119348529Y-75501640D01*
X119566907Y-75590584D01*
X119748886Y-75698202D01*
X119901105Y-75825805D01*
X119961987Y-75890463D01*
X120049279Y-75994999D01*
X120115640Y-76092751D01*
X120163966Y-76197247D01*
X120197152Y-76322017D01*
X120218092Y-76480587D01*
X120229680Y-76686488D01*
X120234812Y-76953247D01*
X120236076Y-77171407D01*
X120236425Y-77473299D01*
X120232972Y-77702633D01*
X120222266Y-77870263D01*
X120200853Y-77987047D01*
X120165281Y-78063839D01*
X120112098Y-78111496D01*
X120037850Y-78140874D01*
X119939086Y-78162829D01*
X119919568Y-78166612D01*
X119845865Y-78172929D01*
X119696610Y-78178940D01*
X119479668Y-78184538D01*
X119202901Y-78189616D01*
X118874174Y-78194068D01*
X118501350Y-78197786D01*
X118092293Y-78200663D01*
X117654866Y-78202594D01*
X117204482Y-78203466D01*
X114670738Y-78205283D01*
X114670738Y-78438663D01*
X114699365Y-78659541D01*
X114788943Y-78833885D01*
X114945020Y-78967897D01*
X115173147Y-79067782D01*
X115254646Y-79091537D01*
X115340248Y-79104681D01*
X115494054Y-79118720D01*
X115700874Y-79132654D01*
X115945519Y-79145486D01*
X116212799Y-79156217D01*
X116264046Y-79157909D01*
X116595570Y-79170438D01*
X116848412Y-79184570D01*
X117027300Y-79200717D01*
X117136960Y-79219291D01*
X117179646Y-79237665D01*
X117219621Y-79321513D01*
X117243928Y-79458576D01*
X117251814Y-79619996D01*
X117242520Y-79776916D01*
X117215291Y-79900479D01*
X117197947Y-79936067D01*
X117129571Y-80040422D01*
X116244243Y-80034953D01*
X115964295Y-80031841D01*
X115697762Y-80026335D01*
X115461323Y-80018974D01*
X115271659Y-80010297D01*
X115145448Y-80000844D01*
X115129523Y-79998939D01*
X114734306Y-79918557D01*
X114387062Y-79791370D01*
X114094908Y-79621802D01*
X113864961Y-79414276D01*
X113704338Y-79173217D01*
X113669354Y-79091359D01*
X113645178Y-79020884D01*
X113626184Y-78946518D01*
X113611760Y-78857586D01*
X113601294Y-78743413D01*
X113594172Y-78593325D01*
X113589784Y-78396648D01*
X113587517Y-78142707D01*
X113586758Y-77820827D01*
X113586745Y-77651091D01*
X113587053Y-77299830D01*
X113587103Y-77287713D01*
X114670738Y-77287713D01*
X116928314Y-77287713D01*
X119185889Y-77287713D01*
X119167149Y-76963988D01*
X119142433Y-76735019D01*
X119093434Y-76571309D01*
X119011480Y-76456172D01*
X118887900Y-76372927D01*
X118851020Y-76355812D01*
X118750897Y-76315920D01*
X118645326Y-76283617D01*
X118524505Y-76258122D01*
X118378631Y-76238652D01*
X118197900Y-76224426D01*
X117972511Y-76214661D01*
X117692660Y-76208576D01*
X117348544Y-76205389D01*
X116952042Y-76204332D01*
X116504040Y-76205187D01*
X116130952Y-76209258D01*
X115824301Y-76217707D01*
X115575610Y-76231698D01*
X115376405Y-76252394D01*
X115218207Y-76280959D01*
X115092541Y-76318557D01*
X114990931Y-76366351D01*
X114904899Y-76425504D01*
X114827142Y-76496007D01*
X114747767Y-76579118D01*
X114701152Y-76648897D01*
X114678583Y-76731751D01*
X114671347Y-76854086D01*
X114670738Y-76969998D01*
X114670738Y-77287713D01*
X113587103Y-77287713D01*
X113588201Y-77021469D01*
X113588849Y-76969998D01*
X113590922Y-76805491D01*
X113595945Y-76641379D01*
X113604003Y-76518619D01*
X113615826Y-76426693D01*
X113632145Y-76355086D01*
X113653692Y-76293281D01*
X113681197Y-76230762D01*
X113686239Y-76219905D01*
X113794408Y-76024137D01*
X113927312Y-75855909D01*
X114091075Y-75713443D01*
X114291819Y-75594962D01*
X114535669Y-75498691D01*
X114828748Y-75422851D01*
X115177179Y-75365667D01*
X115587086Y-75325360D01*
X116064593Y-75300156D01*
X116615823Y-75288276D01*
X116902101Y-75286790D01*
X117478291Y-75291193D01*
G37*
G36*
X156123117Y-75293940D02*
G01*
X156625771Y-75312567D01*
X157058759Y-75345153D01*
X157428577Y-75393067D01*
X157741719Y-75457676D01*
X158004683Y-75540350D01*
X158223962Y-75642456D01*
X158406054Y-75765363D01*
X158557452Y-75910439D01*
X158570385Y-75925319D01*
X158642293Y-76013647D01*
X158700133Y-76099692D01*
X158745419Y-76193490D01*
X158779665Y-76305077D01*
X158804385Y-76444489D01*
X158821090Y-76621761D01*
X158831296Y-76846929D01*
X158836516Y-77130030D01*
X158838263Y-77481099D01*
X158838295Y-77701793D01*
X158837665Y-78058884D01*
X158835967Y-78342793D01*
X158832601Y-78563754D01*
X158826969Y-78731997D01*
X158818473Y-78857755D01*
X158806515Y-78951261D01*
X158790495Y-79022748D01*
X158769815Y-79082447D01*
X158755614Y-79115341D01*
X158605439Y-79371684D01*
X158404814Y-79581104D01*
X158144144Y-79751319D01*
X157813836Y-79890041D01*
X157777074Y-79902326D01*
X157442003Y-80012092D01*
X155752840Y-80022565D01*
X155375557Y-80024075D01*
X155016139Y-80023941D01*
X154685022Y-80022279D01*
X154392638Y-80019210D01*
X154149421Y-80014852D01*
X153965805Y-80009324D01*
X153852223Y-80002745D01*
X153834285Y-80000715D01*
X153432968Y-79916696D01*
X153083008Y-79786990D01*
X152790695Y-79615515D01*
X152562321Y-79406187D01*
X152404174Y-79162924D01*
X152374116Y-79091359D01*
X152349940Y-79020884D01*
X152330946Y-78946518D01*
X152316522Y-78857586D01*
X152306056Y-78743413D01*
X152298934Y-78593325D01*
X152294546Y-78396648D01*
X152292278Y-78142707D01*
X152291520Y-77820827D01*
X152291508Y-77662164D01*
X153375500Y-77662164D01*
X153375857Y-77979628D01*
X153377492Y-78224708D01*
X153381250Y-78408433D01*
X153387976Y-78541831D01*
X153398514Y-78635934D01*
X153413711Y-78701770D01*
X153434410Y-78750368D01*
X153461458Y-78792759D01*
X153462204Y-78793808D01*
X153590673Y-78924694D01*
X153772289Y-79023343D01*
X154020273Y-79096615D01*
X154063678Y-79105773D01*
X154192593Y-79122492D01*
X154389922Y-79136205D01*
X154641785Y-79146905D01*
X154934298Y-79154582D01*
X155253581Y-79159230D01*
X155585751Y-79160839D01*
X155916927Y-79159404D01*
X156233228Y-79154914D01*
X156520770Y-79147364D01*
X156765674Y-79136744D01*
X156954056Y-79123047D01*
X157066633Y-79107481D01*
X157329800Y-79033275D01*
X157524009Y-78936988D01*
X157662257Y-78812085D01*
X157667713Y-78805253D01*
X157695153Y-78766436D01*
X157716140Y-78721368D01*
X157731537Y-78659067D01*
X157742204Y-78568553D01*
X157749003Y-78438844D01*
X157752796Y-78258960D01*
X157754445Y-78017920D01*
X157754810Y-77704744D01*
X157754811Y-77695173D01*
X157754056Y-77353586D01*
X157750264Y-77084933D01*
X157741142Y-76878735D01*
X157724399Y-76724515D01*
X157697742Y-76611795D01*
X157658879Y-76530096D01*
X157605517Y-76468940D01*
X157535365Y-76417850D01*
X157466613Y-76377742D01*
X157370266Y-76331154D01*
X157258524Y-76293325D01*
X157122245Y-76263421D01*
X156952289Y-76240607D01*
X156739516Y-76224049D01*
X156474785Y-76212912D01*
X156148956Y-76206363D01*
X155752887Y-76203568D01*
X155555302Y-76203312D01*
X155118716Y-76204733D01*
X154756735Y-76209841D01*
X154460582Y-76219907D01*
X154221482Y-76236200D01*
X154030658Y-76259989D01*
X153879336Y-76292544D01*
X153758738Y-76335133D01*
X153660090Y-76389028D01*
X153574615Y-76455497D01*
X153531904Y-76496007D01*
X153375500Y-76652283D01*
X153375500Y-77662164D01*
X152291508Y-77662164D01*
X152291507Y-77651091D01*
X152291815Y-77299830D01*
X152292963Y-77021469D01*
X152295684Y-76805491D01*
X152300373Y-76652283D01*
X152300707Y-76641379D01*
X152308765Y-76518619D01*
X152320588Y-76426693D01*
X152336907Y-76355086D01*
X152358454Y-76293281D01*
X152385959Y-76230762D01*
X152391001Y-76219905D01*
X152502194Y-76020301D01*
X152640143Y-75849141D01*
X152810930Y-75704624D01*
X153020637Y-75584955D01*
X153275348Y-75488335D01*
X153581143Y-75412967D01*
X153944107Y-75357052D01*
X154370320Y-75318793D01*
X154865865Y-75296393D01*
X155436824Y-75288053D01*
X155544302Y-75287905D01*
X156123117Y-75293940D01*
G37*
G36*
X163130014Y-75293940D02*
G01*
X163632667Y-75312567D01*
X164065655Y-75345153D01*
X164435473Y-75393067D01*
X164748616Y-75457676D01*
X165011579Y-75540350D01*
X165230859Y-75642456D01*
X165412950Y-75765363D01*
X165564349Y-75910439D01*
X165577282Y-75925319D01*
X165649189Y-76013647D01*
X165707030Y-76099692D01*
X165752316Y-76193490D01*
X165786562Y-76305077D01*
X165811281Y-76444489D01*
X165827987Y-76621761D01*
X165838193Y-76846929D01*
X165843412Y-77130030D01*
X165845159Y-77481099D01*
X165845192Y-77701793D01*
X165844562Y-78058884D01*
X165842863Y-78342793D01*
X165839498Y-78563754D01*
X165833866Y-78731997D01*
X165825370Y-78857755D01*
X165813411Y-78951261D01*
X165797391Y-79022748D01*
X165776711Y-79082447D01*
X165762510Y-79115341D01*
X165612336Y-79371684D01*
X165411710Y-79581104D01*
X165151040Y-79751319D01*
X164820733Y-79890041D01*
X164783970Y-79902326D01*
X164448899Y-80012092D01*
X162759737Y-80022565D01*
X162382453Y-80024075D01*
X162023036Y-80023941D01*
X161691918Y-80022279D01*
X161399535Y-80019210D01*
X161156318Y-80014852D01*
X160972701Y-80009324D01*
X160859120Y-80002745D01*
X160841182Y-80000715D01*
X160439864Y-79916696D01*
X160089904Y-79786990D01*
X159797592Y-79615515D01*
X159569217Y-79406187D01*
X159411071Y-79162924D01*
X159381013Y-79091359D01*
X159356837Y-79020884D01*
X159337843Y-78946518D01*
X159323419Y-78857586D01*
X159312952Y-78743413D01*
X159305831Y-78593325D01*
X159301443Y-78396648D01*
X159299175Y-78142707D01*
X159298416Y-77820827D01*
X159298405Y-77662164D01*
X160382397Y-77662164D01*
X160382754Y-77979628D01*
X160384389Y-78224708D01*
X160388147Y-78408433D01*
X160394872Y-78541831D01*
X160405411Y-78635934D01*
X160420607Y-78701770D01*
X160441307Y-78750368D01*
X160468355Y-78792759D01*
X160469100Y-78793808D01*
X160597570Y-78924694D01*
X160779185Y-79023343D01*
X161027169Y-79096615D01*
X161070574Y-79105773D01*
X161199489Y-79122492D01*
X161396819Y-79136205D01*
X161648681Y-79146905D01*
X161941195Y-79154582D01*
X162260478Y-79159230D01*
X162592648Y-79160839D01*
X162923824Y-79159404D01*
X163240124Y-79154914D01*
X163527667Y-79147364D01*
X163772570Y-79136744D01*
X163960953Y-79123047D01*
X164073530Y-79107481D01*
X164336696Y-79033275D01*
X164530906Y-78936988D01*
X164669154Y-78812085D01*
X164674609Y-78805253D01*
X164702049Y-78766436D01*
X164723037Y-78721368D01*
X164738433Y-78659067D01*
X164749100Y-78568553D01*
X164755900Y-78438844D01*
X164759693Y-78258960D01*
X164761342Y-78017920D01*
X164761707Y-77704744D01*
X164761707Y-77695173D01*
X164760952Y-77353586D01*
X164757160Y-77084933D01*
X164748039Y-76878735D01*
X164731296Y-76724515D01*
X164704638Y-76611795D01*
X164665775Y-76530096D01*
X164612414Y-76468940D01*
X164542262Y-76417850D01*
X164473510Y-76377742D01*
X164377163Y-76331154D01*
X164265420Y-76293325D01*
X164129141Y-76263421D01*
X163959186Y-76240607D01*
X163746413Y-76224049D01*
X163481682Y-76212912D01*
X163155852Y-76206363D01*
X162759784Y-76203568D01*
X162562198Y-76203312D01*
X162125612Y-76204733D01*
X161763631Y-76209841D01*
X161467478Y-76219907D01*
X161228378Y-76236200D01*
X161037555Y-76259989D01*
X160886232Y-76292544D01*
X160765635Y-76335133D01*
X160666987Y-76389028D01*
X160581512Y-76455497D01*
X160538801Y-76496007D01*
X160382397Y-76652283D01*
X160382397Y-77662164D01*
X159298405Y-77662164D01*
X159298404Y-77651091D01*
X159298711Y-77299830D01*
X159299860Y-77021469D01*
X159302580Y-76805491D01*
X159307270Y-76652283D01*
X159307604Y-76641379D01*
X159315662Y-76518619D01*
X159327484Y-76426693D01*
X159343804Y-76355086D01*
X159365350Y-76293281D01*
X159392855Y-76230762D01*
X159397898Y-76219905D01*
X159509091Y-76020301D01*
X159647039Y-75849141D01*
X159817826Y-75704624D01*
X160027534Y-75584955D01*
X160282244Y-75488335D01*
X160588040Y-75412967D01*
X160951003Y-75357052D01*
X161377216Y-75318793D01*
X161872761Y-75296393D01*
X162443721Y-75288053D01*
X162551198Y-75287905D01*
X163130014Y-75293940D01*
G37*
G36*
X121476293Y-73962488D02*
G01*
X121641799Y-74005883D01*
X121764725Y-74071789D01*
X121818558Y-74140649D01*
X121825565Y-74199337D01*
X121831854Y-74329540D01*
X121837155Y-74519358D01*
X121841200Y-74756891D01*
X121843721Y-75030238D01*
X121844466Y-75289153D01*
X121845527Y-75579588D01*
X121848517Y-75840519D01*
X121853144Y-76060978D01*
X121859114Y-76229996D01*
X121866138Y-76336607D01*
X121873240Y-76370143D01*
X121916149Y-76351263D01*
X122021438Y-76298493D01*
X122178124Y-76217637D01*
X122375222Y-76114498D01*
X122601746Y-75994882D01*
X122846713Y-75864592D01*
X123099138Y-75729432D01*
X123348036Y-75595207D01*
X123582423Y-75467720D01*
X123618901Y-75447756D01*
X123935054Y-75275226D01*
X124264265Y-75096767D01*
X124597709Y-74917059D01*
X124926563Y-74740780D01*
X125242003Y-74572610D01*
X125535204Y-74417229D01*
X125797345Y-74279317D01*
X126019599Y-74163551D01*
X126193144Y-74074613D01*
X126309155Y-74017180D01*
X126354156Y-73997220D01*
X126497328Y-73966517D01*
X126680793Y-73952852D01*
X126874562Y-73955685D01*
X127048651Y-73974475D01*
X127173071Y-74008682D01*
X127180071Y-74012114D01*
X127278427Y-74080150D01*
X127330672Y-74171430D01*
X127349106Y-74311427D01*
X127349884Y-74363781D01*
X127325692Y-74506143D01*
X127240267Y-74621315D01*
X127235188Y-74626087D01*
X127177362Y-74664197D01*
X127051944Y-74735742D01*
X126866025Y-74837003D01*
X126626697Y-74964260D01*
X126341052Y-75113794D01*
X126016181Y-75281886D01*
X125659177Y-75464817D01*
X125277131Y-75658868D01*
X124984512Y-75806409D01*
X124590584Y-76004680D01*
X124217823Y-76192813D01*
X123873109Y-76367302D01*
X123563323Y-76524637D01*
X123295346Y-76661312D01*
X123076060Y-76773819D01*
X122912345Y-76858651D01*
X122811083Y-76912300D01*
X122780096Y-76930083D01*
X122766190Y-76938765D01*
X122754664Y-76946646D01*
X122750150Y-76956208D01*
X122757279Y-76969929D01*
X122780682Y-76990292D01*
X122824991Y-77019775D01*
X122894838Y-77060860D01*
X122994853Y-77116027D01*
X123129669Y-77187756D01*
X123303916Y-77278528D01*
X123522227Y-77390823D01*
X123789233Y-77527121D01*
X124109566Y-77689903D01*
X124487856Y-77881649D01*
X124928736Y-78104840D01*
X125436837Y-78361955D01*
X125744137Y-78517470D01*
X126134701Y-78716706D01*
X126483809Y-78897950D01*
X126785703Y-79058066D01*
X127034621Y-79193918D01*
X127224802Y-79302372D01*
X127350486Y-79380291D01*
X127402019Y-79419869D01*
X127494948Y-79571116D01*
X127515511Y-79738701D01*
X127473771Y-79875901D01*
X127371742Y-79983046D01*
X127211140Y-80052098D01*
X127007874Y-80082525D01*
X126777853Y-80073792D01*
X126536986Y-80025366D01*
X126301182Y-79936712D01*
X126260830Y-79916611D01*
X126197617Y-79883703D01*
X126121427Y-79843818D01*
X126027182Y-79794265D01*
X125909804Y-79732352D01*
X125764215Y-79655388D01*
X125585335Y-79560680D01*
X125368087Y-79445538D01*
X125107391Y-79307270D01*
X124798169Y-79143184D01*
X124435343Y-78950589D01*
X124013834Y-78726793D01*
X123528564Y-78469104D01*
X123004082Y-78190567D01*
X122729243Y-78045377D01*
X122477469Y-77913851D01*
X122258382Y-77800897D01*
X122081599Y-77711423D01*
X121956742Y-77650337D01*
X121893429Y-77622545D01*
X121888401Y-77621374D01*
X121873286Y-77660068D01*
X121861397Y-77776949D01*
X121852688Y-77973215D01*
X121847111Y-78250063D01*
X121844619Y-78608693D01*
X121844466Y-78740213D01*
X121844466Y-79859051D01*
X121737557Y-79959486D01*
X121664362Y-80015130D01*
X121575258Y-80048103D01*
X121444539Y-80065491D01*
X121330907Y-80071568D01*
X121096930Y-80067152D01*
X120926792Y-80034486D01*
X120898039Y-80023143D01*
X120795299Y-79953321D01*
X120733794Y-79841628D01*
X120719346Y-79793846D01*
X120709012Y-79718192D01*
X120700435Y-79573288D01*
X120693594Y-79357217D01*
X120688465Y-79068065D01*
X120685026Y-78703915D01*
X120683256Y-78262851D01*
X120683132Y-77742958D01*
X120684632Y-77142320D01*
X120685641Y-76888495D01*
X120697504Y-74152370D01*
X120814526Y-74051732D01*
X120937323Y-73986224D01*
X121102752Y-73950771D01*
X121289510Y-73943488D01*
X121476293Y-73962488D01*
G37*
G36*
X142098406Y-75291521D02*
G01*
X142488990Y-75309422D01*
X142680447Y-75322076D01*
X143142480Y-75368731D01*
X143530991Y-75439472D01*
X143853192Y-75537393D01*
X144116293Y-75665589D01*
X144327502Y-75827153D01*
X144494032Y-76025182D01*
X144556447Y-76127256D01*
X144679441Y-76349289D01*
X144679441Y-77683936D01*
X144679441Y-79018583D01*
X144568295Y-79206268D01*
X144387673Y-79450995D01*
X144158731Y-79649801D01*
X143870969Y-79809971D01*
X143513887Y-79938791D01*
X143511625Y-79939451D01*
X143443376Y-79957037D01*
X143364467Y-79971728D01*
X143266850Y-79983835D01*
X143142477Y-79993668D01*
X142983301Y-80001538D01*
X142781273Y-80007757D01*
X142528346Y-80012636D01*
X142216471Y-80016485D01*
X141837602Y-80019615D01*
X141383690Y-80022337D01*
X141363678Y-80022443D01*
X140964643Y-80023818D01*
X140583960Y-80023746D01*
X140231294Y-80022329D01*
X139916309Y-80019665D01*
X139648670Y-80015855D01*
X139438042Y-80010999D01*
X139294091Y-80005198D01*
X139236584Y-80000412D01*
X138840428Y-79917655D01*
X138493338Y-79789117D01*
X138201945Y-79619161D01*
X137972880Y-79412153D01*
X137812774Y-79172457D01*
X137755767Y-79025775D01*
X137721673Y-78852013D01*
X137700870Y-78623031D01*
X137693373Y-78365781D01*
X137693906Y-78342111D01*
X138798653Y-78342111D01*
X138801141Y-78535506D01*
X138810819Y-78665067D01*
X138831012Y-78750289D01*
X138865042Y-78810664D01*
X138881970Y-78830789D01*
X139035335Y-78955643D01*
X139246077Y-79049154D01*
X139465976Y-79105773D01*
X139582751Y-79120342D01*
X139770206Y-79132794D01*
X140015632Y-79143083D01*
X140306319Y-79151166D01*
X140629558Y-79156999D01*
X140972639Y-79160538D01*
X141322853Y-79161740D01*
X141667490Y-79160561D01*
X141993841Y-79156956D01*
X142289196Y-79150882D01*
X142540847Y-79142296D01*
X142736082Y-79131152D01*
X142861739Y-79117486D01*
X143164565Y-79041709D01*
X143393712Y-78931149D01*
X143511625Y-78831031D01*
X143545072Y-78785638D01*
X143569037Y-78725578D01*
X143585593Y-78636164D01*
X143596811Y-78502713D01*
X143604766Y-78310540D01*
X143609378Y-78138416D01*
X143623716Y-77537959D01*
X141657349Y-77537959D01*
X141147240Y-77538439D01*
X140713301Y-77540358D01*
X140348291Y-77544438D01*
X140044966Y-77551401D01*
X139796086Y-77561968D01*
X139594407Y-77576860D01*
X139432689Y-77596798D01*
X139303688Y-77622503D01*
X139200163Y-77654698D01*
X139114872Y-77694102D01*
X139040572Y-77741438D01*
X138970021Y-77797427D01*
X138959239Y-77806681D01*
X138798653Y-77945497D01*
X138798653Y-78342111D01*
X137693906Y-78342111D01*
X137699197Y-78107211D01*
X137712499Y-77945497D01*
X137718358Y-77874274D01*
X137750869Y-77693919D01*
X137755020Y-77679257D01*
X137873822Y-77424557D01*
X138068837Y-77202208D01*
X138339075Y-77012966D01*
X138683550Y-76857587D01*
X138931536Y-76779257D01*
X139007554Y-76759358D01*
X139083504Y-76742545D01*
X139167118Y-76728488D01*
X139266127Y-76716856D01*
X139388265Y-76707318D01*
X139541265Y-76699543D01*
X139732858Y-76693200D01*
X139970777Y-76687959D01*
X140262755Y-76683488D01*
X140616524Y-76679456D01*
X141039817Y-76675533D01*
X141431782Y-76672266D01*
X141912855Y-76668279D01*
X142317111Y-76664591D01*
X142651148Y-76660902D01*
X142921562Y-76656912D01*
X143134950Y-76652320D01*
X143297908Y-76646826D01*
X143417033Y-76640128D01*
X143498923Y-76631927D01*
X143550174Y-76621922D01*
X143577382Y-76609812D01*
X143587145Y-76595297D01*
X143586059Y-76578077D01*
X143585091Y-76574169D01*
X143521266Y-76474703D01*
X143392574Y-76378877D01*
X143217067Y-76299439D01*
X143177963Y-76286649D01*
X143084534Y-76269342D01*
X142923836Y-76251699D01*
X142712001Y-76234982D01*
X142465161Y-76220454D01*
X142199447Y-76209375D01*
X142183667Y-76208861D01*
X141901065Y-76199443D01*
X141689964Y-76190769D01*
X141538479Y-76181204D01*
X141434729Y-76169110D01*
X141366833Y-76152852D01*
X141322907Y-76130792D01*
X141291069Y-76101295D01*
X141276524Y-76083929D01*
X141220522Y-75966634D01*
X141193454Y-75808811D01*
X141194977Y-75640049D01*
X141224748Y-75489940D01*
X141282425Y-75388075D01*
X141284611Y-75386049D01*
X141381509Y-75337234D01*
X141547531Y-75305295D01*
X141785542Y-75290101D01*
X142098406Y-75291521D01*
G37*
G36*
X149014425Y-75292604D02*
G01*
X149499272Y-75307325D01*
X149915916Y-75333550D01*
X150271745Y-75372759D01*
X150574147Y-75426433D01*
X150830509Y-75496052D01*
X151048218Y-75583099D01*
X151234662Y-75689052D01*
X151397228Y-75815394D01*
X151479358Y-75894335D01*
X151553473Y-75972061D01*
X151615650Y-76044934D01*
X151666937Y-76120774D01*
X151708383Y-76207401D01*
X151741036Y-76312638D01*
X151765944Y-76444305D01*
X151784156Y-76610221D01*
X151796719Y-76818209D01*
X151804682Y-77076089D01*
X151809093Y-77391681D01*
X151811000Y-77772806D01*
X151811452Y-78227285D01*
X151811461Y-78372113D01*
X151811265Y-78849171D01*
X151809948Y-79250658D01*
X151806417Y-79584420D01*
X151799577Y-79858302D01*
X151788336Y-80080150D01*
X151771599Y-80257808D01*
X151748272Y-80399121D01*
X151717262Y-80511935D01*
X151677475Y-80604095D01*
X151627818Y-80683447D01*
X151567196Y-80757834D01*
X151494516Y-80835103D01*
X151463687Y-80866671D01*
X151254998Y-81044353D01*
X151006882Y-81185070D01*
X150699803Y-81299454D01*
X150631708Y-81319506D01*
X150505345Y-81344168D01*
X150320182Y-81365499D01*
X150089993Y-81383259D01*
X149828550Y-81397208D01*
X149549627Y-81407106D01*
X149266995Y-81412712D01*
X148994429Y-81413787D01*
X148745701Y-81410089D01*
X148534584Y-81401380D01*
X148374850Y-81387418D01*
X148280273Y-81367964D01*
X148266305Y-81360757D01*
X148222722Y-81315767D01*
X148197315Y-81248002D01*
X148185554Y-81136719D01*
X148182889Y-80978846D01*
X148183685Y-80837963D01*
X148192816Y-80731071D01*
X148220394Y-80653481D01*
X148276533Y-80600502D01*
X148371347Y-80567445D01*
X148514948Y-80549619D01*
X148717451Y-80542334D01*
X148988968Y-80540900D01*
X149127232Y-80540915D01*
X149531939Y-80535606D01*
X149861563Y-80518483D01*
X150123831Y-80487750D01*
X150326472Y-80441612D01*
X150477212Y-80378273D01*
X150583782Y-80295940D01*
X150653907Y-80192815D01*
X150657337Y-80185461D01*
X150681206Y-80134765D01*
X150698085Y-80092510D01*
X150701336Y-80057843D01*
X150684323Y-80029911D01*
X150640408Y-80007861D01*
X150562953Y-79990840D01*
X150445321Y-79977994D01*
X150280876Y-79968470D01*
X150062979Y-79961414D01*
X149784994Y-79955975D01*
X149440283Y-79951297D01*
X149022208Y-79946529D01*
X148777224Y-79943772D01*
X148329878Y-79937699D01*
X147916092Y-79930180D01*
X147543705Y-79921460D01*
X147220556Y-79911784D01*
X146954483Y-79901399D01*
X146753325Y-79890551D01*
X146624919Y-79879484D01*
X146597996Y-79875490D01*
X146231023Y-79783354D01*
X145904880Y-79652936D01*
X145631536Y-79490583D01*
X145422960Y-79302641D01*
X145357715Y-79217843D01*
X145295051Y-79120076D01*
X145245548Y-79026181D01*
X145207668Y-78924960D01*
X145179871Y-78805218D01*
X145160617Y-78655756D01*
X145148367Y-78465378D01*
X145141582Y-78222888D01*
X145138722Y-77917089D01*
X145138280Y-77653466D01*
X146243481Y-77653466D01*
X146244111Y-77983048D01*
X146247821Y-78239961D01*
X146257336Y-78434949D01*
X146275384Y-78578758D01*
X146304691Y-78682133D01*
X146347984Y-78755820D01*
X146407991Y-78810562D01*
X146487437Y-78857107D01*
X146557603Y-78891288D01*
X146654585Y-78933940D01*
X146755518Y-78969520D01*
X146868746Y-78998676D01*
X147002609Y-79022053D01*
X147165450Y-79040299D01*
X147365609Y-79054059D01*
X147611428Y-79063980D01*
X147911250Y-79070709D01*
X148273414Y-79074891D01*
X148706263Y-79077173D01*
X148964909Y-79077829D01*
X150706206Y-79081145D01*
X150706206Y-77888483D01*
X150705705Y-77517825D01*
X150703143Y-77221124D01*
X150696930Y-76988923D01*
X150685475Y-76811766D01*
X150667190Y-76680195D01*
X150640485Y-76584753D01*
X150603769Y-76515984D01*
X150555454Y-76464430D01*
X150493949Y-76420635D01*
X150455549Y-76397389D01*
X150358524Y-76346986D01*
X150248795Y-76305898D01*
X150117260Y-76273236D01*
X149954814Y-76248116D01*
X149752354Y-76229651D01*
X149500778Y-76216954D01*
X149190981Y-76209139D01*
X148813860Y-76205320D01*
X148474843Y-76204545D01*
X148040173Y-76205909D01*
X147679779Y-76210592D01*
X147384558Y-76219480D01*
X147145407Y-76233460D01*
X146953223Y-76253418D01*
X146798901Y-76280239D01*
X146673338Y-76314812D01*
X146567432Y-76358021D01*
X146494137Y-76397389D01*
X146418575Y-76446187D01*
X146359910Y-76499601D01*
X146316014Y-76568294D01*
X146284760Y-76662932D01*
X146264018Y-76794177D01*
X146251661Y-76972696D01*
X146245561Y-77209151D01*
X146243590Y-77514207D01*
X146243481Y-77653466D01*
X145138280Y-77653466D01*
X145138226Y-77621374D01*
X145139490Y-77241803D01*
X145144516Y-76934821D01*
X145155150Y-76689627D01*
X145173240Y-76495417D01*
X145200634Y-76341389D01*
X145239179Y-76216738D01*
X145290724Y-76110663D01*
X145357116Y-76012360D01*
X145428412Y-75924727D01*
X145595690Y-75772989D01*
X145823176Y-75629016D01*
X146087830Y-75505817D01*
X146294975Y-75435413D01*
X146513341Y-75388797D01*
X146809473Y-75350565D01*
X147178109Y-75321077D01*
X147613987Y-75300691D01*
X148111845Y-75289767D01*
X148453990Y-75287905D01*
X149014425Y-75292604D01*
G37*
G36*
X108867975Y-73953422D02*
G01*
X109279100Y-73955336D01*
X109674099Y-73958366D01*
X110043922Y-73962515D01*
X110379523Y-73967787D01*
X110671851Y-73974185D01*
X110911858Y-73981713D01*
X111090496Y-73990374D01*
X111125582Y-73992798D01*
X111625818Y-74053546D01*
X112055837Y-74155663D01*
X112418410Y-74300135D01*
X112716309Y-74487949D01*
X112850300Y-74606779D01*
X112958244Y-74721256D01*
X113039718Y-74829370D01*
X113097996Y-74944956D01*
X113136351Y-75081848D01*
X113158058Y-75253881D01*
X113166392Y-75474889D01*
X113164625Y-75758707D01*
X113161173Y-75920374D01*
X113153586Y-76197700D01*
X113144977Y-76405705D01*
X113133723Y-76558481D01*
X113118201Y-76670120D01*
X113096789Y-76754715D01*
X113067862Y-76826357D01*
X113053520Y-76855129D01*
X112890100Y-77082853D01*
X112652362Y-77284606D01*
X112346312Y-77456928D01*
X111977951Y-77596362D01*
X111605221Y-77689469D01*
X111479998Y-77711832D01*
X111348388Y-77729224D01*
X111198517Y-77742153D01*
X111018512Y-77751128D01*
X110796500Y-77756655D01*
X110520608Y-77759244D01*
X110178961Y-77759401D01*
X109985596Y-77758752D01*
X109673883Y-77757845D01*
X109391660Y-77757811D01*
X109148999Y-77758589D01*
X108955970Y-77760116D01*
X108822646Y-77762331D01*
X108759098Y-77765171D01*
X108755218Y-77766316D01*
X108797158Y-77784704D01*
X108903056Y-77826570D01*
X109058657Y-77886399D01*
X109249707Y-77958673D01*
X109332150Y-77989567D01*
X109591364Y-78087773D01*
X109885466Y-78201459D01*
X110204975Y-78326761D01*
X110540407Y-78459812D01*
X110882279Y-78596746D01*
X111221108Y-78733698D01*
X111547411Y-78866801D01*
X111851705Y-78992190D01*
X112124507Y-79105998D01*
X112356334Y-79204361D01*
X112537702Y-79283412D01*
X112659129Y-79339284D01*
X112708634Y-79366033D01*
X112814334Y-79492496D01*
X112855263Y-79654897D01*
X112826243Y-79830808D01*
X112819731Y-79847236D01*
X112747231Y-79957660D01*
X112631546Y-80030619D01*
X112462101Y-80069477D01*
X112228320Y-80077601D01*
X112110923Y-80072802D01*
X112008804Y-80065690D01*
X111915391Y-80054339D01*
X111819761Y-80034970D01*
X111710994Y-80003802D01*
X111578167Y-79957056D01*
X111410360Y-79890952D01*
X111196649Y-79801712D01*
X110926114Y-79685554D01*
X110666797Y-79573040D01*
X110008612Y-79286996D01*
X109423331Y-79032882D01*
X108907440Y-78809192D01*
X108457423Y-78614418D01*
X108069764Y-78447055D01*
X107740948Y-78305596D01*
X107467459Y-78188535D01*
X107245782Y-78094366D01*
X107072400Y-78021583D01*
X106943798Y-77968678D01*
X106856460Y-77934146D01*
X106806871Y-77916480D01*
X106793166Y-77913328D01*
X106776749Y-77942501D01*
X106764114Y-78033281D01*
X106755027Y-78190563D01*
X106749250Y-78419243D01*
X106746548Y-78724215D01*
X106746272Y-78886190D01*
X106746272Y-79859051D01*
X106639363Y-79959486D01*
X106566168Y-80015130D01*
X106477065Y-80048103D01*
X106346345Y-80065491D01*
X106232713Y-80071568D01*
X105998737Y-80067152D01*
X105828598Y-80034486D01*
X105799846Y-80023143D01*
X105697585Y-79953853D01*
X105636158Y-79843132D01*
X105620875Y-79792816D01*
X105610884Y-79713584D01*
X105602434Y-79561631D01*
X105595479Y-79345507D01*
X105589970Y-79073763D01*
X105585861Y-78754952D01*
X105583106Y-78397622D01*
X105581656Y-78010327D01*
X105581467Y-77601616D01*
X105582489Y-77180041D01*
X105584273Y-76832835D01*
X106746272Y-76832835D01*
X109071477Y-76819178D01*
X109578811Y-76815975D01*
X110009687Y-76812645D01*
X110371063Y-76808958D01*
X110669895Y-76804680D01*
X110913141Y-76799580D01*
X111107758Y-76793425D01*
X111260704Y-76785983D01*
X111378936Y-76777023D01*
X111469412Y-76766312D01*
X111539088Y-76753618D01*
X111594922Y-76738709D01*
X111607670Y-76734563D01*
X111751409Y-76671938D01*
X111877044Y-76593428D01*
X111920478Y-76555221D01*
X111961113Y-76507989D01*
X111989200Y-76457442D01*
X112007050Y-76388037D01*
X112016974Y-76284237D01*
X112021283Y-76130499D01*
X112022289Y-75911285D01*
X112022298Y-75870669D01*
X112020513Y-75615690D01*
X112010615Y-75429438D01*
X111985793Y-75297236D01*
X111939233Y-75204405D01*
X111864122Y-75136268D01*
X111753649Y-75078147D01*
X111630829Y-75027240D01*
X111578903Y-75007176D01*
X111527104Y-74990160D01*
X111468317Y-74975891D01*
X111395431Y-74964068D01*
X111301334Y-74954391D01*
X111178912Y-74946559D01*
X111021054Y-74940271D01*
X110820647Y-74935226D01*
X110570579Y-74931124D01*
X110263738Y-74927663D01*
X109893010Y-74924544D01*
X109451284Y-74921465D01*
X109071477Y-74919016D01*
X106746272Y-74904212D01*
X106746272Y-75868524D01*
X106746272Y-76832835D01*
X105584273Y-76832835D01*
X105584677Y-76754152D01*
X105587984Y-76332502D01*
X105592363Y-75923640D01*
X105593131Y-75868524D01*
X105597766Y-75536118D01*
X105604147Y-75178487D01*
X105611460Y-74859298D01*
X105619656Y-74587102D01*
X105628690Y-74370450D01*
X105638514Y-74217893D01*
X105649082Y-74137983D01*
X105651935Y-74130178D01*
X105725966Y-74058422D01*
X105839765Y-74001267D01*
X105860474Y-73994861D01*
X105935188Y-73985813D01*
X106084262Y-73977846D01*
X106298647Y-73970963D01*
X106569295Y-73965166D01*
X106887157Y-73960461D01*
X107243184Y-73956850D01*
X107628328Y-73954337D01*
X108033540Y-73952926D01*
X108449772Y-73952619D01*
X108867975Y-73953422D01*
G37*
M02*
