G04 #@! TF.GenerationSoftware,KiCad,Pcbnew,8.0.2-1*
G04 #@! TF.CreationDate,2024-07-03T19:51:58+09:00*
G04 #@! TF.ProjectId,lagoon,6c61676f-6f6e-42e6-9b69-6361645f7063,rev?*
G04 #@! TF.SameCoordinates,Original*
G04 #@! TF.FileFunction,Profile,NP*
%FSLAX46Y46*%
G04 Gerber Fmt 4.6, Leading zero omitted, Abs format (unit mm)*
G04 Created by KiCad (PCBNEW 8.0.2-1) date 2024-07-03 19:51:58*
%MOMM*%
%LPD*%
G01*
G04 APERTURE LIST*
G04 #@! TA.AperFunction,Profile*
%ADD10C,0.100000*%
G04 #@! TD*
G04 #@! TA.AperFunction,Profile*
%ADD11C,0.150000*%
G04 #@! TD*
G04 APERTURE END LIST*
D10*
X17673377Y-99642387D02*
G75*
G02*
X12670570Y-94631247I12253J5015047D01*
G01*
X157671326Y-102645809D02*
G75*
G02*
X137192421Y-105748066I-20403726J65546209D01*
G01*
X261554243Y-94631249D02*
G75*
G02*
X256560952Y-99629754I-4985543J-12951D01*
G01*
X256561045Y-12668750D02*
X17673445Y-12668750D01*
X96635945Y-99634328D02*
G75*
G02*
X116713513Y-102645819I-45J-68434472D01*
G01*
X177748897Y-99631249D02*
X256560952Y-99629720D01*
X12664720Y-17668716D02*
X12668750Y-94631248D01*
X256561045Y-12668750D02*
G75*
G02*
X261554230Y-17668664I11555J-4981650D01*
G01*
X17673377Y-99642388D02*
X96635945Y-99642388D01*
X261554244Y-94631249D02*
X261554244Y-17668664D01*
X12668750Y-17668716D02*
G75*
G02*
X17673445Y-12668748I5035770J-35834D01*
G01*
X157671326Y-102645809D02*
G75*
G02*
X177748897Y-99634328I20077474J-65422291D01*
G01*
X137192421Y-105748070D02*
G75*
G02*
X116713517Y-102645805I-75121J68648670D01*
G01*
D11*
X196735485Y-39574982D02*
X210835485Y-39574982D01*
X196735485Y-53674982D02*
X196735485Y-39574982D01*
X210835485Y-39574982D02*
X210835485Y-53674982D01*
X210835485Y-53674982D02*
X196735485Y-53674982D01*
X72910485Y-58624982D02*
X87010485Y-58624982D01*
X72910485Y-72724982D02*
X72910485Y-58624982D01*
X87010485Y-58624982D02*
X87010485Y-72724982D01*
X87010485Y-72724982D02*
X72910485Y-72724982D01*
X211022985Y-20524982D02*
X225122985Y-20524982D01*
X211022985Y-34624982D02*
X211022985Y-20524982D01*
X225122985Y-20524982D02*
X225122985Y-34624982D01*
X225122985Y-34624982D02*
X211022985Y-34624982D01*
X22904235Y-39574982D02*
X37004235Y-39574982D01*
X22904235Y-53674982D02*
X22904235Y-39574982D01*
X37004235Y-39574982D02*
X37004235Y-53674982D01*
X37004235Y-53674982D02*
X22904235Y-53674982D01*
X172922985Y-20524982D02*
X187022985Y-20524982D01*
X172922985Y-34624982D02*
X172922985Y-20524982D01*
X187022985Y-20524982D02*
X187022985Y-34624982D01*
X187022985Y-34624982D02*
X172922985Y-34624982D01*
X44335485Y-39574982D02*
X58435485Y-39574982D01*
X44335485Y-53674982D02*
X44335485Y-39574982D01*
X58435485Y-39574982D02*
X58435485Y-53674982D01*
X58435485Y-53674982D02*
X44335485Y-53674982D01*
X149110485Y-58624982D02*
X163210485Y-58624982D01*
X149110485Y-72724982D02*
X149110485Y-58624982D01*
X163210485Y-58624982D02*
X163210485Y-72724982D01*
X163210485Y-72724982D02*
X149110485Y-72724982D01*
X215785485Y-39574982D02*
X229885485Y-39574982D01*
X215785485Y-53674982D02*
X215785485Y-39574982D01*
X229885485Y-39574982D02*
X229885485Y-53674982D01*
X229885485Y-53674982D02*
X215785485Y-53674982D01*
X191972985Y-20524982D02*
X206072985Y-20524982D01*
X191972985Y-34624982D02*
X191972985Y-20524982D01*
X206072985Y-20524982D02*
X206072985Y-34624982D01*
X206072985Y-34624982D02*
X191972985Y-34624982D01*
X111010485Y-58624982D02*
X125110485Y-58624982D01*
X111010485Y-72724982D02*
X111010485Y-58624982D01*
X125110485Y-58624982D02*
X125110485Y-72724982D01*
X125110485Y-72724982D02*
X111010485Y-72724982D01*
X237216735Y-39574982D02*
X251316735Y-39574982D01*
X237216735Y-53674982D02*
X237216735Y-39574982D01*
X251316735Y-39574982D02*
X251316735Y-53674982D01*
X251316735Y-53674982D02*
X237216735Y-53674982D01*
X156565212Y-82800398D02*
X170527992Y-80838058D01*
X158527552Y-96763178D02*
X156565212Y-82800398D01*
X170527992Y-80838058D02*
X172490332Y-94800838D01*
X172490332Y-94800838D02*
X158527552Y-96763178D01*
X153872985Y-20524982D02*
X167972985Y-20524982D01*
X153872985Y-34624982D02*
X153872985Y-20524982D01*
X167972985Y-20524982D02*
X167972985Y-34624982D01*
X167972985Y-34624982D02*
X153872985Y-34624982D01*
X139585485Y-39574982D02*
X153685485Y-39574982D01*
X139585485Y-53674982D02*
X139585485Y-39574982D01*
X153685485Y-39574982D02*
X153685485Y-53674982D01*
X153685485Y-53674982D02*
X139585485Y-53674982D01*
X63385485Y-39574982D02*
X77485485Y-39574982D01*
X63385485Y-53674982D02*
X63385485Y-39574982D01*
X77485485Y-39574982D02*
X77485485Y-53674982D01*
X77485485Y-53674982D02*
X63385485Y-53674982D01*
X177685485Y-39574982D02*
X191785485Y-39574982D01*
X177685485Y-53674982D02*
X177685485Y-39574982D01*
X191785485Y-39574982D02*
X191785485Y-53674982D01*
X191785485Y-53674982D02*
X177685485Y-53674982D01*
X184354625Y-79377849D02*
X198420278Y-78394282D01*
X185338192Y-93443502D02*
X184354625Y-79377849D01*
X198420278Y-78394282D02*
X199403845Y-92459935D01*
X199403845Y-92459935D02*
X185338192Y-93443502D01*
X27666735Y-58624982D02*
X41766735Y-58624982D01*
X27666735Y-72724982D02*
X27666735Y-58624982D01*
X41766735Y-58624982D02*
X41766735Y-72724982D01*
X41766735Y-72724982D02*
X27666735Y-72724982D01*
X129222985Y-85720414D02*
X145222985Y-85720414D01*
X129222985Y-99820414D02*
X129222985Y-85720414D01*
X129222985Y-99820414D02*
X145222985Y-99820414D01*
X145222985Y-85720414D02*
X145222985Y-99820414D01*
X74817125Y-92446840D02*
X75800692Y-78381187D01*
X75800692Y-78381187D02*
X89866345Y-79364754D01*
X88882778Y-93430407D02*
X74817125Y-92446840D01*
X89866345Y-79364754D02*
X88882778Y-93430407D01*
X130060485Y-58624982D02*
X144160485Y-58624982D01*
X130060485Y-72724982D02*
X130060485Y-58624982D01*
X144160485Y-58624982D02*
X144160485Y-72724982D01*
X144160485Y-72724982D02*
X130060485Y-72724982D01*
X50774744Y-77674982D02*
X64874744Y-77674982D01*
X50774744Y-91774982D02*
X50774744Y-77674982D01*
X64874744Y-77674982D02*
X64874744Y-91774982D01*
X64874744Y-91774982D02*
X50774744Y-91774982D01*
X82435485Y-39574982D02*
X96535485Y-39574982D01*
X82435485Y-53674982D02*
X82435485Y-39574982D01*
X96535485Y-39574982D02*
X96535485Y-53674982D01*
X96535485Y-53674982D02*
X82435485Y-53674982D01*
X91960485Y-58624982D02*
X106060485Y-58624982D01*
X91960485Y-72724982D02*
X91960485Y-58624982D01*
X106060485Y-58624982D02*
X106060485Y-72724982D01*
X106060485Y-72724982D02*
X91960485Y-72724982D01*
X115772985Y-20524982D02*
X129872985Y-20524982D01*
X115772985Y-34624982D02*
X115772985Y-20524982D01*
X129872985Y-20524982D02*
X129872985Y-34624982D01*
X129872985Y-34624982D02*
X115772985Y-34624982D01*
X134822985Y-20524982D02*
X148922985Y-20524982D01*
X134822985Y-34624982D02*
X134822985Y-20524982D01*
X148922985Y-20524982D02*
X148922985Y-34624982D01*
X148922985Y-34624982D02*
X134822985Y-34624982D01*
X53860485Y-58624982D02*
X67960485Y-58624982D01*
X53860485Y-72724982D02*
X53860485Y-58624982D01*
X67960485Y-58624982D02*
X67960485Y-72724982D01*
X67960485Y-72724982D02*
X53860485Y-72724982D01*
X20522985Y-20524982D02*
X34622985Y-20524982D01*
X20522985Y-34624982D02*
X20522985Y-20524982D01*
X34622985Y-20524982D02*
X34622985Y-34624982D01*
X34622985Y-34624982D02*
X20522985Y-34624982D01*
X233885485Y-80056232D02*
X249885485Y-80056232D01*
X233885485Y-94156232D02*
X233885485Y-80056232D01*
X233885485Y-94156232D02*
X249885485Y-94156232D01*
X249885485Y-80056232D02*
X249885485Y-94156232D01*
X39572985Y-20524982D02*
X53672985Y-20524982D01*
X39572985Y-34624982D02*
X39572985Y-20524982D01*
X53672985Y-20524982D02*
X53672985Y-34624982D01*
X53672985Y-34624982D02*
X39572985Y-34624982D01*
X234835485Y-20524982D02*
X248935485Y-20524982D01*
X234835485Y-34624982D02*
X234835485Y-20524982D01*
X248935485Y-20524982D02*
X248935485Y-34624982D01*
X248935485Y-34624982D02*
X234835485Y-34624982D01*
X120535485Y-39574982D02*
X134635485Y-39574982D01*
X120535485Y-53674982D02*
X120535485Y-39574982D01*
X134635485Y-39574982D02*
X134635485Y-53674982D01*
X134635485Y-53674982D02*
X120535485Y-53674982D01*
X58622985Y-20524982D02*
X72722985Y-20524982D01*
X58622985Y-34624982D02*
X58622985Y-20524982D01*
X72722985Y-20524982D02*
X72722985Y-34624982D01*
X72722985Y-34624982D02*
X58622985Y-34624982D01*
X158635485Y-39574982D02*
X172735485Y-39574982D01*
X158635485Y-53674982D02*
X158635485Y-39574982D01*
X172735485Y-39574982D02*
X172735485Y-53674982D01*
X172735485Y-53674982D02*
X158635485Y-53674982D01*
X187210485Y-58624982D02*
X201310485Y-58624982D01*
X187210485Y-72724982D02*
X187210485Y-58624982D01*
X201310485Y-58624982D02*
X201310485Y-72724982D01*
X201310485Y-72724982D02*
X187210485Y-72724982D01*
X206260485Y-58624982D02*
X220360485Y-58624982D01*
X206260485Y-72724982D02*
X206260485Y-58624982D01*
X220360485Y-58624982D02*
X220360485Y-72724982D01*
X220360485Y-72724982D02*
X206260485Y-72724982D01*
X24335485Y-80056232D02*
X40335485Y-80056232D01*
X24335485Y-94156232D02*
X24335485Y-80056232D01*
X24335485Y-94156232D02*
X40335485Y-94156232D01*
X40335485Y-80056232D02*
X40335485Y-94156232D01*
X232454235Y-58624982D02*
X246554235Y-58624982D01*
X232454235Y-72724982D02*
X232454235Y-58624982D01*
X246554235Y-58624982D02*
X246554235Y-72724982D01*
X246554235Y-72724982D02*
X232454235Y-72724982D01*
X168160485Y-58624982D02*
X182260485Y-58624982D01*
X168160485Y-72724982D02*
X168160485Y-58624982D01*
X182260485Y-58624982D02*
X182260485Y-72724982D01*
X182260485Y-72724982D02*
X168160485Y-72724982D01*
X101776788Y-94797547D02*
X103739128Y-80834767D01*
X103739128Y-80834767D02*
X117701908Y-82797107D01*
X115739568Y-96759887D02*
X101776788Y-94797547D01*
X117701908Y-82797107D02*
X115739568Y-96759887D01*
X101485485Y-39574982D02*
X115585485Y-39574982D01*
X101485485Y-53674982D02*
X101485485Y-39574982D01*
X115585485Y-39574982D02*
X115585485Y-53674982D01*
X115585485Y-53674982D02*
X101485485Y-53674982D01*
X96722985Y-20524982D02*
X110822985Y-20524982D01*
X96722985Y-34624982D02*
X96722985Y-20524982D01*
X110822985Y-20524982D02*
X110822985Y-34624982D01*
X110822985Y-34624982D02*
X96722985Y-34624982D01*
X77672985Y-20524982D02*
X91772985Y-20524982D01*
X77672985Y-34624982D02*
X77672985Y-20524982D01*
X91772985Y-20524982D02*
X91772985Y-34624982D01*
X91772985Y-34624982D02*
X77672985Y-34624982D01*
X209315573Y-77674982D02*
X223415573Y-77674982D01*
X209315573Y-91774982D02*
X209315573Y-77674982D01*
X223415573Y-77674982D02*
X223415573Y-91774982D01*
X223415573Y-91774982D02*
X209315573Y-91774982D01*
M02*
